<svg width="31" height="32" viewBox="0 0 31 32" fill="none" xmlns="http://www.w3.org/2000/svg">
<g opacity="0.8">
<path d="M16.213 29.1418L16.8667 28.385L16.213 29.1418ZM10.3863 24.1083L9.73255 24.8651L10.3863 24.1083ZM5.37526 9.74321C5.92755 9.74321 6.37526 9.29549 6.37526 8.7432C6.37525 8.19092 5.92753 7.74321 5.37525 7.74321L5.37526 9.74321ZM16.213 2.85824L16.8667 3.61498L16.8667 3.61498L16.213 2.85824ZM11.2179 5.85184C10.7999 6.21287 10.7538 6.84436 11.1148 7.26229C11.4759 7.68023 12.1073 7.72636 12.5253 7.36532L11.2179 5.85184ZM2 18.8816V13.1185H0V18.8816H2ZM8.09811 22.2569H5.37529V24.2569H8.09811V22.2569ZM16.8667 28.385L11.04 23.3516L9.73255 24.8651L15.5593 29.8985L16.8667 28.385ZM15.5593 29.8985C18.475 32.4172 23.0014 30.3459 23.0014 26.493H21.0014C21.0014 28.6336 18.4866 29.7844 16.8667 28.385L15.5593 29.8985ZM8.09811 24.2569C8.69826 24.2569 9.27839 24.4728 9.73255 24.8651L11.04 23.3516C10.2225 22.6454 9.17834 22.2569 8.09811 22.2569V24.2569ZM0 18.8816C0 21.8503 2.40659 24.2569 5.37529 24.2569V22.2569C3.51117 22.2569 2 20.7457 2 18.8816H0ZM5.37525 7.74321C2.40657 7.74323 0 10.1498 0 13.1185H2C2 11.2544 3.51115 9.74322 5.37526 9.74321L5.37525 7.74321ZM16.8667 3.61498C18.4866 2.21563 21.0014 3.3664 21.0014 5.50701H23.0014C23.0014 1.65407 18.475 -0.417228 15.5593 2.10149L16.8667 3.61498ZM21.0014 5.50701V26.493H23.0014V5.50701H21.0014ZM12.5253 7.36532L16.8667 3.61498L15.5593 2.10149L11.2179 5.85184L12.5253 7.36532Z" fill="white"/>
<path d="M27.2517 21.2513C28.3506 19.7888 29.0018 17.9709 29.0018 16.001C29.0018 14.031 28.3506 12.2131 27.2517 10.7506" stroke="white" stroke-width="2" stroke-linecap="round"/>
</g>
</svg>
