<svg width="32" height="32" viewBox="0 0 32 32" fill="none" xmlns="http://www.w3.org/2000/svg">
<path d="M17.212 2.85818L18.1926 3.99329V3.99329L17.212 2.85818ZM6.37498 10.2428C7.20341 10.2428 7.87497 9.57118 7.87497 8.74275C7.87496 7.91433 7.20338 7.24276 6.37496 7.24276L6.37498 10.2428ZM9 24.7555C9.82843 24.7555 10.5 24.0839 10.5 23.2555C10.5 22.4271 9.82843 21.7555 9 21.7555V24.7555ZM24.5 17.1082C24.5 16.2798 23.8284 15.6082 23 15.6082C22.1716 15.6082 21.5 16.2798 21.5 17.1082H24.5ZM17.212 29.14L18.1926 28.0049L18.1926 28.0048L17.212 29.14ZM16.7 28.6977L17.6806 27.5626L17.6598 27.5446L17.6384 27.5274L16.7 28.6977ZM15.1883 25.563C14.542 25.0447 13.598 25.1486 13.0797 25.7949C12.5615 26.4412 12.6653 27.3853 13.3117 27.9035L15.1883 25.563ZM2.68934 28.2976C2.10355 28.8834 2.10355 29.8331 2.68934 30.4189C3.27513 31.0047 4.22487 31.0047 4.81066 30.4189L2.68934 28.2976ZM31.0607 4.16888C31.6464 3.5831 31.6464 2.63335 31.0607 2.04756C30.4749 1.46178 29.5251 1.46178 28.9393 2.04756L31.0607 4.16888ZM11.8903 5.47316C11.2634 6.01471 11.1942 6.96194 11.7357 7.58885C12.2773 8.21575 13.2245 8.28494 13.8514 7.74339L11.8903 5.47316ZM3.5 18.8805V13.1178H0.5V18.8805H3.5ZM9 21.7555H6.375V24.7555H9V21.7555ZM21.5 5.50678V10.1082H24.5V5.50678H21.5ZM18.1926 28.0048L17.6806 27.5626L15.7194 29.8328L16.2314 30.2751L18.1926 28.0048ZM17.6384 27.5274L15.1883 25.563L13.3117 27.9035L15.7617 29.868L17.6384 27.5274ZM0.5 18.8805C0.5 22.1251 3.13032 24.7555 6.375 24.7555V21.7555C4.78718 21.7555 3.5 20.4683 3.5 18.8805H0.5ZM6.37496 7.24276C3.1303 7.24279 0.5 9.87311 0.5 13.1178H3.5C3.5 11.53 4.78717 10.2428 6.37498 10.2428L6.37496 7.24276ZM18.1926 3.99329C19.4883 2.87392 21.5 3.79445 21.5 5.50678H24.5C24.5 1.22596 19.4709 -1.07537 16.2314 1.72306L18.1926 3.99329ZM21.5 26.4914C21.5 28.2037 19.4884 29.1242 18.1926 28.0049L16.2314 30.2751C19.4709 33.0735 24.5 30.7722 24.5 26.4914H21.5ZM4.81066 30.4189L31.0607 4.16888L28.9393 2.04756L2.68934 28.2976L4.81066 30.4189ZM21.5 17.1082V26.4914H24.5V17.1082H21.5ZM13.8514 7.74339L18.1926 3.99329L16.2314 1.72306L11.8903 5.47316L13.8514 7.74339Z" fill="white"/>
</svg>
