<svg width="30" height="30" viewBox="0 0 30 30" fill="none" xmlns="http://www.w3.org/2000/svg">
<path fill-rule="evenodd" clip-rule="evenodd" d="M28.6357 1.36432C29.0262 1.75484 29.0262 2.38801 28.6357 2.77853L25.5285 5.88568L24.1143 4.47146L27.2215 1.36432C27.612 0.973796 28.2452 0.973796 28.6357 1.36432Z" fill="black"/>
<path fill-rule="evenodd" clip-rule="evenodd" d="M1.32861 1.36432C0.938083 1.75484 0.938083 2.38801 1.32861 2.77853L4.43575 5.88568L5.84996 4.47146L2.74282 1.36432C2.3523 0.973796 1.71913 0.973796 1.32861 1.36432Z" fill="black"/>
<path fill-rule="evenodd" clip-rule="evenodd" d="M1.24857 21.0004C0.445174 19.1616 9.31695e-08 17.1315 0 15C-2.42908e-07 6.71573 6.71573 -1.54523e-06 15 0C23.2843 -3.62117e-07 30 6.71573 30 15C30 23.2843 23.2843 30 15 30C11.6237 30 8.50529 28.8833 5.99796 26.9995C5.55641 26.6677 5.4674 26.0409 5.79914 25.5993C6.13089 25.1578 6.75776 25.0688 7.19931 25.4005C9.37215 27.033 12.0717 28 15 28C22.1797 28 28 22.1797 28 15C28 7.8203 22.1797 2 15 2C7.8203 2 2 7.8203 2 15C2 16.8507 2.38613 18.6086 3.08128 20.1996C3.30239 20.7057 3.07138 21.2952 2.56529 21.5163C2.05921 21.7375 1.46969 21.5065 1.24857 21.0004Z" fill="black"/>
<path d="M12.25 15.4639C12.25 16.5684 11.3546 17.4639 10.25 17.4639C9.14543 17.4639 8.25 16.5684 8.25 15.4639C8.25 14.3593 9.14543 13.4639 10.25 13.4639C11.3546 13.4639 12.25 14.3593 12.25 15.4639Z" fill="black"/>
<path d="M21.5715 15.4639C21.5715 16.5684 20.6761 17.4639 19.5715 17.4639C18.467 17.4639 17.5715 16.5684 17.5715 15.4639C17.5715 14.3593 18.467 13.4639 19.5715 13.4639C20.6761 13.4639 21.5715 14.3593 21.5715 15.4639Z" fill="black"/>
</svg>
