<svg width="30" height="30" viewBox="0 0 30 30" fill="none" xmlns="http://www.w3.org/2000/svg">
<path fill-rule="evenodd" clip-rule="evenodd" d="M6.22179 3.8C6.22179 1.70132 7.92311 0 10.0218 0H11.9996C13.1943 0 14.2666 0.523755 14.9996 1.35418C15.7325 0.523755 16.8049 0 17.9996 0H19.9773C22.076 0 23.7773 1.70132 23.7773 3.8C23.7773 4.45125 23.6135 5.06424 23.3248 5.6H27.5C28.8807 5.6 30 6.71929 30 8.1V12.1C30 13.1464 29.3572 14.0426 28.4449 14.4153V25.0001C28.4449 27.7615 26.2063 30.0001 23.4449 30.0001H6.55598C3.79456 30.0001 1.55599 27.7615 1.55599 25.0001V18.5001C1.55599 17.9478 2.0037 17.5001 2.55599 17.5001C3.10827 17.5001 3.55599 17.9478 3.55599 18.5001V25.0001C3.55599 26.657 4.89913 28.0001 6.55598 28.0001H17.8885L17.8885 10.8001C17.8885 10.2478 18.3362 9.8001 18.8885 9.8001C19.4407 9.8001 19.8885 10.2478 19.8885 10.8001V12.6001H22L27.5 12.6C27.7761 12.6 28 12.3761 28 12.1V8.1C28 7.82386 27.7761 7.6 27.5 7.6H12.1107L12.1107 24.8001C12.1107 25.3524 11.663 25.8001 11.1107 25.8001C10.5584 25.8001 10.1107 25.3524 10.1107 24.8001L10.1107 14.6H2.5C1.11929 14.6 0 13.4807 0 12.1V8.1C0 6.71929 1.11929 5.6 2.5 5.6H6.67431C6.38562 5.06424 6.22179 4.45125 6.22179 3.8ZM10.0218 5.6H13.9996V4C13.9996 2.89543 13.1041 2 11.9996 2H10.0218C9.02768 2 8.22179 2.80589 8.22179 3.8C8.22179 4.79411 9.02767 5.6 10.0218 5.6ZM15.9996 4V5.6H19.9773C20.9715 5.6 21.7773 4.79411 21.7773 3.8C21.7773 2.80589 20.9715 2 19.9773 2H17.9996C16.895 2 15.9996 2.89543 15.9996 4ZM2.5 7.6C2.22386 7.6 2 7.82386 2 8.1V12.1C2 12.3761 2.22386 12.6 2.5 12.6H10.1107V7.6H2.5ZM26.4449 14.6001H19.8885L19.8885 28.0001H23.4449C25.1017 28.0001 26.4449 26.657 26.4449 25.0001V14.6001Z" fill="black"/>
</svg>
