<svg width="30" height="30" viewBox="0 0 30 30" fill="none" xmlns="http://www.w3.org/2000/svg">
<path fill-rule="evenodd" clip-rule="evenodd" d="M0 6C0 2.68629 2.68629 0 6 0H24C27.3137 0 30 2.68629 30 6V12.9C30 13.4523 29.5523 13.9 29 13.9C28.4477 13.9 28 13.4523 28 12.9V6C28 3.79086 26.2091 2 24 2H6C3.79086 2 2 3.79086 2 6V24C2 26.2091 3.79086 28 6 28H24C26.2091 28 28 26.2091 28 24V17.1C28 16.5477 28.4477 16.1 29 16.1C29.5523 16.1 30 16.5477 30 17.1V24C30 27.3137 27.3137 30 24 30H6C2.68629 30 0 27.3137 0 24V6ZM6.3002 15.7001C6.3002 13.6014 8.00151 11.9001 10.1002 11.9001C11.8528 11.9001 13.3283 13.0866 13.7672 14.7001L18.2 14.7001V12.9002C18.2 12.3479 18.6477 11.9002 19.2 11.9002C19.7523 11.9002 20.2 12.3479 20.2 12.9002V14.7001H21.7001L21.7 12.9003C21.7 12.348 22.1476 11.9002 22.6999 11.9002C23.2522 11.9002 23.7 12.3478 23.7 12.9001L23.7002 15.7C23.7002 15.9653 23.5949 16.2196 23.4073 16.4072C23.2198 16.5947 22.9654 16.7001 22.7002 16.7001H13.7672C13.3283 18.3136 11.8528 19.5001 10.1002 19.5001C8.00151 19.5001 6.3002 17.7988 6.3002 15.7001ZM10.1002 13.9001C9.10608 13.9001 8.3002 14.706 8.3002 15.7001C8.3002 16.6942 9.10608 17.5001 10.1002 17.5001C11.0943 17.5001 11.9002 16.6942 11.9002 15.7001C11.9002 14.706 11.0943 13.9001 10.1002 13.9001Z" fill="black"/>
</svg>
