<svg width="30" height="30" viewBox="0 0 30 30" fill="none" xmlns="http://www.w3.org/2000/svg">
<path fill-rule="evenodd" clip-rule="evenodd" d="M0 3.5C0 1.567 1.567 0 3.5 0H10.0294C11.9624 0 13.5294 1.567 13.5294 3.5V10.0294C13.5294 11.9624 11.9624 13.5294 10.0294 13.5294H3.5C1.567 13.5294 0 11.9624 0 10.0294V3.5ZM3.5 2C2.67157 2 2 2.67157 2 3.5V10.0294C2 10.8578 2.67157 11.5294 3.5 11.5294H10.0294C10.8578 11.5294 11.5294 10.8578 11.5294 10.0294V3.5C11.5294 2.67157 10.8578 2 10.0294 2H3.5ZM19.9706 2C19.1422 2 18.4706 2.67157 18.4706 3.5V10.0294C18.4706 10.8578 19.1422 11.5294 19.9706 11.5294H26.5C27.3284 11.5294 28 10.8578 28 10.0294V6.76471C28 6.21242 28.4477 5.76471 29 5.76471C29.5523 5.76471 30 6.21242 30 6.76471V10.0294C30 11.9624 28.433 13.5294 26.5 13.5294H19.9706C18.0376 13.5294 16.4706 11.9624 16.4706 10.0294V3.5C16.4706 1.567 18.0376 0 19.9706 0H23.2353C23.7876 0 24.2353 0.447715 24.2353 1C24.2353 1.55228 23.7876 2 23.2353 2H19.9706ZM0 19.9706C0 18.0376 1.567 16.4706 3.5 16.4706H10.0294C11.9624 16.4706 13.5294 18.0376 13.5294 19.9706V26.5C13.5294 28.433 11.9624 30 10.0294 30H3.5C1.567 30 0 28.433 0 26.5V19.9706ZM3.5 18.4706C2.67157 18.4706 2 19.1422 2 19.9706V26.5C2 27.3284 2.67157 28 3.5 28H10.0294C10.8578 28 11.5294 27.3284 11.5294 26.5V19.9706C11.5294 19.1422 10.8578 18.4706 10.0294 18.4706H3.5ZM16.4706 19.9706C16.4706 18.0376 18.0376 16.4706 19.9706 16.4706H26.5C28.433 16.4706 30 18.0376 30 19.9706V26.5C30 28.433 28.433 30 26.5 30H19.9706C18.0376 30 16.4706 28.433 16.4706 26.5V19.9706ZM19.9706 18.4706C19.1422 18.4706 18.4706 19.1422 18.4706 19.9706V26.5C18.4706 27.3284 19.1422 28 19.9706 28H26.5C27.3284 28 28 27.3284 28 26.5V19.9706C28 19.1422 27.3284 18.4706 26.5 18.4706H19.9706Z" fill="black"/>
</svg>
