<svg width="32" height="29" viewBox="0 0 32 29" fill="none" xmlns="http://www.w3.org/2000/svg">
<path d="M3.45037 16.0514L4.17578 15.3631L3.45037 16.0514ZM28.0233 16.0514L28.7487 16.7397L28.0233 16.0514ZM28.7487 2.8941C28.3686 2.49346 27.7356 2.47686 27.335 2.85701C26.9344 3.23715 26.9178 3.8701 27.2979 4.27073L28.7487 2.8941ZM21.2185 1.04963L21.3298 2.04342L21.2185 1.04963ZM18.3239 1.95057L17.8526 1.06864V1.06864L18.3239 1.95057ZM22.8854 2.04342C23.4343 2.10488 23.9291 1.70977 23.9905 1.16092C24.052 0.612066 23.6569 0.117307 23.108 0.0558438L22.8854 2.04342ZM27.2979 4.27073C30.1989 7.3281 30.1989 12.3057 27.2979 15.3631L28.7487 16.7397C32.382 12.9107 32.382 6.72317 28.7487 2.8941L27.2979 4.27073ZM4.17578 4.27073C7.04861 1.24309 11.6835 1.24309 14.5564 4.27073L16.0072 2.8941C12.3457 -0.964698 6.38644 -0.9647 2.72496 2.8941L4.17578 4.27073ZM4.17578 15.3631C1.27474 12.3057 1.27474 7.3281 4.17578 4.27073L2.72496 2.8941C-0.90832 6.72317 -0.908318 12.9107 2.72496 16.7397L4.17578 15.3631ZM14.286 26.0182L4.17578 15.3631L2.72496 16.7397L12.8352 27.3948L14.286 26.0182ZM27.2979 15.3631L17.1877 26.0182L18.6385 27.3948L28.7487 16.7397L27.2979 15.3631ZM16.9173 4.27073C17.4863 3.67108 18.1216 3.1926 18.7953 2.8325L17.8526 1.06864C16.9891 1.53014 16.1824 2.13956 15.4665 2.8941L16.9173 4.27073ZM18.7953 2.8325C19.5974 2.40383 20.4573 2.14113 21.3298 2.04342L21.1072 0.0558438C19.9845 0.181567 18.88 0.519496 17.8526 1.06864L18.7953 2.8325ZM21.3298 2.04342C21.8468 1.98553 22.3685 1.98553 22.8854 2.04342L23.108 0.0558438C22.4431 -0.0186146 21.7721 -0.0186145 21.1072 0.0558438L21.3298 2.04342ZM15.4665 2.8941C15.6134 2.73922 15.8602 2.73922 16.0072 2.8941L14.5564 4.27073C15.1981 4.94701 16.2756 4.94701 16.9173 4.27073L15.4665 2.8941ZM12.8352 27.3948C14.4125 29.0571 17.0612 29.0571 18.6385 27.3948L17.1877 26.0182C16.399 26.8493 15.0747 26.8493 14.286 26.0182L12.8352 27.3948Z" fill="#325DE9"/>
</svg>
