<svg width="30" height="30" viewBox="0 0 30 30" fill="none" xmlns="http://www.w3.org/2000/svg">
<path d="M2.54145 21.3927L1.65211 21.85L1.65211 21.85L2.54145 21.3927ZM1.33462 26.2409L0.391755 25.9077L0.391755 25.9077L1.33462 26.2409ZM2.63422 22.5631L3.57709 22.8962L3.57709 22.8962L2.63422 22.5631ZM3.47836 28.3847L3.81153 29.3275H3.81153L3.47836 28.3847ZM7.01 27.1367L6.67683 26.1939H6.67683L7.01 27.1367ZM8.22144 27.2525L8.70632 26.3779L8.70632 26.3779L8.22144 27.2525ZM27.9927 7.49927C27.7161 7.02121 27.1044 6.85785 26.6263 7.13439C26.1483 7.41094 25.9849 8.02266 26.2614 8.50073L27.9927 7.49927ZM22.8007 4.59949C23.2422 4.93124 23.8691 4.84222 24.2009 4.40067C24.5326 3.95913 24.4436 3.33225 24.002 3.00051L22.8007 4.59949ZM2 15C2 7.8203 7.8203 2 15 2V0C6.71573 0 0 6.71573 0 15H2ZM3.43078 20.9355C2.5165 19.1572 2 17.1404 2 15H0C0 17.4659 0.595777 19.7955 1.65211 21.85L3.43078 20.9355ZM2.27749 26.5741L3.57709 22.8962L1.69135 22.2299L0.391755 25.9077L2.27749 26.5741ZM3.1452 27.4418C2.60622 27.6322 2.08704 27.1131 2.27749 26.5741L0.391755 25.9077C-0.358848 28.0319 1.68733 30.0781 3.81153 29.3275L3.1452 27.4418ZM6.67683 26.1939L3.14519 27.4418L3.81153 29.3275L7.34317 28.0796L6.67683 26.1939ZM15 28C12.7148 28 10.5701 27.4112 8.70632 26.3779L7.73655 28.127C9.88953 29.3207 12.3669 30 15 30V28ZM28 15C28 22.1797 22.1797 28 15 28V30C23.2843 30 30 23.2843 30 15H28ZM26.2614 8.50073C27.367 10.4118 28 12.6305 28 15H30C30 12.2695 29.2695 9.70659 27.9927 7.49927L26.2614 8.50073ZM15 2C17.9283 2 20.6278 2.967 22.8007 4.59949L24.002 3.00051C21.4947 1.11671 18.3763 0 15 0V2ZM7.34316 28.0796C7.44954 28.042 7.59301 28.0475 7.73655 28.127L8.70632 26.3779C8.10784 26.0461 7.37042 25.9488 6.67683 26.1939L7.34316 28.0796ZM1.65211 21.85C1.72415 21.9901 1.72752 22.1275 1.69135 22.2299L3.57709 22.8962C3.81272 22.2294 3.73179 21.5209 3.43078 20.9355L1.65211 21.85Z" fill="#325DE9"/>
<circle cx="8.07031" cy="15.0696" r="1.75" fill="#325DE9"/>
<circle cx="15.0703" cy="15.0696" r="1.75" fill="#325DE9"/>
<circle cx="22.0703" cy="15.0696" r="1.75" fill="#325DE9"/>
</svg>
