<svg width="40" height="30" viewBox="0 0 40 30" fill="none" xmlns="http://www.w3.org/2000/svg">
<path d="M12.7997 7.39994C12.7997 6.84766 13.2474 6.39994 13.7997 6.39994C14.352 6.39994 14.7997 6.84766 14.7997 7.39994H12.7997ZM20.1997 2C19.6474 2 19.1997 1.55228 19.1997 1C19.1997 0.447715 19.6474 0 20.1997 0V2ZM14.7997 7.39994C14.7997 10.3822 17.2174 12.7999 20.1997 12.7999V14.7999C16.1128 14.7999 12.7997 11.4868 12.7997 7.39994H14.7997ZM20.1997 12.7999C23.182 12.7999 25.5996 10.3822 25.5996 7.39994H27.5996C27.5996 11.4868 24.2865 14.7999 20.1997 14.7999V12.7999ZM25.5996 7.39994C25.5996 4.41764 23.182 2 20.1997 2V0C24.2865 0 27.5996 3.31307 27.5996 7.39994H25.5996Z" fill="white"/>
<path d="M9 23.2954C9 21.9189 9.86536 20.6909 11.1617 20.2279V20.2279C17.0064 18.1405 23.3934 18.1405 29.2381 20.2279V20.2279C30.5344 20.6909 31.3998 21.9189 31.3998 23.2954V26.6939C31.3998 27.911 30.3218 28.8459 29.117 28.6738L24.0183 27.9454C21.4855 27.5836 18.9142 27.5836 16.3815 27.9454L11.2828 28.6738C10.078 28.8459 9 27.911 9 26.6939V23.2954Z" stroke="white" stroke-width="2"/>
<path d="M29.8006 13.977C32.5778 13.977 34.8291 11.7256 34.8291 8.94845C34.8291 6.17127 32.5778 3.91992 29.8006 3.91992" stroke="white" stroke-width="2" stroke-linecap="round"/>
<path d="M35.3081 25.4491L35.8008 25.5195C37.2786 25.7306 38.6007 24.5839 38.6007 23.0911V21.4374C38.6007 20.3558 37.9208 19.391 36.9022 19.0272C35.8862 18.6643 34.8493 18.3817 33.8008 18.1794" stroke="white" stroke-width="2" stroke-linecap="round"/>
<path d="M9.80099 13.9772C7.02381 13.9772 4.77246 11.7259 4.77246 8.94869C4.77246 6.17151 7.02381 3.92017 9.80099 3.92017" stroke="white" stroke-width="2" stroke-linecap="round"/>
<path d="M4.29342 25.4493L3.80072 25.5197C2.32296 25.7308 1.00082 24.5842 1.00082 23.0914V21.4376C1.00082 20.356 1.68075 19.3912 2.69932 19.0274C3.71536 18.6646 4.75226 18.382 5.80078 18.1797" stroke="white" stroke-width="2" stroke-linecap="round"/>
</svg>
