<svg width="27" height="30" viewBox="0 0 27 30" fill="none" xmlns="http://www.w3.org/2000/svg">
<path d="M1 19.039H0H1ZM4.82604 23.5166L4.96339 22.526H4.96339L4.82604 23.5166ZM19.0868 23.5166L18.9494 22.526L19.0868 23.5166ZM22.2598 16.662L23.1186 16.1498L22.2598 16.662ZM1.65305 16.662L0.794177 16.1498L1.65305 16.662ZM6.72481 1.56487C6.26359 1.86868 6.13598 2.48885 6.43978 2.95007C6.74358 3.41129 7.36376 3.5389 7.82497 3.2351L6.72481 1.56487ZM5.01294 6.62393C5.22588 6.11435 4.98541 5.52863 4.47583 5.31569C3.96625 5.10274 3.38052 5.34321 3.16758 5.8528L5.01294 6.62393ZM4.43477 12.4512V9.52165H2.43477V12.4512H4.43477ZM2 19.039C2 18.3557 2.18695 17.7191 2.51191 17.1742L0.794177 16.1498C0.289612 16.9958 5.96046e-08 17.9851 0 19.039H2ZM4.96339 22.526C3.25805 22.2896 2 20.8073 2 19.039H0C-1.19209e-07 21.7587 1.94848 24.1271 4.68869 24.5071L4.96339 22.526ZM11.9564 23.1305C9.86403 23.1305 7.1626 22.831 4.96339 22.526L4.68869 24.5071C6.90414 24.8143 9.71905 25.1305 11.9564 25.1305V23.1305ZM18.9494 22.526C16.7502 22.831 14.0488 23.1305 11.9564 23.1305V25.1305C14.1938 25.1305 17.0087 24.8143 19.2241 24.5071L18.9494 22.526ZM21.9128 19.039C21.9128 20.8073 20.6548 22.2896 18.9494 22.526L19.2241 24.5071C21.9643 24.1271 23.9128 21.7587 23.9128 19.039H21.9128ZM21.4009 17.1742C21.7259 17.7191 21.9128 18.3557 21.9128 19.039H23.9128C23.9128 17.9851 23.6232 16.9958 23.1186 16.1498L21.4009 17.1742ZM19.4781 9.52165V12.4512H21.4781V9.52165H19.4781ZM11.9564 2C16.1105 2 19.4781 5.36756 19.4781 9.52165H21.4781C21.4781 4.26299 17.2151 0 11.9564 0V2ZM23.1186 16.1498C22.688 15.4277 22.2927 14.8425 21.9678 14.1915C21.6559 13.5667 21.4781 13.0045 21.4781 12.4512H19.4781C19.4781 13.4383 19.7966 14.32 20.1783 15.0847C20.5469 15.8232 21.0425 16.5732 21.4009 17.1742L23.1186 16.1498ZM2.43477 12.4512C2.43477 13.0045 2.25692 13.5667 1.94506 14.1915C1.62009 14.8425 1.22482 15.4276 0.794177 16.1498L2.51191 17.1742C2.87029 16.5732 3.36588 15.8232 3.73451 15.0847C4.11626 14.3199 4.43477 13.4383 4.43477 12.4512H2.43477ZM7.82497 3.2351C9.01024 2.45437 10.4287 2 11.9564 2V0C10.0258 0 8.22663 0.575634 6.72481 1.56487L7.82497 3.2351ZM4.43477 9.52165C4.43477 8.49272 4.64081 7.51446 5.01294 6.62393L3.16758 5.8528C2.69519 6.98325 2.43477 8.22331 2.43477 9.52165H4.43477Z" fill="#325DE9"/>
<path d="M15 27.3672C14.3457 28.3512 13.2269 28.9998 11.9566 28.9998C10.6862 28.9998 9.56741 28.3512 8.91312 27.3672" stroke="#325DE9" stroke-width="2" stroke-linecap="round"/>
<circle cx="24.3331" cy="3.12121" r="2.12121" fill="#325DE9"/>
</svg>
