<svg width="30" height="30" viewBox="0 0 30 30" fill="none" xmlns="http://www.w3.org/2000/svg">
<path d="M22.8007 4.59949C23.2422 4.93124 23.8691 4.84222 24.2009 4.40067C24.5326 3.95913 24.4436 3.33225 24.002 3.00051L22.8007 4.59949ZM28.7514 8.99963C28.5303 8.49354 27.9408 8.26253 27.4347 8.48365C26.9286 8.70477 26.6976 9.29428 26.9187 9.80037L28.7514 8.99963ZM15 1.66948e-07C6.71573 2.65737e-07 6.81594e-08 6.71573 1.66948e-07 15L2 15C2 7.8203 7.8203 2 15 2L15 1.66948e-07ZM15 30C23.2843 30 30 23.2843 30 15L28 15C28 22.1797 22.1797 28 15 28L15 30ZM15 28C7.8203 28 2 22.1797 2 15L1.66948e-07 15C2.65737e-07 23.2843 6.71573 30 15 30L15 28ZM24.002 3.00051C21.4947 1.11671 18.3763 1.26686e-07 15 1.66948e-07L15 2C17.9283 2 20.6278 2.967 22.8007 4.59949L24.002 3.00051ZM30 15C30 12.8685 29.5548 10.8384 28.7514 8.99963L26.9187 9.80037C27.6139 11.3914 28 13.1493 28 15L30 15Z" fill="white" fill-opacity="0.6"/>
<path d="M16.3549 10.9355L11.8574 14.6835C11.3777 15.0832 11.3777 15.8201 11.8574 16.2199L16.3549 19.9678" stroke="white" stroke-opacity="0.6" stroke-width="2" stroke-linecap="round"/>
</svg>
