<svg width="30" height="30" viewBox="0 0 30 30" fill="none" xmlns="http://www.w3.org/2000/svg">
<path d="M15 1V2V1ZM4.59949 7.19931C4.93124 6.75776 4.84222 6.13089 4.40067 5.79914C3.95913 5.4674 3.33225 5.55641 3.00051 5.99796L4.59949 7.19931ZM8.99963 1.24857C8.49354 1.46969 8.26253 2.05921 8.48365 2.56529C8.70477 3.07138 9.29428 3.30239 9.80037 3.08128L8.99963 1.24857ZM0 15C-1.19209e-07 23.2843 6.71573 30 15 30V28C7.8203 28 2 22.1797 2 15H0ZM30 15C30 6.71573 23.2843 1.19209e-07 15 0V2C22.1797 2 28 7.8203 28 15H30ZM28 15C28 22.1797 22.1797 28 15 28V30C23.2843 30 30 23.2843 30 15H28ZM3.00051 5.99796C1.11671 8.50529 5.96046e-08 11.6237 0 15H2C2 12.0717 2.967 9.37215 4.59949 7.19931L3.00051 5.99796ZM15 0C12.8685 0 10.8384 0.445174 8.99963 1.24857L9.80037 3.08128C11.3914 2.38613 13.1493 2 15 2V0Z" fill="#325DE9"/>
<path d="M10.9355 13.6451L14.6835 18.1426C15.0832 18.6223 15.8201 18.6223 16.2199 18.1426L19.9678 13.6451" stroke="#325DE9" stroke-width="2" stroke-linecap="round"/>
</svg>
