<svg width="225" height="163" viewBox="0 0 225 163" fill="none" xmlns="http://www.w3.org/2000/svg">
<path fill-rule="evenodd" clip-rule="evenodd" d="M96.6118 2.40809C96.6118 4.55183 93.3662 4.55183 93.3662 2.40809C93.3662 0.264359 96.6118 0.264359 96.6118 2.40809Z" fill="white"/>
<path fill-rule="evenodd" clip-rule="evenodd" d="M90.7627 8.23757C90.7627 10.3813 87.5171 10.3813 87.5171 8.23757C87.5548 6.05623 90.7627 6.05623 90.7627 8.23757Z" fill="white"/>
<path fill-rule="evenodd" clip-rule="evenodd" d="M96.6118 8.23757C96.6118 10.3813 93.3662 10.3813 93.3662 8.23757C93.3662 6.05623 96.6118 6.05623 96.6118 8.23757Z" fill="white"/>
<path fill-rule="evenodd" clip-rule="evenodd" d="M102.461 8.23757C102.461 10.3813 99.2158 10.3813 99.2158 8.23757C99.2158 6.05623 102.461 6.05623 102.461 8.23757Z" fill="white"/>
<path fill-rule="evenodd" clip-rule="evenodd" d="M96.6118 14.0292C96.6118 16.1729 93.3662 16.1729 93.3662 14.0292C93.3662 11.8855 96.6118 11.8855 96.6118 14.0292Z" fill="white"/>
<path fill-rule="evenodd" clip-rule="evenodd" d="M102.461 14.0292C102.461 16.1729 99.2158 16.1729 99.2158 14.0292C99.2158 11.8855 102.461 11.8855 102.461 14.0292Z" fill="white"/>
<path fill-rule="evenodd" clip-rule="evenodd" d="M108.273 19.8588C108.273 22.0025 105.028 22.0025 105.028 19.8588C105.028 17.715 108.273 17.715 108.273 19.8588Z" fill="white"/>
<path fill-rule="evenodd" clip-rule="evenodd" d="M108.273 25.6881C108.273 27.8318 105.028 27.8318 105.028 25.6881C105.028 23.5444 108.273 23.5068 108.273 25.6881Z" fill="white"/>
<path fill-rule="evenodd" clip-rule="evenodd" d="M55.7783 31.4799C55.7783 33.6236 52.5327 33.6236 52.5327 31.4799C52.5327 29.3361 55.7783 29.3361 55.7783 31.4799Z" fill="white"/>
<path fill-rule="evenodd" clip-rule="evenodd" d="M108.273 31.4799C108.273 33.6236 105.028 33.6236 105.028 31.4799C105.028 29.3361 108.273 29.3361 108.273 31.4799Z" fill="white"/>
<path fill-rule="evenodd" clip-rule="evenodd" d="M114.123 31.4799C114.123 33.6236 110.877 33.6236 110.877 31.4799C110.877 29.3361 114.123 29.3361 114.123 31.4799Z" fill="white"/>
<path fill-rule="evenodd" clip-rule="evenodd" d="M119.972 31.4799C119.972 33.6236 116.727 33.6236 116.727 31.4799C116.727 29.3361 119.972 29.3361 119.972 31.4799Z" fill="white"/>
<path fill-rule="evenodd" clip-rule="evenodd" d="M44.0791 37.3095C44.0791 39.4532 40.8335 39.4532 40.8335 37.3095C40.8712 35.1657 44.0791 35.1657 44.0791 37.3095Z" fill="white"/>
<path fill-rule="evenodd" clip-rule="evenodd" d="M49.9292 37.3095C49.9292 39.4532 46.6836 39.4532 46.6836 37.3095C46.6836 35.1657 49.9292 35.1657 49.9292 37.3095Z" fill="white"/>
<path fill-rule="evenodd" clip-rule="evenodd" d="M90.7627 37.3095C90.7627 39.4532 87.5171 39.4532 87.5171 37.3095C87.5548 35.1657 90.7627 35.1657 90.7627 37.3095Z" fill="white"/>
<path fill-rule="evenodd" clip-rule="evenodd" d="M96.6118 37.3095C96.6118 39.4532 93.3662 39.4532 93.3662 37.3095C93.3662 35.1657 96.6118 35.1657 96.6118 37.3095Z" fill="white"/>
<path fill-rule="evenodd" clip-rule="evenodd" d="M102.461 37.3095C102.461 39.4532 99.2158 39.4532 99.2158 37.3095C99.2158 35.1657 102.461 35.1657 102.461 37.3095Z" fill="white"/>
<path fill-rule="evenodd" clip-rule="evenodd" d="M108.273 37.3095C108.273 39.4532 105.028 39.4532 105.028 37.3095C105.066 35.1657 108.273 35.1657 108.273 37.3095Z" fill="white"/>
<path fill-rule="evenodd" clip-rule="evenodd" d="M114.123 37.3095C114.123 39.4532 110.877 39.4532 110.877 37.3095C110.877 35.1657 114.123 35.1657 114.123 37.3095Z" fill="white"/>
<path fill-rule="evenodd" clip-rule="evenodd" d="M119.972 37.3095C119.972 39.4532 116.727 39.4532 116.727 37.3095C116.727 35.1657 119.972 35.1657 119.972 37.3095Z" fill="white"/>
<path fill-rule="evenodd" clip-rule="evenodd" d="M154.956 37.3095C154.956 39.4532 151.71 39.4532 151.71 37.3095C151.748 35.1657 154.956 35.1657 154.956 37.3095Z" fill="white"/>
<path fill-rule="evenodd" clip-rule="evenodd" d="M160.806 37.3095C160.806 39.4532 157.561 39.4532 157.561 37.3095C157.561 35.1657 160.806 35.1657 160.806 37.3095Z" fill="white"/>
<path fill-rule="evenodd" clip-rule="evenodd" d="M44.0791 43.1012C44.0791 45.2449 40.8335 45.2449 40.8335 43.1012C40.8712 40.9575 44.0791 40.9575 44.0791 43.1012Z" fill="white"/>
<path fill-rule="evenodd" clip-rule="evenodd" d="M84.9501 43.1012C84.9501 45.2449 81.7046 45.2449 81.7046 43.1012C81.7046 40.9575 84.9501 40.9575 84.9501 43.1012Z" fill="white"/>
<path fill-rule="evenodd" clip-rule="evenodd" d="M90.7627 43.1012C90.7627 45.2449 87.5171 45.2449 87.5171 43.1012C87.5548 40.9575 90.7627 40.9575 90.7627 43.1012Z" fill="white"/>
<path fill-rule="evenodd" clip-rule="evenodd" d="M96.6118 43.1012C96.6118 45.2449 93.3662 45.2449 93.3662 43.1012C93.3662 40.9575 96.6118 40.9575 96.6118 43.1012Z" fill="white"/>
<path fill-rule="evenodd" clip-rule="evenodd" d="M102.461 43.1012C102.461 45.2449 99.2158 45.2449 99.2158 43.1012C99.2158 40.9575 102.461 40.9575 102.461 43.1012Z" fill="white"/>
<path fill-rule="evenodd" clip-rule="evenodd" d="M108.273 43.1012C108.273 45.2449 105.028 45.2449 105.028 43.1012C105.066 40.9575 108.273 40.9575 108.273 43.1012Z" fill="white"/>
<path fill-rule="evenodd" clip-rule="evenodd" d="M114.123 43.1012C114.123 45.2449 110.877 45.2449 110.877 43.1012C110.877 40.9575 114.123 40.9575 114.123 43.1012Z" fill="white"/>
<path fill-rule="evenodd" clip-rule="evenodd" d="M119.972 43.1012C119.972 45.2449 116.727 45.2449 116.727 43.1012C116.727 40.9575 119.972 40.9575 119.972 43.1012Z" fill="white"/>
<path fill-rule="evenodd" clip-rule="evenodd" d="M61.5898 48.931C61.5898 51.0748 58.3442 51.0748 58.3442 48.931C58.3442 46.7873 61.5898 46.7873 61.5898 48.931Z" fill="white"/>
<path fill-rule="evenodd" clip-rule="evenodd" d="M79.101 48.931C79.101 51.0748 75.8555 51.0748 75.8555 48.931C75.8555 46.7873 79.101 46.7873 79.101 48.931Z" fill="white"/>
<path fill-rule="evenodd" clip-rule="evenodd" d="M84.9501 48.931C84.9501 51.0748 81.7046 51.0748 81.7046 48.931C81.7046 46.7873 84.9501 46.7873 84.9501 48.931Z" fill="white"/>
<path fill-rule="evenodd" clip-rule="evenodd" d="M90.7627 48.931C90.7627 51.0748 87.5171 51.0748 87.5171 48.931C87.5548 46.7873 90.7627 46.7873 90.7627 48.931Z" fill="white"/>
<path fill-rule="evenodd" clip-rule="evenodd" d="M96.6118 48.931C96.6118 51.0748 93.3662 51.0748 93.3662 48.931C93.3662 46.7873 96.6118 46.7873 96.6118 48.931Z" fill="white"/>
<path fill-rule="evenodd" clip-rule="evenodd" d="M102.461 48.931C102.461 51.0748 99.2158 51.0748 99.2158 48.931C99.2158 46.7873 102.461 46.7873 102.461 48.931Z" fill="white"/>
<path fill-rule="evenodd" clip-rule="evenodd" d="M108.273 48.931C108.273 51.0748 105.028 51.0748 105.028 48.931C105.066 46.7873 108.273 46.7873 108.273 48.931Z" fill="white"/>
<path fill-rule="evenodd" clip-rule="evenodd" d="M119.972 48.931C119.972 51.0748 116.727 51.0748 116.727 48.931C116.727 46.7873 119.972 46.7873 119.972 48.931Z" fill="white"/>
<path fill-rule="evenodd" clip-rule="evenodd" d="M125.784 48.931C125.784 51.0748 122.539 51.0748 122.539 48.931C122.539 46.7873 125.784 46.7873 125.784 48.931Z" fill="white"/>
<path fill-rule="evenodd" clip-rule="evenodd" d="M137.483 48.931C137.483 51.0748 134.238 51.0748 134.238 48.931C134.238 46.7873 137.483 46.7873 137.483 48.931Z" fill="white"/>
<path fill-rule="evenodd" clip-rule="evenodd" d="M160.806 48.931C160.806 51.0748 157.561 51.0748 157.561 48.931C157.561 46.7873 160.806 46.7873 160.806 48.931Z" fill="white"/>
<path fill-rule="evenodd" clip-rule="evenodd" d="M38.2675 54.7603C38.2675 56.904 35.022 56.904 35.022 54.7603C35.022 52.5789 38.2675 52.5789 38.2675 54.7603Z" fill="white"/>
<path fill-rule="evenodd" clip-rule="evenodd" d="M61.5898 54.7603C61.5898 56.904 58.3442 56.904 58.3442 54.7603C58.3442 52.5789 61.5898 52.5789 61.5898 54.7603Z" fill="white"/>
<path fill-rule="evenodd" clip-rule="evenodd" d="M73.2895 54.7603C73.2895 56.904 70.0439 56.904 70.0439 54.7603C70.0439 52.5789 73.2895 52.5789 73.2895 54.7603Z" fill="white"/>
<path fill-rule="evenodd" clip-rule="evenodd" d="M79.101 54.7603C79.101 56.904 75.8555 56.904 75.8555 54.7603C75.8555 52.5789 79.101 52.5789 79.101 54.7603Z" fill="white"/>
<path fill-rule="evenodd" clip-rule="evenodd" d="M84.9501 54.7603C84.9501 56.904 81.7046 56.904 81.7046 54.7603C81.7046 52.5789 84.9501 52.5789 84.9501 54.7603Z" fill="white"/>
<path fill-rule="evenodd" clip-rule="evenodd" d="M90.7627 54.7603C90.7627 56.904 87.5171 56.904 87.5171 54.7603C87.5548 52.5789 90.7627 52.5789 90.7627 54.7603Z" fill="white"/>
<path fill-rule="evenodd" clip-rule="evenodd" d="M96.6118 54.7603C96.6118 56.904 93.3662 56.904 93.3662 54.7603C93.3662 52.5789 96.6118 52.5789 96.6118 54.7603Z" fill="white"/>
<path fill-rule="evenodd" clip-rule="evenodd" d="M102.461 54.7603C102.461 56.904 99.2158 56.904 99.2158 54.7603C99.2158 52.5789 102.461 52.5789 102.461 54.7603Z" fill="white"/>
<path fill-rule="evenodd" clip-rule="evenodd" d="M108.273 54.7603C108.273 56.904 105.028 56.904 105.028 54.7603C105.066 52.5789 108.273 52.5789 108.273 54.7603Z" fill="white"/>
<path fill-rule="evenodd" clip-rule="evenodd" d="M114.123 54.7603C114.123 56.904 110.877 56.904 110.877 54.7603C110.877 52.5789 114.123 52.5789 114.123 54.7603Z" fill="white"/>
<path fill-rule="evenodd" clip-rule="evenodd" d="M119.972 54.7603C119.972 56.904 116.727 56.904 116.727 54.7603C116.727 52.5789 119.972 52.5789 119.972 54.7603Z" fill="white"/>
<path fill-rule="evenodd" clip-rule="evenodd" d="M125.784 54.7603C125.784 56.904 122.539 56.904 122.539 54.7603C122.539 52.5789 125.784 52.5789 125.784 54.7603Z" fill="white"/>
<path fill-rule="evenodd" clip-rule="evenodd" d="M131.634 54.7603C131.634 56.904 128.388 56.904 128.388 54.7603C128.388 52.5789 131.634 52.5789 131.634 54.7603Z" fill="white"/>
<path fill-rule="evenodd" clip-rule="evenodd" d="M137.483 54.7603C137.483 56.904 134.238 56.904 134.238 54.7603C134.238 52.5789 137.483 52.5789 137.483 54.7603Z" fill="white"/>
<path fill-rule="evenodd" clip-rule="evenodd" d="M143.295 54.7603C143.295 56.904 140.05 56.904 140.05 54.7603C140.05 52.5789 143.295 52.5789 143.295 54.7603Z" fill="white"/>
<path fill-rule="evenodd" clip-rule="evenodd" d="M160.806 54.7603C160.806 56.904 157.561 56.904 157.561 54.7603C157.561 52.5789 160.806 52.5789 160.806 54.7603Z" fill="white"/>
<path fill-rule="evenodd" clip-rule="evenodd" d="M166.656 54.7603C166.656 56.904 163.41 56.904 163.41 54.7603C163.41 52.5789 166.656 52.5789 166.656 54.7603Z" fill="white"/>
<path fill-rule="evenodd" clip-rule="evenodd" d="M38.2675 60.5519C38.2675 62.6956 35.022 62.6956 35.022 60.5519C35.022 58.4082 38.2675 58.4082 38.2675 60.5519Z" fill="white"/>
<path fill-rule="evenodd" clip-rule="evenodd" d="M61.5898 60.5519C61.5898 62.6956 58.3442 62.6956 58.3442 60.5519C58.3442 58.4082 61.5898 58.4082 61.5898 60.5519Z" fill="white"/>
<path fill-rule="evenodd" clip-rule="evenodd" d="M67.4394 60.5519C67.4394 62.6956 64.1938 62.6956 64.1938 60.5519C64.1938 58.4082 67.4394 58.4082 67.4394 60.5519Z" fill="white"/>
<path fill-rule="evenodd" clip-rule="evenodd" d="M73.2895 60.5519C73.2895 62.6956 70.0439 62.6956 70.0439 60.5519C70.0439 58.4082 73.2895 58.4082 73.2895 60.5519Z" fill="white"/>
<path fill-rule="evenodd" clip-rule="evenodd" d="M84.9501 60.5519C84.9501 62.6956 81.7046 62.6956 81.7046 60.5519C81.7046 58.4082 84.9501 58.4082 84.9501 60.5519Z" fill="white"/>
<path fill-rule="evenodd" clip-rule="evenodd" d="M90.7627 60.5519C90.7627 62.6956 87.5171 62.6956 87.5171 60.5519C87.5548 58.4082 90.7627 58.4082 90.7627 60.5519Z" fill="white"/>
<path fill-rule="evenodd" clip-rule="evenodd" d="M96.6118 60.5519C96.6118 62.6956 93.3662 62.6956 93.3662 60.5519C93.3662 58.4082 96.6118 58.4082 96.6118 60.5519Z" fill="white"/>
<path fill-rule="evenodd" clip-rule="evenodd" d="M102.461 60.5519C102.461 62.6956 99.2158 62.6956 99.2158 60.5519C99.2158 58.4082 102.461 58.4082 102.461 60.5519Z" fill="white"/>
<path fill-rule="evenodd" clip-rule="evenodd" d="M108.273 60.5519C108.273 62.6956 105.028 62.6956 105.028 60.5519C105.066 58.4082 108.273 58.4082 108.273 60.5519Z" fill="white"/>
<path fill-rule="evenodd" clip-rule="evenodd" d="M114.123 60.5519C114.123 62.6956 110.877 62.6956 110.877 60.5519C110.877 58.4082 114.123 58.4082 114.123 60.5519Z" fill="white"/>
<path fill-rule="evenodd" clip-rule="evenodd" d="M119.972 60.5519C119.972 62.6956 116.727 62.6956 116.727 60.5519C116.727 58.4082 119.972 58.4082 119.972 60.5519Z" fill="white"/>
<path fill-rule="evenodd" clip-rule="evenodd" d="M125.784 60.5519C125.784 62.6956 122.539 62.6956 122.539 60.5519C122.539 58.4082 125.784 58.4082 125.784 60.5519Z" fill="white"/>
<path fill-rule="evenodd" clip-rule="evenodd" d="M131.634 60.5519C131.634 62.6956 128.388 62.6956 128.388 60.5519C128.388 58.4082 131.634 58.4082 131.634 60.5519Z" fill="white"/>
<path fill-rule="evenodd" clip-rule="evenodd" d="M137.483 60.5519C137.483 62.6956 134.238 62.6956 134.238 60.5519C134.238 58.4082 137.483 58.4082 137.483 60.5519Z" fill="white"/>
<path fill-rule="evenodd" clip-rule="evenodd" d="M143.295 60.5519C143.295 62.6956 140.05 62.6956 140.05 60.5519C140.05 58.4082 143.295 58.4082 143.295 60.5519Z" fill="white"/>
<path fill-rule="evenodd" clip-rule="evenodd" d="M149.144 60.5519C149.144 62.6956 145.899 62.6956 145.899 60.5519C145.899 58.4082 149.144 58.4082 149.144 60.5519Z" fill="white"/>
<path fill-rule="evenodd" clip-rule="evenodd" d="M154.956 60.5519C154.956 62.6956 151.71 62.6956 151.71 60.5519C151.748 58.4082 154.956 58.4082 154.956 60.5519Z" fill="white"/>
<path fill-rule="evenodd" clip-rule="evenodd" d="M160.806 60.5519C160.806 62.6956 157.561 62.6956 157.561 60.5519C157.561 58.4082 160.806 58.4082 160.806 60.5519Z" fill="white"/>
<path fill-rule="evenodd" clip-rule="evenodd" d="M166.656 60.5519C166.656 62.6956 163.41 62.6956 163.41 60.5519C163.41 58.4082 166.656 58.4082 166.656 60.5519Z" fill="white"/>
<path fill-rule="evenodd" clip-rule="evenodd" d="M172.467 60.5519C172.467 62.6956 169.222 62.6956 169.222 60.5519C169.259 58.4082 172.467 58.4082 172.467 60.5519Z" fill="white"/>
<path fill-rule="evenodd" clip-rule="evenodd" d="M184.166 60.5519C184.166 62.6956 180.921 62.6956 180.921 60.5519C180.921 58.4082 184.166 58.4082 184.166 60.5519Z" fill="white"/>
<path fill-rule="evenodd" clip-rule="evenodd" d="M213.338 60.5519C213.338 62.6956 210.093 62.6956 210.093 60.5519C210.093 58.4082 213.338 58.4082 213.338 60.5519Z" fill="white"/>
<path fill-rule="evenodd" clip-rule="evenodd" d="M9.05757 66.3817C9.05757 68.5255 5.81201 68.5255 5.81201 66.3817C5.81201 64.238 9.05757 64.238 9.05757 66.3817Z" fill="white"/>
<path fill-rule="evenodd" clip-rule="evenodd" d="M49.9292 66.3817C49.9292 68.5255 46.6836 68.5255 46.6836 66.3817C46.6836 64.238 49.9292 64.238 49.9292 66.3817Z" fill="white"/>
<path fill-rule="evenodd" clip-rule="evenodd" d="M61.5898 66.3817C61.5898 68.5255 58.3442 68.5255 58.3442 66.3817C58.3442 64.238 61.5898 64.238 61.5898 66.3817Z" fill="white"/>
<path fill-rule="evenodd" clip-rule="evenodd" d="M67.4394 66.3817C67.4394 68.5255 64.1938 68.5255 64.1938 66.3817C64.1938 64.238 67.4394 64.238 67.4394 66.3817Z" fill="white"/>
<path fill-rule="evenodd" clip-rule="evenodd" d="M73.2895 66.3817C73.2895 68.5255 70.0439 68.5255 70.0439 66.3817C70.0439 64.238 73.2895 64.238 73.2895 66.3817Z" fill="white"/>
<path fill-rule="evenodd" clip-rule="evenodd" d="M79.101 66.3817C79.101 68.5255 75.8555 68.5255 75.8555 66.3817C75.8555 64.238 79.101 64.238 79.101 66.3817Z" fill="white"/>
<path fill-rule="evenodd" clip-rule="evenodd" d="M84.9501 66.3817C84.9501 68.5255 81.7046 68.5255 81.7046 66.3817C81.7046 64.238 84.9501 64.238 84.9501 66.3817Z" fill="white"/>
<path fill-rule="evenodd" clip-rule="evenodd" d="M90.7627 66.3817C90.7627 68.5255 87.5171 68.5255 87.5171 66.3817C87.5171 64.238 90.7627 64.238 90.7627 66.3817Z" fill="white"/>
<path fill-rule="evenodd" clip-rule="evenodd" d="M96.6118 66.3817C96.6118 68.5255 93.3662 68.5255 93.3662 66.3817C93.3662 64.238 96.6118 64.238 96.6118 66.3817Z" fill="white"/>
<path fill-rule="evenodd" clip-rule="evenodd" d="M102.461 66.3817C102.461 68.5255 99.2158 68.5255 99.2158 66.3817C99.2158 64.238 102.461 64.238 102.461 66.3817Z" fill="white"/>
<path fill-rule="evenodd" clip-rule="evenodd" d="M108.273 66.3817C108.273 68.5255 105.028 68.5255 105.028 66.3817C105.028 64.238 108.273 64.238 108.273 66.3817Z" fill="white"/>
<path fill-rule="evenodd" clip-rule="evenodd" d="M114.123 66.3817C114.123 68.5255 110.877 68.5255 110.877 66.3817C110.877 64.238 114.123 64.238 114.123 66.3817Z" fill="white"/>
<path fill-rule="evenodd" clip-rule="evenodd" d="M119.972 66.3817C119.972 68.5255 116.727 68.5255 116.727 66.3817C116.727 64.238 119.972 64.238 119.972 66.3817Z" fill="white"/>
<path fill-rule="evenodd" clip-rule="evenodd" d="M125.784 66.3817C125.784 68.5255 122.539 68.5255 122.539 66.3817C122.539 64.238 125.784 64.238 125.784 66.3817Z" fill="white"/>
<path fill-rule="evenodd" clip-rule="evenodd" d="M131.634 66.3817C131.634 68.5255 128.388 68.5255 128.388 66.3817C128.388 64.238 131.634 64.238 131.634 66.3817Z" fill="white"/>
<path fill-rule="evenodd" clip-rule="evenodd" d="M137.483 66.3817C137.483 68.5255 134.238 68.5255 134.238 66.3817C134.238 64.238 137.483 64.238 137.483 66.3817Z" fill="white"/>
<path fill-rule="evenodd" clip-rule="evenodd" d="M143.295 66.3817C143.295 68.5255 140.05 68.5255 140.05 66.3817C140.05 64.238 143.295 64.238 143.295 66.3817Z" fill="white"/>
<path fill-rule="evenodd" clip-rule="evenodd" d="M149.144 66.3817C149.144 68.5255 145.899 68.5255 145.899 66.3817C145.899 64.238 149.144 64.238 149.144 66.3817Z" fill="white"/>
<path fill-rule="evenodd" clip-rule="evenodd" d="M154.956 66.3817C154.956 68.5255 151.71 68.5255 151.71 66.3817C151.71 64.238 154.956 64.238 154.956 66.3817Z" fill="white"/>
<path fill-rule="evenodd" clip-rule="evenodd" d="M160.806 66.3817C160.806 68.5255 157.561 68.5255 157.561 66.3817C157.561 64.238 160.806 64.238 160.806 66.3817Z" fill="white"/>
<path fill-rule="evenodd" clip-rule="evenodd" d="M166.656 66.3817C166.656 68.5255 163.41 68.5255 163.41 66.3817C163.41 64.238 166.656 64.238 166.656 66.3817Z" fill="white"/>
<path fill-rule="evenodd" clip-rule="evenodd" d="M172.467 66.3817C172.467 68.5255 169.222 68.5255 169.222 66.3817C169.222 64.238 172.467 64.238 172.467 66.3817Z" fill="white"/>
<path fill-rule="evenodd" clip-rule="evenodd" d="M178.316 66.3817C178.316 68.5255 175.071 68.5255 175.071 66.3817C175.071 64.238 178.316 64.238 178.316 66.3817Z" fill="white"/>
<path fill-rule="evenodd" clip-rule="evenodd" d="M184.166 66.3817C184.166 68.5255 180.921 68.5255 180.921 66.3817C180.921 64.238 184.166 64.238 184.166 66.3817Z" fill="white"/>
<path fill-rule="evenodd" clip-rule="evenodd" d="M189.978 66.3817C189.978 68.5255 186.732 68.5255 186.732 66.3817C186.732 64.238 189.978 64.238 189.978 66.3817Z" fill="white"/>
<path fill-rule="evenodd" clip-rule="evenodd" d="M195.828 66.3817C195.828 68.5255 192.582 68.5255 192.582 66.3817C192.582 64.238 195.828 64.238 195.828 66.3817Z" fill="white"/>
<path fill-rule="evenodd" clip-rule="evenodd" d="M201.678 66.3817C201.678 68.5255 198.432 68.5255 198.432 66.3817C198.432 64.238 201.678 64.238 201.678 66.3817Z" fill="white"/>
<path fill-rule="evenodd" clip-rule="evenodd" d="M207.489 66.3817C207.489 68.5255 204.244 68.5255 204.244 66.3817C204.244 64.238 207.489 64.238 207.489 66.3817Z" fill="white"/>
<path fill-rule="evenodd" clip-rule="evenodd" d="M9.05757 72.2112C9.05757 74.3549 5.81201 74.3549 5.81201 72.2112C5.84975 70.0299 9.05757 70.0299 9.05757 72.2112Z" fill="white"/>
<path fill-rule="evenodd" clip-rule="evenodd" d="M14.9072 72.2112C14.9072 74.3549 11.6616 74.3549 11.6616 72.2112C11.6616 70.0299 14.9072 70.0299 14.9072 72.2112Z" fill="white"/>
<path fill-rule="evenodd" clip-rule="evenodd" d="M26.5678 72.2112C26.5678 74.3549 23.3223 74.3549 23.3223 72.2112C23.36 70.0299 26.5678 70.0299 26.5678 72.2112Z" fill="white"/>
<path fill-rule="evenodd" clip-rule="evenodd" d="M32.4179 72.2112C32.4179 74.3549 29.1724 74.3549 29.1724 72.2112C29.1724 70.0299 32.4179 70.0299 32.4179 72.2112Z" fill="white"/>
<path fill-rule="evenodd" clip-rule="evenodd" d="M38.2675 72.2112C38.2675 74.3549 35.022 74.3549 35.022 72.2112C35.022 70.0299 38.2675 70.0299 38.2675 72.2112Z" fill="white"/>
<path fill-rule="evenodd" clip-rule="evenodd" d="M44.0791 72.2112C44.0791 74.3549 40.8335 74.3549 40.8335 72.2112C40.8712 70.0299 44.0791 70.0299 44.0791 72.2112Z" fill="white"/>
<path fill-rule="evenodd" clip-rule="evenodd" d="M49.9292 72.2112C49.9292 74.3549 46.6836 74.3549 46.6836 72.2112C46.6836 70.0299 49.9292 70.0299 49.9292 72.2112Z" fill="white"/>
<path fill-rule="evenodd" clip-rule="evenodd" d="M55.7783 72.2112C55.7783 74.3549 52.5327 74.3549 52.5327 72.2112C52.5327 70.0299 55.7783 70.0299 55.7783 72.2112Z" fill="white"/>
<path fill-rule="evenodd" clip-rule="evenodd" d="M61.5898 72.2112C61.5898 74.3549 58.3442 74.3549 58.3442 72.2112C58.3442 70.0299 61.5898 70.0299 61.5898 72.2112Z" fill="white"/>
<path fill-rule="evenodd" clip-rule="evenodd" d="M67.4394 72.2112C67.4394 74.3549 64.1938 74.3549 64.1938 72.2112C64.1938 70.0299 67.4394 70.0299 67.4394 72.2112Z" fill="white"/>
<path fill-rule="evenodd" clip-rule="evenodd" d="M73.2895 72.2112C73.2895 74.3549 70.0439 74.3549 70.0439 72.2112C70.0439 70.0299 73.2895 70.0299 73.2895 72.2112Z" fill="white"/>
<path fill-rule="evenodd" clip-rule="evenodd" d="M79.101 72.2112C79.101 74.3549 75.8555 74.3549 75.8555 72.2112C75.8555 70.0299 79.101 70.0299 79.101 72.2112Z" fill="white"/>
<path fill-rule="evenodd" clip-rule="evenodd" d="M84.9501 72.2112C84.9501 74.3549 81.7046 74.3549 81.7046 72.2112C81.7046 70.0299 84.9501 70.0299 84.9501 72.2112Z" fill="white"/>
<path fill-rule="evenodd" clip-rule="evenodd" d="M90.7627 72.2112C90.7627 74.3549 87.5171 74.3549 87.5171 72.2112C87.5548 70.0299 90.7627 70.0299 90.7627 72.2112Z" fill="white"/>
<path fill-rule="evenodd" clip-rule="evenodd" d="M96.6118 72.2112C96.6118 74.3549 93.3662 74.3549 93.3662 72.2112C93.3662 70.0299 96.6118 70.0299 96.6118 72.2112Z" fill="white"/>
<path fill-rule="evenodd" clip-rule="evenodd" d="M102.461 72.2112C102.461 74.3549 99.2158 74.3549 99.2158 72.2112C99.2158 70.0299 102.461 70.0299 102.461 72.2112Z" fill="white"/>
<path fill-rule="evenodd" clip-rule="evenodd" d="M108.273 72.2112C108.273 74.3549 105.028 74.3549 105.028 72.2112C105.066 70.0299 108.273 70.0299 108.273 72.2112Z" fill="white"/>
<path fill-rule="evenodd" clip-rule="evenodd" d="M114.123 72.2112C114.123 74.3549 110.877 74.3549 110.877 72.2112C110.877 70.0299 114.123 70.0299 114.123 72.2112Z" fill="white"/>
<path fill-rule="evenodd" clip-rule="evenodd" d="M119.972 72.2112C119.972 74.3549 116.727 74.3549 116.727 72.2112C116.727 70.0299 119.972 70.0299 119.972 72.2112Z" fill="white"/>
<path fill-rule="evenodd" clip-rule="evenodd" d="M125.784 72.2112C125.784 74.3549 122.539 74.3549 122.539 72.2112C122.539 70.0299 125.784 70.0299 125.784 72.2112Z" fill="white"/>
<path fill-rule="evenodd" clip-rule="evenodd" d="M131.634 72.2112C131.634 74.3549 128.388 74.3549 128.388 72.2112C128.388 70.0299 131.634 70.0299 131.634 72.2112Z" fill="white"/>
<path fill-rule="evenodd" clip-rule="evenodd" d="M137.483 72.2112C137.483 74.3549 134.238 74.3549 134.238 72.2112C134.238 70.0299 137.483 70.0299 137.483 72.2112Z" fill="white"/>
<path fill-rule="evenodd" clip-rule="evenodd" d="M143.295 72.2112C143.295 74.3549 140.05 74.3549 140.05 72.2112C140.05 70.0299 143.295 70.0299 143.295 72.2112Z" fill="white"/>
<path fill-rule="evenodd" clip-rule="evenodd" d="M149.144 72.2112C149.144 74.3549 145.899 74.3549 145.899 72.2112C145.899 70.0299 149.144 70.0299 149.144 72.2112Z" fill="white"/>
<path fill-rule="evenodd" clip-rule="evenodd" d="M154.956 72.2112C154.956 74.3549 151.71 74.3549 151.71 72.2112C151.748 70.0299 154.956 70.0299 154.956 72.2112Z" fill="white"/>
<path fill-rule="evenodd" clip-rule="evenodd" d="M160.806 72.2112C160.806 74.3549 157.561 74.3549 157.561 72.2112C157.561 70.0299 160.806 70.0299 160.806 72.2112Z" fill="white"/>
<path fill-rule="evenodd" clip-rule="evenodd" d="M166.656 72.2112C166.656 74.3549 163.41 74.3549 163.41 72.2112C163.41 70.0299 166.656 70.0299 166.656 72.2112Z" fill="white"/>
<path fill-rule="evenodd" clip-rule="evenodd" d="M172.467 72.2112C172.467 74.3549 169.222 74.3549 169.222 72.2112C169.259 70.0299 172.467 70.0299 172.467 72.2112Z" fill="white"/>
<path fill-rule="evenodd" clip-rule="evenodd" d="M178.316 72.2112C178.316 74.3549 175.071 74.3549 175.071 72.2112C175.071 70.0299 178.316 70.0299 178.316 72.2112Z" fill="white"/>
<path fill-rule="evenodd" clip-rule="evenodd" d="M184.166 72.2112C184.166 74.3549 180.921 74.3549 180.921 72.2112C180.921 70.0299 184.166 70.0299 184.166 72.2112Z" fill="white"/>
<path fill-rule="evenodd" clip-rule="evenodd" d="M201.678 72.2112C201.678 74.3549 198.432 74.3549 198.432 72.2112C198.432 70.0299 201.678 70.0299 201.678 72.2112Z" fill="white"/>
<path fill-rule="evenodd" clip-rule="evenodd" d="M207.489 72.2112C207.489 74.3549 204.244 74.3549 204.244 72.2112C204.244 70.0299 207.489 70.0299 207.489 72.2112Z" fill="white"/>
<path fill-rule="evenodd" clip-rule="evenodd" d="M213.338 72.2112C213.338 74.3549 210.093 74.3549 210.093 72.2112C210.093 70.0299 213.338 70.0299 213.338 72.2112Z" fill="white"/>
<path fill-rule="evenodd" clip-rule="evenodd" d="M219.188 72.2112C219.188 74.3549 215.942 74.3549 215.942 72.2112C215.942 70.0299 219.188 70.0299 219.188 72.2112Z" fill="white"/>
<path fill-rule="evenodd" clip-rule="evenodd" d="M9.05757 78.0028C9.05757 80.1466 5.81201 80.1466 5.81201 78.0028C5.81201 75.8591 9.05757 75.8591 9.05757 78.0028Z" fill="white"/>
<path fill-rule="evenodd" clip-rule="evenodd" d="M14.9072 78.0028C14.9072 80.1466 11.6616 80.1466 11.6616 78.0028C11.6616 75.8591 14.9072 75.8591 14.9072 78.0028Z" fill="white"/>
<path fill-rule="evenodd" clip-rule="evenodd" d="M26.5678 78.0028C26.5678 80.1466 23.3223 80.1466 23.3223 78.0028C23.3223 75.8591 26.5678 75.8591 26.5678 78.0028Z" fill="white"/>
<path fill-rule="evenodd" clip-rule="evenodd" d="M32.4179 78.0028C32.4179 80.1466 29.1724 80.1466 29.1724 78.0028C29.1724 75.8591 32.4179 75.8591 32.4179 78.0028Z" fill="white"/>
<path fill-rule="evenodd" clip-rule="evenodd" d="M38.2675 78.0028C38.2675 80.1466 35.022 80.1466 35.022 78.0028C35.022 75.8591 38.2675 75.8591 38.2675 78.0028Z" fill="white"/>
<path fill-rule="evenodd" clip-rule="evenodd" d="M44.0791 78.0028C44.0791 80.1466 40.8335 80.1466 40.8335 78.0028C40.8335 75.8591 44.0791 75.8591 44.0791 78.0028Z" fill="white"/>
<path fill-rule="evenodd" clip-rule="evenodd" d="M49.9292 78.0028C49.9292 80.1466 46.6836 80.1466 46.6836 78.0028C46.6836 75.8591 49.9292 75.8591 49.9292 78.0028Z" fill="white"/>
<path fill-rule="evenodd" clip-rule="evenodd" d="M55.7783 78.0028C55.7783 80.1466 52.5327 80.1466 52.5327 78.0028C52.5327 75.8591 55.7783 75.8591 55.7783 78.0028Z" fill="white"/>
<path fill-rule="evenodd" clip-rule="evenodd" d="M67.4394 78.0028C67.4394 80.1466 64.1938 80.1466 64.1938 78.0028C64.1938 75.8591 67.4394 75.8591 67.4394 78.0028Z" fill="white"/>
<path fill-rule="evenodd" clip-rule="evenodd" d="M73.2895 78.0028C73.2895 80.1466 70.0439 80.1466 70.0439 78.0028C70.0439 75.8591 73.2895 75.8591 73.2895 78.0028Z" fill="white"/>
<path fill-rule="evenodd" clip-rule="evenodd" d="M79.101 78.0028C79.101 80.1466 75.8555 80.1466 75.8555 78.0028C75.8555 75.8591 79.101 75.8591 79.101 78.0028Z" fill="white"/>
<path fill-rule="evenodd" clip-rule="evenodd" d="M84.9501 78.0028C84.9501 80.1466 81.7046 80.1466 81.7046 78.0028C81.7046 75.8591 84.9501 75.8591 84.9501 78.0028Z" fill="white"/>
<path fill-rule="evenodd" clip-rule="evenodd" d="M90.7627 78.0028C90.7627 80.1466 87.5171 80.1466 87.5171 78.0028C87.5171 75.8591 90.7627 75.8591 90.7627 78.0028Z" fill="white"/>
<path fill-rule="evenodd" clip-rule="evenodd" d="M96.6118 78.0028C96.6118 80.1466 93.3662 80.1466 93.3662 78.0028C93.3662 75.8591 96.6118 75.8591 96.6118 78.0028Z" fill="white"/>
<path fill-rule="evenodd" clip-rule="evenodd" d="M102.461 78.0028C102.461 80.1466 99.2158 80.1466 99.2158 78.0028C99.2158 75.8591 102.461 75.8591 102.461 78.0028Z" fill="white"/>
<path fill-rule="evenodd" clip-rule="evenodd" d="M108.273 78.0028C108.273 80.1466 105.028 80.1466 105.028 78.0028C105.028 75.8591 108.273 75.8591 108.273 78.0028Z" fill="white"/>
<path fill-rule="evenodd" clip-rule="evenodd" d="M114.123 78.0028C114.123 80.1466 110.877 80.1466 110.877 78.0028C110.877 75.8591 114.123 75.8591 114.123 78.0028Z" fill="white"/>
<path fill-rule="evenodd" clip-rule="evenodd" d="M119.972 78.0028C119.972 80.1466 116.727 80.1466 116.727 78.0028C116.727 75.8591 119.972 75.8591 119.972 78.0028Z" fill="white"/>
<path fill-rule="evenodd" clip-rule="evenodd" d="M125.784 78.0028C125.784 80.1466 122.539 80.1466 122.539 78.0028C122.539 75.8591 125.784 75.8591 125.784 78.0028Z" fill="white"/>
<path fill-rule="evenodd" clip-rule="evenodd" d="M131.634 78.0028C131.634 80.1466 128.388 80.1466 128.388 78.0028C128.388 75.8591 131.634 75.8591 131.634 78.0028Z" fill="white"/>
<path fill-rule="evenodd" clip-rule="evenodd" d="M137.483 78.0028C137.483 80.1466 134.238 80.1466 134.238 78.0028C134.238 75.8591 137.483 75.8591 137.483 78.0028Z" fill="white"/>
<path fill-rule="evenodd" clip-rule="evenodd" d="M143.295 78.0028C143.295 80.1466 140.05 80.1466 140.05 78.0028C140.05 75.8591 143.295 75.8591 143.295 78.0028Z" fill="white"/>
<path fill-rule="evenodd" clip-rule="evenodd" d="M149.144 78.0028C149.144 80.1466 145.899 80.1466 145.899 78.0028C145.899 75.8591 149.144 75.8591 149.144 78.0028Z" fill="white"/>
<path fill-rule="evenodd" clip-rule="evenodd" d="M154.956 78.0028C154.956 80.1466 151.71 80.1466 151.71 78.0028C151.71 75.8591 154.956 75.8591 154.956 78.0028Z" fill="white"/>
<path fill-rule="evenodd" clip-rule="evenodd" d="M160.806 78.0028C160.806 80.1466 157.561 80.1466 157.561 78.0028C157.561 75.8591 160.806 75.8591 160.806 78.0028Z" fill="white"/>
<path fill-rule="evenodd" clip-rule="evenodd" d="M166.656 78.0028C166.656 80.1466 163.41 80.1466 163.41 78.0028C163.41 75.8591 166.656 75.8591 166.656 78.0028Z" fill="white"/>
<path fill-rule="evenodd" clip-rule="evenodd" d="M172.467 78.0028C172.467 80.1466 169.222 80.1466 169.222 78.0028C169.222 75.8591 172.467 75.8591 172.467 78.0028Z" fill="white"/>
<path fill-rule="evenodd" clip-rule="evenodd" d="M178.316 78.0028C178.316 80.1466 175.071 80.1466 175.071 78.0028C175.071 75.8591 178.316 75.8591 178.316 78.0028Z" fill="white"/>
<path fill-rule="evenodd" clip-rule="evenodd" d="M184.166 78.0028C184.166 80.1466 180.921 80.1466 180.921 78.0028C180.921 75.8591 184.166 75.8591 184.166 78.0028Z" fill="white"/>
<path fill-rule="evenodd" clip-rule="evenodd" d="M201.678 78.0028C201.678 80.1466 198.432 80.1466 198.432 78.0028C198.432 75.8591 201.678 75.8591 201.678 78.0028Z" fill="white"/>
<path fill-rule="evenodd" clip-rule="evenodd" d="M207.489 78.0028C207.489 80.1466 204.244 80.1466 204.244 78.0028C204.244 75.8591 207.489 75.8591 207.489 78.0028Z" fill="white"/>
<path fill-rule="evenodd" clip-rule="evenodd" d="M213.338 78.0028C213.338 80.1466 210.093 80.1466 210.093 78.0028C210.093 75.8591 213.338 75.8591 213.338 78.0028Z" fill="white"/>
<path fill-rule="evenodd" clip-rule="evenodd" d="M219.188 78.0028C219.188 80.1466 215.942 80.1466 215.942 78.0028C215.942 75.8591 219.188 75.8591 219.188 78.0028Z" fill="white"/>
<path fill-rule="evenodd" clip-rule="evenodd" d="M225 78.0028C225 80.1466 221.754 80.1466 221.754 78.0028C221.754 75.8591 225 75.8591 225 78.0028Z" fill="white"/>
<path fill-rule="evenodd" clip-rule="evenodd" d="M9.05757 83.8324C9.05757 85.9762 5.81201 85.9762 5.81201 83.8324C5.84975 81.6887 9.05757 81.6887 9.05757 83.8324Z" fill="white"/>
<path fill-rule="evenodd" clip-rule="evenodd" d="M14.9072 83.8324C14.9072 85.9762 11.6616 85.9762 11.6616 83.8324C11.6616 81.6887 14.9072 81.6887 14.9072 83.8324Z" fill="white"/>
<path fill-rule="evenodd" clip-rule="evenodd" d="M20.7563 83.8324C20.7563 85.9762 17.5107 85.9762 17.5107 83.8324C17.5107 81.6887 20.7563 81.6887 20.7563 83.8324Z" fill="white"/>
<path fill-rule="evenodd" clip-rule="evenodd" d="M26.5678 83.8324C26.5678 85.9762 23.3223 85.9762 23.3223 83.8324C23.36 81.6887 26.5678 81.6887 26.5678 83.8324Z" fill="white"/>
<path fill-rule="evenodd" clip-rule="evenodd" d="M32.4179 83.8324C32.4179 85.9762 29.1724 85.9762 29.1724 83.8324C29.1724 81.6887 32.4179 81.6887 32.4179 83.8324Z" fill="white"/>
<path fill-rule="evenodd" clip-rule="evenodd" d="M38.2675 83.8324C38.2675 85.9762 35.022 85.9762 35.022 83.8324C35.022 81.6887 38.2675 81.6887 38.2675 83.8324Z" fill="white"/>
<path fill-rule="evenodd" clip-rule="evenodd" d="M44.0791 83.8324C44.0791 85.9762 40.8335 85.9762 40.8335 83.8324C40.8712 81.6887 44.0791 81.6887 44.0791 83.8324Z" fill="white"/>
<path fill-rule="evenodd" clip-rule="evenodd" d="M49.9292 83.8324C49.9292 85.9762 46.6836 85.9762 46.6836 83.8324C46.6836 81.6887 49.9292 81.6887 49.9292 83.8324Z" fill="white"/>
<path fill-rule="evenodd" clip-rule="evenodd" d="M55.7783 83.8324C55.7783 85.9762 52.5327 85.9762 52.5327 83.8324C52.5327 81.6887 55.7783 81.6887 55.7783 83.8324Z" fill="white"/>
<path fill-rule="evenodd" clip-rule="evenodd" d="M61.5898 83.8324C61.5898 85.9762 58.3442 85.9762 58.3442 83.8324C58.3442 81.6887 61.5898 81.6887 61.5898 83.8324Z" fill="white"/>
<path fill-rule="evenodd" clip-rule="evenodd" d="M67.4394 83.8324C67.4394 85.9762 64.1938 85.9762 64.1938 83.8324C64.1938 81.6887 67.4394 81.6887 67.4394 83.8324Z" fill="white"/>
<path fill-rule="evenodd" clip-rule="evenodd" d="M73.2895 83.8324C73.2895 85.9762 70.0439 85.9762 70.0439 83.8324C70.0439 81.6887 73.2895 81.6887 73.2895 83.8324Z" fill="white"/>
<path fill-rule="evenodd" clip-rule="evenodd" d="M79.101 83.8324C79.101 85.9762 75.8555 85.9762 75.8555 83.8324C75.8555 81.6887 79.101 81.6887 79.101 83.8324Z" fill="white"/>
<path fill-rule="evenodd" clip-rule="evenodd" d="M84.9501 83.8324C84.9501 85.9762 81.7046 85.9762 81.7046 83.8324C81.7046 81.6887 84.9501 81.6887 84.9501 83.8324Z" fill="white"/>
<path fill-rule="evenodd" clip-rule="evenodd" d="M90.7627 83.8324C90.7627 85.9762 87.5171 85.9762 87.5171 83.8324C87.5548 81.6887 90.7627 81.6887 90.7627 83.8324Z" fill="white"/>
<path fill-rule="evenodd" clip-rule="evenodd" d="M96.6118 83.8324C96.6118 85.9762 93.3662 85.9762 93.3662 83.8324C93.3662 81.6887 96.6118 81.6887 96.6118 83.8324Z" fill="white"/>
<path fill-rule="evenodd" clip-rule="evenodd" d="M102.461 83.8324C102.461 85.9762 99.2158 85.9762 99.2158 83.8324C99.2158 81.6887 102.461 81.6887 102.461 83.8324Z" fill="white"/>
<path fill-rule="evenodd" clip-rule="evenodd" d="M119.972 83.8324C119.972 85.9762 116.727 85.9762 116.727 83.8324C116.727 81.6887 119.972 81.6887 119.972 83.8324Z" fill="white"/>
<path fill-rule="evenodd" clip-rule="evenodd" d="M125.784 83.8324C125.784 85.9762 122.539 85.9762 122.539 83.8324C122.539 81.6887 125.784 81.6887 125.784 83.8324Z" fill="white"/>
<path fill-rule="evenodd" clip-rule="evenodd" d="M131.634 83.8324C131.634 85.9762 128.388 85.9762 128.388 83.8324C128.388 81.6887 131.634 81.6887 131.634 83.8324Z" fill="white"/>
<path fill-rule="evenodd" clip-rule="evenodd" d="M137.483 83.8324C137.483 85.9762 134.238 85.9762 134.238 83.8324C134.238 81.6887 137.483 81.6887 137.483 83.8324Z" fill="white"/>
<path fill-rule="evenodd" clip-rule="evenodd" d="M154.956 83.8324C154.956 85.9762 151.71 85.9762 151.71 83.8324C151.748 81.6887 154.956 81.6887 154.956 83.8324Z" fill="white"/>
<path fill-rule="evenodd" clip-rule="evenodd" d="M160.806 83.8324C160.806 85.9762 157.561 85.9762 157.561 83.8324C157.561 81.6887 160.806 81.6887 160.806 83.8324Z" fill="white"/>
<path fill-rule="evenodd" clip-rule="evenodd" d="M166.656 83.8324C166.656 85.9762 163.41 85.9762 163.41 83.8324C163.41 81.6887 166.656 81.6887 166.656 83.8324Z" fill="white"/>
<path fill-rule="evenodd" clip-rule="evenodd" d="M172.467 83.8324C172.467 85.9762 169.222 85.9762 169.222 83.8324C169.259 81.6887 172.467 81.6887 172.467 83.8324Z" fill="white"/>
<path fill-rule="evenodd" clip-rule="evenodd" d="M178.316 83.8324C178.316 85.9762 175.071 85.9762 175.071 83.8324C175.071 81.6887 178.316 81.6887 178.316 83.8324Z" fill="white"/>
<path fill-rule="evenodd" clip-rule="evenodd" d="M184.166 83.8324C184.166 85.9762 180.921 85.9762 180.921 83.8324C180.921 81.6887 184.166 81.6887 184.166 83.8324Z" fill="white"/>
<path fill-rule="evenodd" clip-rule="evenodd" d="M189.978 83.8324C189.978 85.9762 186.732 85.9762 186.732 83.8324C186.77 81.6887 189.978 81.6887 189.978 83.8324Z" fill="white"/>
<path fill-rule="evenodd" clip-rule="evenodd" d="M195.828 83.8324C195.828 85.9762 192.582 85.9762 192.582 83.8324C192.582 81.6887 195.828 81.6887 195.828 83.8324Z" fill="white"/>
<path fill-rule="evenodd" clip-rule="evenodd" d="M201.678 83.8324C201.678 85.9762 198.432 85.9762 198.432 83.8324C198.432 81.6887 201.678 81.6887 201.678 83.8324Z" fill="white"/>
<path fill-rule="evenodd" clip-rule="evenodd" d="M207.489 83.8324C207.489 85.9762 204.244 85.9762 204.244 83.8324C204.244 81.6887 207.489 81.6887 207.489 83.8324Z" fill="white"/>
<path fill-rule="evenodd" clip-rule="evenodd" d="M213.338 83.8324C213.338 85.9762 210.093 85.9762 210.093 83.8324C210.093 81.6887 213.338 81.6887 213.338 83.8324Z" fill="white"/>
<path fill-rule="evenodd" clip-rule="evenodd" d="M225 83.8324C225 85.9762 221.754 85.9762 221.754 83.8324C221.754 81.6887 225 81.6887 225 83.8324Z" fill="white"/>
<path fill-rule="evenodd" clip-rule="evenodd" d="M9.05757 89.6619C9.05757 91.8056 5.81201 91.8056 5.81201 89.6619C5.84975 87.4805 9.05757 87.4805 9.05757 89.6619Z" fill="white"/>
<path fill-rule="evenodd" clip-rule="evenodd" d="M14.9072 89.6619C14.9072 91.8056 11.6616 91.8056 11.6616 89.6619C11.6616 87.4805 14.9072 87.4805 14.9072 89.6619Z" fill="white"/>
<path fill-rule="evenodd" clip-rule="evenodd" d="M20.7563 89.6619C20.7563 91.8056 17.5107 91.8056 17.5107 89.6619C17.5107 87.4805 20.7563 87.4805 20.7563 89.6619Z" fill="white"/>
<path fill-rule="evenodd" clip-rule="evenodd" d="M26.5678 89.6619C26.5678 91.8056 23.3223 91.8056 23.3223 89.6619C23.36 87.4805 26.5678 87.4805 26.5678 89.6619Z" fill="white"/>
<path fill-rule="evenodd" clip-rule="evenodd" d="M32.4179 89.6619C32.4179 91.8056 29.1724 91.8056 29.1724 89.6619C29.1724 87.4805 32.4179 87.4805 32.4179 89.6619Z" fill="white"/>
<path fill-rule="evenodd" clip-rule="evenodd" d="M38.2675 89.6619C38.2675 91.8056 35.022 91.8056 35.022 89.6619C35.022 87.4805 38.2675 87.4805 38.2675 89.6619Z" fill="white"/>
<path fill-rule="evenodd" clip-rule="evenodd" d="M44.0791 89.6619C44.0791 91.8056 40.8335 91.8056 40.8335 89.6619C40.8712 87.4805 44.0791 87.4805 44.0791 89.6619Z" fill="white"/>
<path fill-rule="evenodd" clip-rule="evenodd" d="M49.9292 89.6619C49.9292 91.8056 46.6836 91.8056 46.6836 89.6619C46.6836 87.4805 49.9292 87.4805 49.9292 89.6619Z" fill="white"/>
<path fill-rule="evenodd" clip-rule="evenodd" d="M55.7783 89.6619C55.7783 91.8056 52.5327 91.8056 52.5327 89.6619C52.5327 87.4805 55.7783 87.4805 55.7783 89.6619Z" fill="white"/>
<path fill-rule="evenodd" clip-rule="evenodd" d="M61.5898 89.6619C61.5898 91.8056 58.3442 91.8056 58.3442 89.6619C58.3442 87.4805 61.5898 87.4805 61.5898 89.6619Z" fill="white"/>
<path fill-rule="evenodd" clip-rule="evenodd" d="M67.4394 89.6619C67.4394 91.8056 64.1938 91.8056 64.1938 89.6619C64.1938 87.4805 67.4394 87.4805 67.4394 89.6619Z" fill="white"/>
<path fill-rule="evenodd" clip-rule="evenodd" d="M73.2895 89.6619C73.2895 91.8056 70.0439 91.8056 70.0439 89.6619C70.0439 87.4805 73.2895 87.4805 73.2895 89.6619Z" fill="white"/>
<path fill-rule="evenodd" clip-rule="evenodd" d="M79.101 89.6619C79.101 91.8056 75.8555 91.8056 75.8555 89.6619C75.8555 87.4805 79.101 87.4805 79.101 89.6619Z" fill="white"/>
<path fill-rule="evenodd" clip-rule="evenodd" d="M84.9501 89.6619C84.9501 91.8056 81.7046 91.8056 81.7046 89.6619C81.7046 87.4805 84.9501 87.4805 84.9501 89.6619Z" fill="white"/>
<path fill-rule="evenodd" clip-rule="evenodd" d="M90.7627 89.6619C90.7627 91.8056 87.5171 91.8056 87.5171 89.6619C87.5548 87.4805 90.7627 87.4805 90.7627 89.6619Z" fill="white"/>
<path fill-rule="evenodd" clip-rule="evenodd" d="M96.6118 89.6619C96.6118 91.8056 93.3662 91.8056 93.3662 89.6619C93.3662 87.4805 96.6118 87.4805 96.6118 89.6619Z" fill="white"/>
<path fill-rule="evenodd" clip-rule="evenodd" d="M102.461 89.6619C102.461 91.8056 99.2158 91.8056 99.2158 89.6619C99.2158 87.4805 102.461 87.4805 102.461 89.6619Z" fill="white"/>
<path fill-rule="evenodd" clip-rule="evenodd" d="M119.972 89.6619C119.972 91.8056 116.727 91.8056 116.727 89.6619C116.727 87.4805 119.972 87.4805 119.972 89.6619Z" fill="white"/>
<path fill-rule="evenodd" clip-rule="evenodd" d="M125.784 89.6619C125.784 91.8056 122.539 91.8056 122.539 89.6619C122.539 87.4805 125.784 87.4805 125.784 89.6619Z" fill="white"/>
<path fill-rule="evenodd" clip-rule="evenodd" d="M131.634 89.6619C131.634 91.8056 128.388 91.8056 128.388 89.6619C128.388 87.4805 131.634 87.4805 131.634 89.6619Z" fill="white"/>
<path fill-rule="evenodd" clip-rule="evenodd" d="M137.483 89.6619C137.483 91.8056 134.238 91.8056 134.238 89.6619C134.238 87.4805 137.483 87.4805 137.483 89.6619Z" fill="white"/>
<path fill-rule="evenodd" clip-rule="evenodd" d="M154.956 89.6619C154.956 91.8056 151.71 91.8056 151.71 89.6619C151.748 87.4805 154.956 87.4805 154.956 89.6619Z" fill="white"/>
<path fill-rule="evenodd" clip-rule="evenodd" d="M160.806 89.6619C160.806 91.8056 157.561 91.8056 157.561 89.6619C157.561 87.4805 160.806 87.4805 160.806 89.6619Z" fill="white"/>
<path fill-rule="evenodd" clip-rule="evenodd" d="M166.656 89.6619C166.656 91.8056 163.41 91.8056 163.41 89.6619C163.41 87.4805 166.656 87.4805 166.656 89.6619Z" fill="white"/>
<path fill-rule="evenodd" clip-rule="evenodd" d="M172.467 89.6619C172.467 91.8056 169.222 91.8056 169.222 89.6619C169.259 87.4805 172.467 87.4805 172.467 89.6619Z" fill="white"/>
<path fill-rule="evenodd" clip-rule="evenodd" d="M178.316 89.6619C178.316 91.8056 175.071 91.8056 175.071 89.6619C175.071 87.4805 178.316 87.4805 178.316 89.6619Z" fill="white"/>
<path fill-rule="evenodd" clip-rule="evenodd" d="M184.166 89.6619C184.166 91.8056 180.921 91.8056 180.921 89.6619C180.921 87.4805 184.166 87.4805 184.166 89.6619Z" fill="white"/>
<path fill-rule="evenodd" clip-rule="evenodd" d="M189.978 89.6619C189.978 91.8056 186.732 91.8056 186.732 89.6619C186.77 87.4805 189.978 87.4805 189.978 89.6619Z" fill="white"/>
<path fill-rule="evenodd" clip-rule="evenodd" d="M195.828 89.6619C195.828 91.8056 192.582 91.8056 192.582 89.6619C192.582 87.4805 195.828 87.4805 195.828 89.6619Z" fill="white"/>
<path fill-rule="evenodd" clip-rule="evenodd" d="M201.678 89.6619C201.678 91.8056 198.432 91.8056 198.432 89.6619C198.432 87.4805 201.678 87.4805 201.678 89.6619Z" fill="white"/>
<path fill-rule="evenodd" clip-rule="evenodd" d="M207.489 89.6619C207.489 91.8056 204.244 91.8056 204.244 89.6619C204.244 87.4805 207.489 87.4805 207.489 89.6619Z" fill="white"/>
<path fill-rule="evenodd" clip-rule="evenodd" d="M213.338 89.6619C213.338 91.8056 210.093 91.8056 210.093 89.6619C210.093 87.4805 213.338 87.4805 213.338 89.6619Z" fill="white"/>
<path fill-rule="evenodd" clip-rule="evenodd" d="M3.24555 95.4535C3.24555 97.5972 0 97.5972 0 95.4535C0 93.3098 3.24555 93.3098 3.24555 95.4535Z" fill="white"/>
<path fill-rule="evenodd" clip-rule="evenodd" d="M9.05757 95.4535C9.05757 97.5972 5.81201 97.5972 5.81201 95.4535C5.84975 93.3098 9.05757 93.3098 9.05757 95.4535Z" fill="white"/>
<path fill-rule="evenodd" clip-rule="evenodd" d="M14.9072 95.4535C14.9072 97.5972 11.6616 97.5972 11.6616 95.4535C11.6616 93.3098 14.9072 93.3098 14.9072 95.4535Z" fill="white"/>
<path fill-rule="evenodd" clip-rule="evenodd" d="M20.7563 95.4535C20.7563 97.5972 17.5107 97.5972 17.5107 95.4535C17.5107 93.3098 20.7563 93.3098 20.7563 95.4535Z" fill="white"/>
<path fill-rule="evenodd" clip-rule="evenodd" d="M26.5678 95.4535C26.5678 97.5972 23.3223 97.5972 23.3223 95.4535C23.36 93.3098 26.5678 93.3098 26.5678 95.4535Z" fill="white"/>
<path fill-rule="evenodd" clip-rule="evenodd" d="M38.2675 95.4535C38.2675 97.5972 35.022 97.5972 35.022 95.4535C35.022 93.3098 38.2675 93.3098 38.2675 95.4535Z" fill="white"/>
<path fill-rule="evenodd" clip-rule="evenodd" d="M44.0791 95.4535C44.0791 97.5972 40.8335 97.5972 40.8335 95.4535C40.8712 93.3098 44.0791 93.3098 44.0791 95.4535Z" fill="white"/>
<path fill-rule="evenodd" clip-rule="evenodd" d="M49.9292 95.4535C49.9292 97.5972 46.6836 97.5972 46.6836 95.4535C46.6836 93.3098 49.9292 93.3098 49.9292 95.4535Z" fill="white"/>
<path fill-rule="evenodd" clip-rule="evenodd" d="M55.7783 95.4535C55.7783 97.5972 52.5327 97.5972 52.5327 95.4535C52.5327 93.3098 55.7783 93.3098 55.7783 95.4535Z" fill="white"/>
<path fill-rule="evenodd" clip-rule="evenodd" d="M61.5898 95.4535C61.5898 97.5972 58.3442 97.5972 58.3442 95.4535C58.3442 93.3098 61.5898 93.3098 61.5898 95.4535Z" fill="white"/>
<path fill-rule="evenodd" clip-rule="evenodd" d="M67.4394 95.4535C67.4394 97.5972 64.1938 97.5972 64.1938 95.4535C64.1938 93.3098 67.4394 93.3098 67.4394 95.4535Z" fill="white"/>
<path fill-rule="evenodd" clip-rule="evenodd" d="M84.9501 95.4535C84.9501 97.5972 81.7046 97.5972 81.7046 95.4535C81.7046 93.3098 84.9501 93.3098 84.9501 95.4535Z" fill="white"/>
<path fill-rule="evenodd" clip-rule="evenodd" d="M90.7627 95.4535C90.7627 97.5972 87.5171 97.5972 87.5171 95.4535C87.5548 93.3098 90.7627 93.3098 90.7627 95.4535Z" fill="white"/>
<path fill-rule="evenodd" clip-rule="evenodd" d="M96.6118 95.4535C96.6118 97.5972 93.3662 97.5972 93.3662 95.4535C93.3662 93.3098 96.6118 93.3098 96.6118 95.4535Z" fill="white"/>
<path fill-rule="evenodd" clip-rule="evenodd" d="M102.461 95.4535C102.461 97.5972 99.2158 97.5972 99.2158 95.4535C99.2158 93.3098 102.461 93.3098 102.461 95.4535Z" fill="white"/>
<path fill-rule="evenodd" clip-rule="evenodd" d="M108.273 95.4535C108.273 97.5972 105.028 97.5972 105.028 95.4535C105.066 93.3098 108.273 93.3098 108.273 95.4535Z" fill="white"/>
<path fill-rule="evenodd" clip-rule="evenodd" d="M114.123 95.4535C114.123 97.5972 110.877 97.5972 110.877 95.4535C110.877 93.3098 114.123 93.3098 114.123 95.4535Z" fill="white"/>
<path fill-rule="evenodd" clip-rule="evenodd" d="M119.972 95.4535C119.972 97.5972 116.727 97.5972 116.727 95.4535C116.727 93.3098 119.972 93.3098 119.972 95.4535Z" fill="white"/>
<path fill-rule="evenodd" clip-rule="evenodd" d="M125.784 95.4535C125.784 97.5972 122.539 97.5972 122.539 95.4535C122.539 93.3098 125.784 93.3098 125.784 95.4535Z" fill="white"/>
<path fill-rule="evenodd" clip-rule="evenodd" d="M131.634 95.4535C131.634 97.5972 128.388 97.5972 128.388 95.4535C128.388 93.3098 131.634 93.3098 131.634 95.4535Z" fill="white"/>
<path fill-rule="evenodd" clip-rule="evenodd" d="M137.483 95.4535C137.483 97.5972 134.238 97.5972 134.238 95.4535C134.238 93.3098 137.483 93.3098 137.483 95.4535Z" fill="white"/>
<path fill-rule="evenodd" clip-rule="evenodd" d="M143.295 95.4535C143.295 97.5972 140.05 97.5972 140.05 95.4535C140.05 93.3098 143.295 93.3098 143.295 95.4535Z" fill="white"/>
<path fill-rule="evenodd" clip-rule="evenodd" d="M149.144 95.4535C149.144 97.5972 145.899 97.5972 145.899 95.4535C145.899 93.3098 149.144 93.3098 149.144 95.4535Z" fill="white"/>
<path fill-rule="evenodd" clip-rule="evenodd" d="M154.956 95.4535C154.956 97.5972 151.71 97.5972 151.71 95.4535C151.748 93.3098 154.956 93.3098 154.956 95.4535Z" fill="white"/>
<path fill-rule="evenodd" clip-rule="evenodd" d="M160.806 95.4535C160.806 97.5972 157.561 97.5972 157.561 95.4535C157.561 93.3098 160.806 93.3098 160.806 95.4535Z" fill="white"/>
<path fill-rule="evenodd" clip-rule="evenodd" d="M166.656 95.4535C166.656 97.5972 163.41 97.5972 163.41 95.4535C163.41 93.3098 166.656 93.3098 166.656 95.4535Z" fill="white"/>
<path fill-rule="evenodd" clip-rule="evenodd" d="M172.467 95.4535C172.467 97.5972 169.222 97.5972 169.222 95.4535C169.259 93.3098 172.467 93.3098 172.467 95.4535Z" fill="white"/>
<path fill-rule="evenodd" clip-rule="evenodd" d="M178.316 95.4535C178.316 97.5972 175.071 97.5972 175.071 95.4535C175.071 93.3098 178.316 93.3098 178.316 95.4535Z" fill="white"/>
<path fill-rule="evenodd" clip-rule="evenodd" d="M195.828 95.4535C195.828 97.5972 192.582 97.5972 192.582 95.4535C192.582 93.3098 195.828 93.3098 195.828 95.4535Z" fill="white"/>
<path fill-rule="evenodd" clip-rule="evenodd" d="M201.678 95.4535C201.678 97.5972 198.432 97.5972 198.432 95.4535C198.432 93.3098 201.678 93.3098 201.678 95.4535Z" fill="white"/>
<path fill-rule="evenodd" clip-rule="evenodd" d="M3.24555 101.283C3.24555 103.427 0 103.427 0 101.283C0 99.1394 3.24555 99.1394 3.24555 101.283Z" fill="white"/>
<path fill-rule="evenodd" clip-rule="evenodd" d="M9.05757 101.283C9.05757 103.427 5.81201 103.427 5.81201 101.283C5.81201 99.1394 9.05757 99.1394 9.05757 101.283Z" fill="white"/>
<path fill-rule="evenodd" clip-rule="evenodd" d="M14.9072 101.283C14.9072 103.427 11.6616 103.427 11.6616 101.283C11.6616 99.1394 14.9072 99.1394 14.9072 101.283Z" fill="white"/>
<path fill-rule="evenodd" clip-rule="evenodd" d="M20.7563 101.283C20.7563 103.427 17.5107 103.427 17.5107 101.283C17.5107 99.1394 20.7563 99.1394 20.7563 101.283Z" fill="white"/>
<path fill-rule="evenodd" clip-rule="evenodd" d="M26.5678 101.283C26.5678 103.427 23.3223 103.427 23.3223 101.283C23.3223 99.1394 26.5678 99.1394 26.5678 101.283Z" fill="white"/>
<path fill-rule="evenodd" clip-rule="evenodd" d="M44.0791 101.283C44.0791 103.427 40.8335 103.427 40.8335 101.283C40.8335 99.1394 44.0791 99.1394 44.0791 101.283Z" fill="white"/>
<path fill-rule="evenodd" clip-rule="evenodd" d="M49.9292 101.283C49.9292 103.427 46.6836 103.427 46.6836 101.283C46.6836 99.1394 49.9292 99.1394 49.9292 101.283Z" fill="white"/>
<path fill-rule="evenodd" clip-rule="evenodd" d="M61.5898 101.283C61.5898 103.427 58.3442 103.427 58.3442 101.283C58.3442 99.1394 61.5898 99.1394 61.5898 101.283Z" fill="white"/>
<path fill-rule="evenodd" clip-rule="evenodd" d="M67.4394 101.283C67.4394 103.427 64.1938 103.427 64.1938 101.283C64.1938 99.1394 67.4394 99.1394 67.4394 101.283Z" fill="white"/>
<path fill-rule="evenodd" clip-rule="evenodd" d="M84.9501 101.283C84.9501 103.427 81.7046 103.427 81.7046 101.283C81.7046 99.1394 84.9501 99.1394 84.9501 101.283Z" fill="white"/>
<path fill-rule="evenodd" clip-rule="evenodd" d="M90.7627 101.283C90.7627 103.427 87.5171 103.427 87.5171 101.283C87.5171 99.1394 90.7627 99.1394 90.7627 101.283Z" fill="white"/>
<path fill-rule="evenodd" clip-rule="evenodd" d="M96.6118 101.283C96.6118 103.427 93.3662 103.427 93.3662 101.283C93.3662 99.1394 96.6118 99.1394 96.6118 101.283Z" fill="white"/>
<path fill-rule="evenodd" clip-rule="evenodd" d="M102.461 101.283C102.461 103.427 99.2158 103.427 99.2158 101.283C99.2158 99.1394 102.461 99.1394 102.461 101.283Z" fill="white"/>
<path fill-rule="evenodd" clip-rule="evenodd" d="M108.273 101.283C108.273 103.427 105.028 103.427 105.028 101.283C105.028 99.1394 108.273 99.1394 108.273 101.283Z" fill="white"/>
<path fill-rule="evenodd" clip-rule="evenodd" d="M114.123 101.283C114.123 103.427 110.877 103.427 110.877 101.283C110.877 99.1394 114.123 99.1394 114.123 101.283Z" fill="white"/>
<path fill-rule="evenodd" clip-rule="evenodd" d="M119.972 101.283C119.972 103.427 116.727 103.427 116.727 101.283C116.727 99.1394 119.972 99.1394 119.972 101.283Z" fill="white"/>
<path fill-rule="evenodd" clip-rule="evenodd" d="M125.784 101.283C125.784 103.427 122.539 103.427 122.539 101.283C122.539 99.1394 125.784 99.1394 125.784 101.283Z" fill="white"/>
<path fill-rule="evenodd" clip-rule="evenodd" d="M131.634 101.283C131.634 103.427 128.388 103.427 128.388 101.283C128.388 99.1394 131.634 99.1394 131.634 101.283Z" fill="white"/>
<path fill-rule="evenodd" clip-rule="evenodd" d="M137.483 101.283C137.483 103.427 134.238 103.427 134.238 101.283C134.238 99.1394 137.483 99.1394 137.483 101.283Z" fill="white"/>
<path fill-rule="evenodd" clip-rule="evenodd" d="M143.295 101.283C143.295 103.427 140.05 103.427 140.05 101.283C140.05 99.1394 143.295 99.1394 143.295 101.283Z" fill="white"/>
<path fill-rule="evenodd" clip-rule="evenodd" d="M149.144 101.283C149.144 103.427 145.899 103.427 145.899 101.283C145.899 99.1394 149.144 99.1394 149.144 101.283Z" fill="white"/>
<path fill-rule="evenodd" clip-rule="evenodd" d="M154.956 101.283C154.956 103.427 151.71 103.427 151.71 101.283C151.71 99.1394 154.956 99.1394 154.956 101.283Z" fill="white"/>
<path fill-rule="evenodd" clip-rule="evenodd" d="M160.806 101.283C160.806 103.427 157.561 103.427 157.561 101.283C157.561 99.1394 160.806 99.1394 160.806 101.283Z" fill="white"/>
<path fill-rule="evenodd" clip-rule="evenodd" d="M189.978 101.283C189.978 103.427 186.732 103.427 186.732 101.283C186.732 99.1394 189.978 99.1394 189.978 101.283Z" fill="white"/>
<path fill-rule="evenodd" clip-rule="evenodd" d="M3.24555 107.112C3.24555 109.256 0 109.256 0 107.112C0 104.969 3.24555 104.931 3.24555 107.112Z" fill="white"/>
<path fill-rule="evenodd" clip-rule="evenodd" d="M9.05757 107.112C9.05757 109.256 5.81201 109.256 5.81201 107.112C5.81201 104.969 9.05757 104.931 9.05757 107.112Z" fill="white"/>
<path fill-rule="evenodd" clip-rule="evenodd" d="M14.9072 107.112C14.9072 109.256 11.6616 109.256 11.6616 107.112C11.6616 104.969 14.9072 104.931 14.9072 107.112Z" fill="white"/>
<path fill-rule="evenodd" clip-rule="evenodd" d="M20.7563 107.112C20.7563 109.256 17.5107 109.256 17.5107 107.112C17.5107 104.969 20.7563 104.931 20.7563 107.112Z" fill="white"/>
<path fill-rule="evenodd" clip-rule="evenodd" d="M26.5678 107.112C26.5678 109.256 23.3223 109.256 23.3223 107.112C23.3223 104.969 26.5678 104.931 26.5678 107.112Z" fill="white"/>
<path fill-rule="evenodd" clip-rule="evenodd" d="M32.4179 107.112C32.4179 109.256 29.1724 109.256 29.1724 107.112C29.1724 104.969 32.4179 104.931 32.4179 107.112Z" fill="white"/>
<path fill-rule="evenodd" clip-rule="evenodd" d="M38.2675 107.112C38.2675 109.256 35.022 109.256 35.022 107.112C35.022 104.969 38.2675 104.931 38.2675 107.112Z" fill="white"/>
<path fill-rule="evenodd" clip-rule="evenodd" d="M44.0791 107.112C44.0791 109.256 40.8335 109.256 40.8335 107.112C40.8335 104.969 44.0791 104.931 44.0791 107.112Z" fill="white"/>
<path fill-rule="evenodd" clip-rule="evenodd" d="M49.9292 107.112C49.9292 109.256 46.6836 109.256 46.6836 107.112C46.6836 104.969 49.9292 104.931 49.9292 107.112Z" fill="white"/>
<path fill-rule="evenodd" clip-rule="evenodd" d="M55.7783 107.112C55.7783 109.256 52.5327 109.256 52.5327 107.112C52.5327 104.969 55.7783 104.931 55.7783 107.112Z" fill="white"/>
<path fill-rule="evenodd" clip-rule="evenodd" d="M61.5898 107.112C61.5898 109.256 58.3442 109.256 58.3442 107.112C58.3442 104.969 61.5898 104.931 61.5898 107.112Z" fill="white"/>
<path fill-rule="evenodd" clip-rule="evenodd" d="M67.4394 107.112C67.4394 109.256 64.1938 109.256 64.1938 107.112C64.1938 104.969 67.4394 104.931 67.4394 107.112Z" fill="white"/>
<path fill-rule="evenodd" clip-rule="evenodd" d="M73.2895 107.112C73.2895 109.256 70.0439 109.256 70.0439 107.112C70.0439 104.969 73.2895 104.931 73.2895 107.112Z" fill="white"/>
<path fill-rule="evenodd" clip-rule="evenodd" d="M79.101 107.112C79.101 109.256 75.8555 109.256 75.8555 107.112C75.8555 104.969 79.101 104.931 79.101 107.112Z" fill="white"/>
<path fill-rule="evenodd" clip-rule="evenodd" d="M84.9501 107.112C84.9501 109.256 81.7046 109.256 81.7046 107.112C81.7046 104.969 84.9501 104.931 84.9501 107.112Z" fill="white"/>
<path fill-rule="evenodd" clip-rule="evenodd" d="M90.7627 107.112C90.7627 109.256 87.5171 109.256 87.5171 107.112C87.5171 104.969 90.7627 104.931 90.7627 107.112Z" fill="white"/>
<path fill-rule="evenodd" clip-rule="evenodd" d="M96.6118 107.112C96.6118 109.256 93.3662 109.256 93.3662 107.112C93.3662 104.969 96.6118 104.931 96.6118 107.112Z" fill="white"/>
<path fill-rule="evenodd" clip-rule="evenodd" d="M102.461 107.112C102.461 109.256 99.2158 109.256 99.2158 107.112C99.2158 104.969 102.461 104.931 102.461 107.112Z" fill="white"/>
<path fill-rule="evenodd" clip-rule="evenodd" d="M108.273 107.112C108.273 109.256 105.028 109.256 105.028 107.112C105.028 104.969 108.273 104.931 108.273 107.112Z" fill="white"/>
<path fill-rule="evenodd" clip-rule="evenodd" d="M114.123 107.112C114.123 109.256 110.877 109.256 110.877 107.112C110.877 104.969 114.123 104.931 114.123 107.112Z" fill="white"/>
<path fill-rule="evenodd" clip-rule="evenodd" d="M119.972 107.112C119.972 109.256 116.727 109.256 116.727 107.112C116.727 104.969 119.972 104.931 119.972 107.112Z" fill="white"/>
<path fill-rule="evenodd" clip-rule="evenodd" d="M125.784 107.112C125.784 109.256 122.539 109.256 122.539 107.112C122.539 104.969 125.784 104.931 125.784 107.112Z" fill="white"/>
<path fill-rule="evenodd" clip-rule="evenodd" d="M131.634 107.112C131.634 109.256 128.388 109.256 128.388 107.112C128.388 104.969 131.634 104.931 131.634 107.112Z" fill="white"/>
<path fill-rule="evenodd" clip-rule="evenodd" d="M137.483 107.112C137.483 109.256 134.238 109.256 134.238 107.112C134.238 104.969 137.483 104.931 137.483 107.112Z" fill="white"/>
<path fill-rule="evenodd" clip-rule="evenodd" d="M143.295 107.112C143.295 109.256 140.05 109.256 140.05 107.112C140.05 104.969 143.295 104.931 143.295 107.112Z" fill="white"/>
<path fill-rule="evenodd" clip-rule="evenodd" d="M149.144 107.112C149.144 109.256 145.899 109.256 145.899 107.112C145.899 104.969 149.144 104.931 149.144 107.112Z" fill="white"/>
<path fill-rule="evenodd" clip-rule="evenodd" d="M154.956 107.112C154.956 109.256 151.71 109.256 151.71 107.112C151.71 104.969 154.956 104.931 154.956 107.112Z" fill="white"/>
<path fill-rule="evenodd" clip-rule="evenodd" d="M184.166 107.112C184.166 109.256 180.921 109.256 180.921 107.112C180.921 104.969 184.166 104.931 184.166 107.112Z" fill="white"/>
<path fill-rule="evenodd" clip-rule="evenodd" d="M189.978 107.112C189.978 109.256 186.732 109.256 186.732 107.112C186.732 104.969 189.978 104.931 189.978 107.112Z" fill="white"/>
<path fill-rule="evenodd" clip-rule="evenodd" d="M9.05757 112.904C9.05757 115.048 5.81201 115.048 5.81201 112.904C5.81201 110.76 9.05757 110.76 9.05757 112.904Z" fill="white"/>
<path fill-rule="evenodd" clip-rule="evenodd" d="M14.9072 112.904C14.9072 115.048 11.6616 115.048 11.6616 112.904C11.6616 110.76 14.9072 110.76 14.9072 112.904Z" fill="white"/>
<path fill-rule="evenodd" clip-rule="evenodd" d="M20.7563 112.904C20.7563 115.048 17.5107 115.048 17.5107 112.904C17.5107 110.76 20.7563 110.76 20.7563 112.904Z" fill="white"/>
<path fill-rule="evenodd" clip-rule="evenodd" d="M26.5678 112.904C26.5678 115.048 23.3223 115.048 23.3223 112.904C23.3223 110.76 26.5678 110.76 26.5678 112.904Z" fill="white"/>
<path fill-rule="evenodd" clip-rule="evenodd" d="M32.4179 112.904C32.4179 115.048 29.1724 115.048 29.1724 112.904C29.1724 110.76 32.4179 110.76 32.4179 112.904Z" fill="white"/>
<path fill-rule="evenodd" clip-rule="evenodd" d="M38.2675 112.904C38.2675 115.048 35.022 115.048 35.022 112.904C35.022 110.76 38.2675 110.76 38.2675 112.904Z" fill="white"/>
<path fill-rule="evenodd" clip-rule="evenodd" d="M44.0791 112.904C44.0791 115.048 40.8335 115.048 40.8335 112.904C40.8335 110.76 44.0791 110.76 44.0791 112.904Z" fill="white"/>
<path fill-rule="evenodd" clip-rule="evenodd" d="M49.9292 112.904C49.9292 115.048 46.6836 115.048 46.6836 112.904C46.6836 110.76 49.9292 110.76 49.9292 112.904Z" fill="white"/>
<path fill-rule="evenodd" clip-rule="evenodd" d="M67.4394 112.904C67.4394 115.048 64.1938 115.048 64.1938 112.904C64.1938 110.76 67.4394 110.76 67.4394 112.904Z" fill="white"/>
<path fill-rule="evenodd" clip-rule="evenodd" d="M73.2895 112.904C73.2895 115.048 70.0439 115.048 70.0439 112.904C70.0439 110.76 73.2895 110.76 73.2895 112.904Z" fill="white"/>
<path fill-rule="evenodd" clip-rule="evenodd" d="M79.101 112.904C79.101 115.048 75.8555 115.048 75.8555 112.904C75.8555 110.76 79.101 110.76 79.101 112.904Z" fill="white"/>
<path fill-rule="evenodd" clip-rule="evenodd" d="M84.9501 112.904C84.9501 115.048 81.7046 115.048 81.7046 112.904C81.7046 110.76 84.9501 110.76 84.9501 112.904Z" fill="white"/>
<path fill-rule="evenodd" clip-rule="evenodd" d="M90.7627 112.904C90.7627 115.048 87.5171 115.048 87.5171 112.904C87.5171 110.76 90.7627 110.76 90.7627 112.904Z" fill="white"/>
<path fill-rule="evenodd" clip-rule="evenodd" d="M96.6118 112.904C96.6118 115.048 93.3662 115.048 93.3662 112.904C93.3662 110.76 96.6118 110.76 96.6118 112.904Z" fill="white"/>
<path fill-rule="evenodd" clip-rule="evenodd" d="M102.461 112.904C102.461 115.048 99.2158 115.048 99.2158 112.904C99.2158 110.76 102.461 110.76 102.461 112.904Z" fill="white"/>
<path fill-rule="evenodd" clip-rule="evenodd" d="M108.273 112.904C108.273 115.048 105.028 115.048 105.028 112.904C105.028 110.76 108.273 110.76 108.273 112.904Z" fill="white"/>
<path fill-rule="evenodd" clip-rule="evenodd" d="M114.123 112.904C114.123 115.048 110.877 115.048 110.877 112.904C110.877 110.76 114.123 110.76 114.123 112.904Z" fill="white"/>
<path fill-rule="evenodd" clip-rule="evenodd" d="M119.972 112.904C119.972 115.048 116.727 115.048 116.727 112.904C116.727 110.76 119.972 110.76 119.972 112.904Z" fill="white"/>
<path fill-rule="evenodd" clip-rule="evenodd" d="M125.784 112.904C125.784 115.048 122.539 115.048 122.539 112.904C122.539 110.76 125.784 110.76 125.784 112.904Z" fill="white"/>
<path fill-rule="evenodd" clip-rule="evenodd" d="M131.634 112.904C131.634 115.048 128.388 115.048 128.388 112.904C128.388 110.76 131.634 110.76 131.634 112.904Z" fill="white"/>
<path fill-rule="evenodd" clip-rule="evenodd" d="M137.483 112.904C137.483 115.048 134.238 115.048 134.238 112.904C134.238 110.76 137.483 110.76 137.483 112.904Z" fill="white"/>
<path fill-rule="evenodd" clip-rule="evenodd" d="M143.295 112.904C143.295 115.048 140.05 115.048 140.05 112.904C140.05 110.76 143.295 110.76 143.295 112.904Z" fill="white"/>
<path fill-rule="evenodd" clip-rule="evenodd" d="M149.144 112.904C149.144 115.048 145.899 115.048 145.899 112.904C145.899 110.76 149.144 110.76 149.144 112.904Z" fill="white"/>
<path fill-rule="evenodd" clip-rule="evenodd" d="M154.956 112.904C154.956 115.048 151.71 115.048 151.71 112.904C151.71 110.76 154.956 110.76 154.956 112.904Z" fill="white"/>
<path fill-rule="evenodd" clip-rule="evenodd" d="M184.166 112.904C184.166 115.048 180.921 115.048 180.921 112.904C180.921 110.76 184.166 110.76 184.166 112.904Z" fill="white"/>
<path fill-rule="evenodd" clip-rule="evenodd" d="M14.9072 118.734C14.9072 120.878 11.6616 120.878 11.6616 118.734C11.6616 116.59 14.9072 116.59 14.9072 118.734Z" fill="white"/>
<path fill-rule="evenodd" clip-rule="evenodd" d="M20.7563 118.734C20.7563 120.878 17.5107 120.878 17.5107 118.734C17.5107 116.59 20.7563 116.59 20.7563 118.734Z" fill="white"/>
<path fill-rule="evenodd" clip-rule="evenodd" d="M26.5678 118.734C26.5678 120.878 23.3223 120.878 23.3223 118.734C23.36 116.59 26.5678 116.59 26.5678 118.734Z" fill="white"/>
<path fill-rule="evenodd" clip-rule="evenodd" d="M32.4179 118.734C32.4179 120.878 29.1724 120.878 29.1724 118.734C29.1724 116.59 32.4179 116.59 32.4179 118.734Z" fill="white"/>
<path fill-rule="evenodd" clip-rule="evenodd" d="M38.2675 118.734C38.2675 120.878 35.022 120.878 35.022 118.734C35.022 116.59 38.2675 116.59 38.2675 118.734Z" fill="white"/>
<path fill-rule="evenodd" clip-rule="evenodd" d="M44.0791 118.734C44.0791 120.878 40.8335 120.878 40.8335 118.734C40.8712 116.59 44.0791 116.59 44.0791 118.734Z" fill="white"/>
<path fill-rule="evenodd" clip-rule="evenodd" d="M79.101 118.734C79.101 120.878 75.8555 120.878 75.8555 118.734C75.8555 116.59 79.101 116.59 79.101 118.734Z" fill="white"/>
<path fill-rule="evenodd" clip-rule="evenodd" d="M84.9501 118.734C84.9501 120.878 81.7046 120.878 81.7046 118.734C81.7046 116.59 84.9501 116.59 84.9501 118.734Z" fill="white"/>
<path fill-rule="evenodd" clip-rule="evenodd" d="M90.7627 118.734C90.7627 120.878 87.5171 120.878 87.5171 118.734C87.5548 116.59 90.7627 116.59 90.7627 118.734Z" fill="white"/>
<path fill-rule="evenodd" clip-rule="evenodd" d="M96.6118 118.734C96.6118 120.878 93.3662 120.878 93.3662 118.734C93.3662 116.59 96.6118 116.59 96.6118 118.734Z" fill="white"/>
<path fill-rule="evenodd" clip-rule="evenodd" d="M108.273 118.734C108.273 120.878 105.028 120.878 105.028 118.734C105.066 116.59 108.273 116.59 108.273 118.734Z" fill="white"/>
<path fill-rule="evenodd" clip-rule="evenodd" d="M114.123 118.734C114.123 120.878 110.877 120.878 110.877 118.734C110.877 116.59 114.123 116.59 114.123 118.734Z" fill="white"/>
<path fill-rule="evenodd" clip-rule="evenodd" d="M119.972 118.734C119.972 120.878 116.727 120.878 116.727 118.734C116.727 116.59 119.972 116.59 119.972 118.734Z" fill="white"/>
<path fill-rule="evenodd" clip-rule="evenodd" d="M125.784 118.734C125.784 120.878 122.539 120.878 122.539 118.734C122.539 116.59 125.784 116.59 125.784 118.734Z" fill="white"/>
<path fill-rule="evenodd" clip-rule="evenodd" d="M131.634 118.734C131.634 120.878 128.388 120.878 128.388 118.734C128.388 116.59 131.634 116.59 131.634 118.734Z" fill="white"/>
<path fill-rule="evenodd" clip-rule="evenodd" d="M143.295 118.734C143.295 120.878 140.05 120.878 140.05 118.734C140.05 116.59 143.295 116.59 143.295 118.734Z" fill="white"/>
<path fill-rule="evenodd" clip-rule="evenodd" d="M149.144 118.734C149.144 120.878 145.899 120.878 145.899 118.734C145.899 116.59 149.144 116.59 149.144 118.734Z" fill="white"/>
<path fill-rule="evenodd" clip-rule="evenodd" d="M154.956 118.734C154.956 120.878 151.71 120.878 151.71 118.734C151.748 116.59 154.956 116.59 154.956 118.734Z" fill="white"/>
<path fill-rule="evenodd" clip-rule="evenodd" d="M160.806 118.734C160.806 120.878 157.561 120.878 157.561 118.734C157.561 116.59 160.806 116.59 160.806 118.734Z" fill="white"/>
<path fill-rule="evenodd" clip-rule="evenodd" d="M184.166 118.734C184.166 120.878 180.921 120.878 180.921 118.734C180.921 116.59 184.166 116.59 184.166 118.734Z" fill="white"/>
<path fill-rule="evenodd" clip-rule="evenodd" d="M20.7563 124.526C20.7563 126.669 17.5107 126.669 17.5107 124.526C17.5107 122.382 20.7563 122.382 20.7563 124.526Z" fill="white"/>
<path fill-rule="evenodd" clip-rule="evenodd" d="M26.5678 124.526C26.5678 126.669 23.3223 126.669 23.3223 124.526C23.36 122.382 26.5678 122.382 26.5678 124.526Z" fill="white"/>
<path fill-rule="evenodd" clip-rule="evenodd" d="M149.144 124.526C149.144 126.669 145.899 126.669 145.899 124.526C145.899 122.382 149.144 122.382 149.144 124.526Z" fill="white"/>
<path fill-rule="evenodd" clip-rule="evenodd" d="M154.956 124.526C154.956 126.669 151.71 126.669 151.71 124.526C151.748 122.382 154.956 122.382 154.956 124.526Z" fill="white"/>
<path fill-rule="evenodd" clip-rule="evenodd" d="M154.956 130.355C154.956 132.499 151.71 132.499 151.71 130.355C151.748 128.211 154.956 128.211 154.956 130.355Z" fill="white"/>
<path fill-rule="evenodd" clip-rule="evenodd" d="M149.144 136.184C149.144 138.328 145.899 138.328 145.899 136.184C145.899 134.041 149.144 134.003 149.144 136.184Z" fill="white"/>
<path fill-rule="evenodd" clip-rule="evenodd" d="M154.806 136.184C154.806 138.328 151.56 138.328 151.56 136.184C151.56 134.041 154.806 134.003 154.806 136.184Z" fill="white"/>
<path d="M11.247 156.87V161.796H10.5677V156.87H8.79395V156.268H12.983V156.87H11.247Z" fill="white"/>
<path d="M13.9264 156.305H16.1908C17.0965 156.305 17.6626 156.87 17.6626 157.735C17.6626 158.562 17.1342 158.863 16.7568 158.9V158.938C17.172 158.976 17.8513 159.314 17.8513 160.217C17.8513 161.119 17.2474 161.796 16.4172 161.796H13.8887V156.305H13.9264ZM14.6057 158.675H16.153C16.6814 158.675 16.9833 158.412 16.9833 157.923V157.659C16.9833 157.17 16.6814 156.907 16.153 156.907H14.6057V158.675ZM14.6057 161.232H16.2285C16.7946 161.232 17.1342 160.931 17.1342 160.367V160.104C17.1342 159.54 16.7946 159.239 16.2285 159.239H14.6057V161.232Z" fill="white"/>
<path d="M18.8325 159.051C18.8325 157.208 19.7383 156.193 21.1723 156.193C22.6064 156.193 23.5122 157.208 23.5122 159.051C23.5122 160.894 22.6064 161.909 21.1723 161.909C19.7383 161.909 18.8325 160.894 18.8325 159.051ZM22.7951 159.502V158.6C22.7951 157.509 22.1158 156.794 21.1723 156.794C20.2289 156.794 19.5496 157.509 19.5496 158.6V159.502C19.5496 160.593 20.2289 161.307 21.1723 161.307C22.1158 161.307 22.7951 160.593 22.7951 159.502Z" fill="white"/>
<path d="M24.7202 156.305H25.3618V159.766L25.2863 160.894H25.324L25.8901 159.916L28.2677 156.305H28.8715V161.834H28.2299V158.374L28.3054 157.246H28.2677L27.7016 158.224L25.324 161.834H24.7202V156.305ZM25.6637 155.14L25.5127 154.839L26.0788 154.575L26.343 155.215C26.4562 155.252 26.6449 155.252 26.7581 155.252C26.8713 155.252 27.06 155.252 27.1732 155.215L27.4374 154.575L28.0035 154.839L27.8526 155.14C27.6639 155.516 27.3242 155.741 26.7581 155.741C26.192 155.741 25.8901 155.516 25.6637 155.14Z" fill="white"/>
<path d="M32.1924 156.305H36.2305V161.834H35.5512V156.87H32.8717V161.796H32.1924V156.305Z" fill="white"/>
<path d="M37.7021 161.796V156.268H39.891C40.8722 156.268 41.4383 156.87 41.4383 157.847C41.4383 158.825 40.8722 159.427 39.891 159.427H38.3437V161.796H37.7021ZM38.3437 158.863H39.891C40.4194 158.863 40.7213 158.562 40.7213 158.073V157.659C40.7213 157.17 40.4194 156.87 39.891 156.87H38.3437V158.863Z" fill="white"/>
<path d="M42.231 159.051C42.231 157.208 43.1367 156.193 44.5708 156.193C46.0049 156.193 46.9106 157.208 46.9106 159.051C46.9106 160.894 46.0049 161.909 44.5708 161.909C43.1367 161.909 42.231 160.894 42.231 159.051ZM46.1936 159.502V158.6C46.1936 157.509 45.5142 156.794 44.5708 156.794C43.6273 156.794 42.948 157.509 42.948 158.6V159.502C42.948 160.593 43.6273 161.307 44.5708 161.307C45.5142 161.307 46.1936 160.593 46.1936 159.502Z" fill="white"/>
<path d="M48.1183 156.305H50.3827C51.2884 156.305 51.8545 156.87 51.8545 157.735C51.8545 158.562 51.3261 158.863 50.9487 158.9V158.938C51.3261 158.976 52.0432 159.314 52.0432 160.217C52.0432 161.119 51.4394 161.796 50.6091 161.796H48.0806V156.305H48.1183ZM48.7599 158.675H50.3072C50.8355 158.675 51.1374 158.412 51.1374 157.923V157.659C51.1374 157.17 50.8355 156.907 50.3072 156.907H48.7599V158.675ZM48.7599 161.232H50.3827C50.9487 161.232 51.2884 160.931 51.2884 160.367V160.104C51.2884 159.54 50.9487 159.239 50.3827 159.239H48.7599V161.232Z" fill="white"/>
<path d="M52.9858 159.051C52.9858 157.208 53.8916 156.193 55.3257 156.193C56.7598 156.193 57.6655 157.208 57.6655 159.051C57.6655 160.894 56.7598 161.909 55.3257 161.909C53.8916 161.909 52.9858 160.894 52.9858 159.051ZM56.9862 159.502V158.6C56.9862 157.509 56.3069 156.794 55.3634 156.794C54.4199 156.794 53.7406 157.509 53.7406 158.6V159.502C53.7406 160.593 54.4199 161.307 55.3634 161.307C56.3069 161.307 56.9862 160.593 56.9862 159.502Z" fill="white"/>
<path d="M58.0815 161.232H58.6476C59.1382 160.555 59.4024 159.54 59.4024 157.923V156.305H62.7235V161.232H63.516V163H62.9122V161.834H58.7231V163H58.1193V161.232H58.0815ZM62.0442 161.232V156.87H60.0062V157.96C60.0062 159.653 59.7798 160.63 59.4024 161.195V161.232H62.0442Z" fill="white"/>
<path d="M67.931 159.314H65.1383V161.796H64.459V156.268H65.1383V158.712H67.931V156.268H68.6103V161.796H67.931V159.314Z" fill="white"/>
<path d="M70.0822 156.305H70.7237V159.765L70.6483 160.894H70.686L71.2521 159.916L73.6296 156.305H74.2335V161.834H73.5919V158.374L73.6674 157.246H73.5919L73.0258 158.223L70.6483 161.834H70.0444V156.305H70.0822Z" fill="white"/>
<path d="M75.7056 156.305H76.3849V158.75H77.4793L78.5737 156.87C78.8002 156.456 79.0266 156.305 79.3662 156.305H79.7436V156.907H79.253L78.2718 158.6C78.0831 158.9 78.0076 158.976 77.8189 159.051V159.089C78.0454 159.126 78.2341 159.239 78.4228 159.577L79.4417 161.27H79.9323V161.872H79.4417C79.1775 161.872 78.9511 161.759 78.7247 161.345L77.517 159.352H76.4226V161.872H75.7433V156.305H75.7056Z" fill="white"/>
<path d="M82.7999 156.305H85.0643C85.97 156.305 86.5361 156.87 86.5361 157.735C86.5361 158.562 86.0077 158.863 85.6304 158.9V158.938C86.0455 158.976 86.7248 159.314 86.7248 160.217C86.7248 161.119 86.121 161.796 85.2907 161.796H82.7622V156.305H82.7999ZM83.4792 158.675H85.0265C85.5549 158.675 85.8568 158.412 85.8568 157.923V157.659C85.8568 157.17 85.5549 156.907 85.0265 156.907H83.4792V158.675ZM83.4792 161.232H85.102C85.6681 161.232 86.0077 160.931 86.0077 160.367V160.104C86.0077 159.54 85.6681 159.239 85.102 159.239H83.4792V161.232Z" fill="white"/>
<path d="M89.8579 156.305H90.7636L92.3487 159.277H92.3864L93.9715 156.305H94.8395V161.834H94.1979V157.208H94.1602L93.7073 158.148L92.3864 160.555L91.0656 158.148L90.6127 157.208H90.5749V161.834H89.9334V156.305H89.8579Z" fill="white"/>
<path d="M96.2729 156.305H96.9145V159.765L96.839 160.894H96.8768L97.4429 159.916L99.8204 156.305H100.424V161.834H99.7827V158.374L99.8582 157.246H99.8204L99.2543 158.223L96.8768 161.834H96.2729V156.305Z" fill="white"/>
<path d="M101.896 161.796V156.268H104.085C105.066 156.268 105.632 156.87 105.632 157.847C105.632 158.825 105.066 159.427 104.085 159.427H102.538V161.796H101.896ZM102.538 158.863H104.085C104.613 158.863 104.915 158.562 104.915 158.073V157.659C104.915 157.17 104.613 156.87 104.085 156.87H102.538V158.863Z" fill="white"/>
<path d="M108.576 156.305H111.973V156.907H109.255V158.524H110.916C111.897 158.524 112.463 159.126 112.463 160.179C112.463 161.232 111.897 161.834 110.916 161.834H108.614V156.305H108.576ZM110.878 161.232C111.407 161.232 111.708 160.931 111.708 160.367V159.954C111.708 159.389 111.407 159.089 110.878 159.089H109.218V161.232H110.878Z" fill="white"/>
<path d="M113.596 161.796V156.268H116.954V156.87H114.237V158.712H116.804V159.314H114.237V161.232H116.954V161.834H113.596V161.796Z" fill="white"/>
<path d="M117.709 160.931L118.2 160.555C118.539 161.044 118.992 161.345 119.634 161.345C120.426 161.345 120.879 161.044 120.879 160.367V160.254C120.879 159.69 120.502 159.314 119.709 159.314H118.879V158.712H119.671C120.464 158.712 120.766 158.412 120.766 157.772V157.622C120.766 157.095 120.426 156.794 119.671 156.794C118.992 156.794 118.615 157.058 118.351 157.434L117.822 157.095C118.2 156.531 118.728 156.193 119.634 156.193C120.841 156.193 121.407 156.757 121.407 157.622C121.407 158.374 120.992 158.788 120.351 158.938V158.976C120.992 159.051 121.521 159.427 121.521 160.254C121.521 161.232 120.766 161.872 119.558 161.872C118.728 161.909 118.124 161.533 117.709 160.931Z" fill="white"/>
<path d="M122.577 159.051C122.577 157.208 123.483 156.193 124.917 156.193C126.351 156.193 127.257 157.208 127.257 159.051C127.257 160.894 126.351 161.909 124.917 161.909C123.483 161.909 122.577 160.894 122.577 159.051ZM126.54 159.502V158.6C126.54 157.509 125.86 156.794 124.917 156.794C123.973 156.794 123.294 157.509 123.294 158.6V159.502C123.294 160.593 123.973 161.307 124.917 161.307C125.86 161.307 126.54 160.593 126.54 159.502Z" fill="white"/>
<path d="M128.464 156.305H132.465V161.834H131.786V156.87H129.106V161.796H128.427V156.305H128.464Z" fill="white"/>
<path d="M137.408 161.796L136.842 160.179H134.616L134.049 161.796H133.37L135.295 156.268H136.125L138.05 161.796H137.408ZM135.748 156.907H135.71L134.766 159.577H136.691L135.748 156.907Z" fill="white"/>
<path d="M138.616 159.089C138.616 157.246 139.446 156.193 140.842 156.193C141.748 156.193 142.39 156.644 142.729 157.396L142.201 157.735C141.974 157.17 141.522 156.794 140.842 156.794C139.899 156.794 139.333 157.547 139.333 158.675V159.502C139.333 160.631 139.899 161.307 140.842 161.307C141.559 161.307 142.012 160.931 142.239 160.33L142.767 160.668C142.427 161.458 141.748 161.909 140.842 161.909C139.446 161.909 138.616 160.931 138.616 159.089Z" fill="white"/>
<path d="M147.296 159.314H144.504V161.796H143.824V156.268H144.504V158.712H147.296V156.268H147.976V161.796H147.296V159.314Z" fill="white"/>
<path d="M149.145 159.051C149.145 157.208 150.051 156.193 151.485 156.193C152.919 156.193 153.825 157.208 153.825 159.051C153.825 160.894 152.919 161.909 151.485 161.909C150.051 161.909 149.145 160.894 149.145 159.051ZM153.145 159.502V158.6C153.145 157.509 152.466 156.794 151.523 156.794C150.579 156.794 149.9 157.509 149.9 158.6V159.502C149.9 160.593 150.579 161.307 151.523 161.307C152.466 161.307 153.145 160.593 153.145 159.502Z" fill="white"/>
<path d="M155.033 156.305H158.052V156.907H155.712V161.834H155.033V156.305Z" fill="white"/>
<path d="M158.467 159.051C158.467 157.208 159.373 156.193 160.807 156.193C162.241 156.193 163.147 157.208 163.147 159.051C163.147 160.894 162.241 161.909 160.807 161.909C159.373 161.909 158.467 160.894 158.467 159.051ZM162.43 159.502V158.6C162.43 157.509 161.751 156.794 160.807 156.794C159.864 156.794 159.184 157.509 159.184 158.6V159.502C159.184 160.593 159.864 161.307 160.807 161.307C161.751 161.307 162.43 160.593 162.43 159.502Z" fill="white"/>
<path d="M166.204 156.305H166.845V159.765L166.77 160.894H166.807L167.374 159.916L169.751 156.305H170.355V161.834H169.713V158.374L169.789 157.246H169.751L169.185 158.223L166.807 161.834H166.204V156.305Z" fill="white"/>
<path d="M175.298 159.314H172.468V161.796H171.789V156.268H172.468V158.712H175.261V156.268H175.94V161.796H175.261V159.314H175.298Z" fill="white"/>
<path d="M179.299 156.87V161.796H178.62V156.87H176.846V156.268H181.035V156.87H179.299Z" fill="white"/>
<path d="M181.94 161.796V156.268H185.299V156.87H182.582V158.712H185.148V159.314H182.582V161.232H185.299V161.834H181.94V161.796Z" fill="white"/>
<path d="M186.583 161.796V156.268H188.771C189.753 156.268 190.319 156.87 190.319 157.847C190.319 158.825 189.753 159.427 188.771 159.427H187.224V161.796H186.583ZM187.262 158.863H188.809C189.337 158.863 189.639 158.562 189.639 158.073V157.659C189.639 157.17 189.337 156.87 188.809 156.87H187.262V158.863Z" fill="white"/>
<path d="M194.847 159.314H192.054V161.796H191.375V156.268H192.054V158.712H194.847V156.268H195.526V161.796H194.847V159.314Z" fill="white"/>
<path d="M196.998 161.796V156.268H200.357V156.87H197.64V158.712H200.206V159.314H197.64V161.232H200.357V161.834H196.998V161.796Z" fill="white"/>
<path d="M203.452 156.87V161.796H202.772V156.87H200.999V156.268H205.188V156.87H203.452Z" fill="white"/>
<path d="M209.075 161.796L208.509 160.179H206.282L205.716 161.796H205.037L206.961 156.268H207.792L209.716 161.796H209.075ZM207.414 156.907H207.376L206.433 159.577H208.358L207.414 156.907Z" fill="white"/>
<path d="M8.83008 148.595V132.837H18.68V134.793H11.0567V139.682H18.1139V141.638H11.0567V146.677H18.7177V148.633H8.83008V148.595Z" fill="white"/>
<path d="M25.5864 148.595L20.3784 132.837H22.6805L25.2467 140.698L26.9073 146.414H27.0205L28.681 140.698L31.2472 132.837H33.4738L28.1904 148.595H25.5864Z" fill="white"/>
<path d="M44.8332 148.595L43.3237 144.158H37.1722L35.6626 148.595H33.436L38.9082 132.837H41.6631L47.1353 148.595H44.8332ZM40.3045 134.83H40.1913L37.7005 142.202H42.7953L40.3045 134.83Z" fill="white"/>
</svg>
