<svg width="29" height="29" viewBox="0 0 29 29" fill="none" xmlns="http://www.w3.org/2000/svg">
<path fill-rule="evenodd" clip-rule="evenodd" d="M27.1819 8.96613C27.9229 10.662 28.3334 12.5343 28.3334 14.4998C28.3334 22.1398 22.14 28.3332 14.5001 28.3332C6.86014 28.3332 0.666748 22.1398 0.666748 14.4998C0.666748 6.8599 6.86014 0.666504 14.5001 0.666504C17.6137 0.666504 20.4897 1.69639 22.802 3.43368C23.2436 3.76542 23.3326 4.3923 23.0008 4.83385C22.6691 5.27539 22.0422 5.36441 21.6007 5.03266C19.6228 3.54668 17.1657 2.6665 14.5001 2.6665C7.96471 2.6665 2.66675 7.96447 2.66675 14.4998C2.66675 21.0352 7.96471 26.3332 14.5001 26.3332C21.0354 26.3332 26.3334 21.0352 26.3334 14.4998C26.3334 12.815 25.9819 11.215 25.3492 9.76687C25.1281 9.26079 25.3591 8.67127 25.8652 8.45015C26.3713 8.22903 26.9608 8.46004 27.1819 8.96613Z" fill="black"/>
<path fill-rule="evenodd" clip-rule="evenodd" d="M11.056 13.3774C10.0965 14.177 10.0965 15.6507 11.056 16.4503L15.1019 19.8219C15.5262 20.1754 16.1567 20.1181 16.5103 19.6938C16.8639 19.2696 16.8065 18.639 16.3823 18.2854L12.3364 14.9139L16.3823 11.5423C16.8065 11.1887 16.8639 10.5582 16.5103 10.1339C16.1567 9.70963 15.5262 9.6523 15.1019 10.0059L11.056 13.3774Z" fill="black"/>
</svg>
