<svg width="30" height="30" viewBox="0 0 30 30" fill="none" xmlns="http://www.w3.org/2000/svg">
<path fill-rule="evenodd" clip-rule="evenodd" d="M15 2C7.8203 2 2 7.8203 2 15C2 17.1404 2.5165 19.1572 3.43078 20.9355C3.73179 21.5209 3.81272 22.2294 3.57709 22.8962L2.27749 26.5741C2.08704 27.1131 2.60622 27.6322 3.1452 27.4418L6.67683 26.1939C7.37042 25.9488 8.10784 26.0461 8.70632 26.3779C10.5701 27.4112 12.7148 28 15 28C22.1797 28 28 22.1797 28 15C28 12.6305 27.367 10.4118 26.2614 8.50072C25.9849 8.02266 26.1483 7.41094 26.6263 7.13439C27.1044 6.85785 27.7161 7.02121 27.9927 7.49927C29.2695 9.70659 30 12.2695 30 15C30 23.2843 23.2843 30 15 30C12.3669 30 9.88953 29.3207 7.73655 28.127C7.59301 28.0475 7.44954 28.042 7.34316 28.0796L3.81153 29.3275C1.68733 30.0781 -0.358848 28.0319 0.391755 25.9077L1.69135 22.2299C1.72752 22.1275 1.72415 21.9901 1.65211 21.85C0.595777 19.7955 0 17.4659 0 15C0 6.71573 6.71573 0 15 0C18.3763 0 21.4947 1.11671 24.002 3.00051C24.4436 3.33225 24.5326 3.95913 24.2009 4.40067C23.8691 4.84222 23.2422 4.93124 22.8007 4.59949C20.6278 2.967 17.9283 2 15 2Z" fill="black"/>
<path d="M9.82019 15.0696C9.82019 16.0361 9.03669 16.8196 8.07019 16.8196C7.10369 16.8196 6.32019 16.0361 6.32019 15.0696C6.32019 14.1031 7.10369 13.3196 8.07019 13.3196C9.03669 13.3196 9.82019 14.1031 9.82019 15.0696Z" fill="black"/>
<path d="M16.8202 15.0696C16.8202 16.0361 16.0367 16.8196 15.0702 16.8196C14.1037 16.8196 13.3202 16.0361 13.3202 15.0696C13.3202 14.1031 14.1037 13.3196 15.0702 13.3196C16.0367 13.3196 16.8202 14.1031 16.8202 15.0696Z" fill="black"/>
<path d="M23.8202 15.0696C23.8202 16.0361 23.0367 16.8196 22.0702 16.8196C21.1037 16.8196 20.3202 16.0361 20.3202 15.0696C20.3202 14.1031 21.1037 13.3196 22.0702 13.3196C23.0367 13.3196 23.8202 14.1031 23.8202 15.0696Z" fill="black"/>
</svg>
