<svg width="30" height="30" viewBox="0 0 30 30" fill="none" xmlns="http://www.w3.org/2000/svg">
<path fill-rule="evenodd" clip-rule="evenodd" d="M8.99963 1.24857C10.8384 0.445174 12.8685 0 15 0C23.2843 1.19209e-07 30 6.71573 30 15C30 23.2843 23.2843 30 15 30C6.71573 30 -1.19209e-07 23.2843 0 15C5.96051e-08 11.6237 1.11671 8.50529 3.00051 5.99796C3.33225 5.55641 3.95913 5.4674 4.40067 5.79914C4.84222 6.13089 4.93124 6.75776 4.59949 7.19931C2.967 9.37215 2 12.0717 2 15C2 22.1797 7.8203 28 15 28C22.1797 28 28 22.1797 28 15C28 7.8203 22.1797 2 15 2C13.1493 2 11.3914 2.38613 9.80037 3.08128C9.29428 3.30239 8.70477 3.07138 8.48365 2.56529C8.26253 2.05921 8.49354 1.46969 8.99963 1.24857Z" fill="black"/>
<path fill-rule="evenodd" clip-rule="evenodd" d="M13.9152 18.7828C14.7148 19.7423 16.1885 19.7423 16.9881 18.7828L20.736 14.2853C21.0896 13.861 21.0323 13.2304 20.608 12.8769C20.1837 12.5233 19.5531 12.5806 19.1996 13.0049L15.4517 17.5024L11.7038 13.0049C11.3502 12.5806 10.7196 12.5233 10.2954 12.8769C9.87109 13.2304 9.81376 13.861 10.1673 14.2853L13.9152 18.7828Z" fill="black"/>
</svg>
