<svg width="32" height="29" viewBox="0 0 32 29" fill="none" xmlns="http://www.w3.org/2000/svg">
<path fill-rule="evenodd" clip-rule="evenodd" d="M22.8854 2.04342C22.3685 1.98553 21.8468 1.98553 21.3298 2.04342C20.4573 2.14113 19.5974 2.40383 18.7953 2.8325C18.1216 3.1926 17.4863 3.67108 16.9173 4.27073C16.2756 4.94701 15.1981 4.94701 14.5564 4.27073C11.6835 1.24309 7.04861 1.24309 4.17578 4.27073C1.27474 7.3281 1.27474 12.3057 4.17578 15.3631L14.286 26.0182C15.0747 26.8493 16.399 26.8493 17.1877 26.0182L27.2979 15.3631C30.1989 12.3057 30.1989 7.3281 27.2979 4.27073C26.9178 3.8701 26.9344 3.23715 27.335 2.85701C27.7356 2.47686 28.3686 2.49346 28.7487 2.8941C32.382 6.72317 32.382 12.9107 28.7487 16.7397L18.6385 27.3948C17.0612 29.0571 14.4125 29.0571 12.8352 27.3948L2.72496 16.7397C-0.908318 12.9107 -0.90832 6.72317 2.72496 2.8941C6.29766 -0.87113 12.0581 -0.962429 15.7369 2.6202C16.3833 1.99074 17.0961 1.47293 17.8526 1.06864C18.88 0.519496 19.9845 0.181567 21.1072 0.0558438C21.7721 -0.0186145 22.4431 -0.0186146 23.108 0.0558438C23.6569 0.117307 24.052 0.612066 23.9905 1.16092C23.9291 1.70977 23.4343 2.10488 22.8854 2.04342Z" fill="black"/>
</svg>
