<svg width="40" height="30" viewBox="0 0 40 30" fill="none" xmlns="http://www.w3.org/2000/svg">
<path fill-rule="evenodd" clip-rule="evenodd" d="M19.1998 1C19.1998 0.447715 19.6475 0 20.1998 0C24.2867 0 27.5998 3.31307 27.5998 7.39994C27.5998 11.4868 24.2867 14.7999 20.1998 14.7999C16.1129 14.7999 12.7999 11.4868 12.7999 7.39994C12.7999 6.84766 13.2476 6.39994 13.7999 6.39994C14.3522 6.39994 14.7999 6.84766 14.7999 7.39994C14.7999 10.3822 17.2175 12.7999 20.1998 12.7999C23.1821 12.7999 25.5998 10.3822 25.5998 7.39994C25.5998 4.41764 23.1821 2 20.1998 2C19.6475 2 19.1998 1.55228 19.1998 1ZM28.8007 3.91992C28.8007 3.36764 29.2484 2.91992 29.8007 2.91992C33.1302 2.91992 35.8293 5.61898 35.8293 8.94845C35.8293 12.2779 33.1302 14.977 29.8007 14.977C29.2484 14.977 28.8007 14.5293 28.8007 13.977C28.8007 13.4247 29.2484 12.977 29.8007 12.977C32.0256 12.977 33.8293 11.1733 33.8293 8.94845C33.8293 6.72355 32.0256 4.91992 29.8007 4.91992C29.2484 4.91992 28.8007 4.47221 28.8007 3.91992ZM9.80065 4.92017C7.57576 4.92017 5.77212 6.7238 5.77212 8.94869C5.77212 11.1736 7.57576 12.9772 9.80065 12.9772C10.3529 12.9772 10.8006 13.4249 10.8006 13.9772C10.8006 14.5295 10.3529 14.9772 9.80065 14.9772C6.47119 14.9772 3.77212 12.2782 3.77212 8.94869C3.77212 5.61923 6.47119 2.92017 9.80065 2.92017C10.3529 2.92017 10.8006 3.36788 10.8006 3.92017C10.8006 4.47245 10.3529 4.92017 9.80065 4.92017ZM32.819 17.99C32.9237 17.4477 33.4481 17.0929 33.9904 17.1976C35.0886 17.4094 36.1746 17.7054 37.2387 18.0855C38.6553 18.5914 39.6009 19.9332 39.6009 21.4374V23.0911C39.6009 25.1925 37.7398 26.8066 35.6596 26.5094L35.1669 26.439C34.6201 26.3609 34.2402 25.8544 34.3183 25.3077C34.3965 24.7609 34.903 24.381 35.4497 24.4591L35.9424 24.5295C36.8177 24.6546 37.6009 23.9754 37.6009 23.0911V21.4374C37.6009 20.7784 37.1866 20.1906 36.5661 19.9689C35.5981 19.6232 34.6103 19.354 33.6115 19.1613C33.0692 19.0567 32.7144 18.5323 32.819 17.99ZM6.78234 17.9902C6.88696 18.5325 6.53217 19.057 5.98989 19.1616C4.99105 19.3543 4.00327 19.6235 3.03532 19.9692C2.41474 20.1908 2.00049 20.7786 2.00049 21.4376V23.0914C2.00049 23.9756 2.78363 24.6548 3.65896 24.5298L4.15166 24.4594C4.69839 24.3813 5.20492 24.7612 5.28303 25.3079C5.36114 25.8546 4.98124 26.3612 4.43451 26.4393L3.94181 26.5097L3.80038 25.5197L3.9418 26.5097C1.86161 26.8068 0.000488281 25.1927 0.000488281 23.0914V21.4376C0.000488281 19.9334 0.946083 18.5916 2.36265 18.0857C3.42678 17.7057 4.51279 17.4097 5.611 17.1978C6.15329 17.0932 6.67771 17.448 6.78234 17.9902ZM28.9019 21.1697C23.2747 19.16 17.1254 19.16 11.4982 21.1697C10.5998 21.4905 10.0002 22.3415 10.0002 23.2955V26.6939C10.0002 27.3025 10.5391 27.7699 11.1416 27.6839L16.2403 26.9555C18.8668 26.5803 21.5333 26.5803 24.1598 26.9555L29.2585 27.6839C29.861 27.7699 30.3999 27.3025 30.3999 26.6939V23.2955C30.3999 22.3415 29.8003 21.4905 28.9019 21.1697ZM10.8255 19.2862C16.8877 17.1211 23.5124 17.1211 29.5746 19.2862C31.2689 19.8913 32.3999 21.4963 32.3999 23.2955V26.6939C32.3999 28.5195 30.783 29.9219 28.9757 29.6638L23.877 28.9354C21.4381 28.587 18.962 28.587 16.5231 28.9354L11.4244 29.6638C9.61712 29.9219 8.00015 28.5196 8.00015 26.6939V23.2955C8.00015 21.4963 9.13118 19.8913 10.8255 19.2862Z" fill="black"/>
</svg>
