<svg width="30" height="31" viewBox="0 0 30 31" fill="none" xmlns="http://www.w3.org/2000/svg">
<path fill-rule="evenodd" clip-rule="evenodd" d="M21 5.50677C21 3.36635 18.4854 2.21569 16.8657 3.61491L12.5246 7.365C12.1066 7.72604 11.4751 7.67991 11.1141 7.26197C10.7531 6.84404 10.7992 6.21255 11.2171 5.85152L15.5583 2.10142C18.4738 -0.417171 23 1.65402 23 5.50677V7.69402L28.2929 2.4011C28.6834 2.01058 29.3166 2.01058 29.7071 2.4011C30.0976 2.79163 30.0976 3.42479 29.7071 3.81532L3.45711 30.0653C3.06658 30.4558 2.43342 30.4558 2.04289 30.0653C1.65237 29.6748 1.65237 29.0416 2.04289 28.6511L6.43853 24.2555H5.375C2.40646 24.2555 0 21.849 0 18.8805V13.1178C0 10.1492 2.40644 7.74277 5.37496 7.74275C5.92724 7.74274 6.37496 8.19046 6.37497 8.74274C6.37497 9.29503 5.92726 9.74274 5.37497 9.74275C3.51102 9.74276 2 11.2538 2 13.1178V18.8805C2 20.7444 3.51104 22.2555 5.375 22.2555H8C8.13012 22.2555 8.25444 22.2803 8.36846 22.3255L21 9.69402V5.50677ZM22 16.1082C22.5523 16.1082 23 16.5559 23 17.1082V26.4914C23 30.3441 18.4738 32.4153 15.5583 29.8967L15.0602 29.4664L12.6244 27.5134C12.1936 27.1679 12.1243 26.5385 12.4698 26.1076C12.8153 25.6768 13.4447 25.6075 13.8756 25.953L16.3399 27.929L16.8657 28.3832C18.4854 29.7824 21 28.6318 21 26.4914V17.1082C21 16.5559 21.4477 16.1082 22 16.1082Z" fill="black"/>
</svg>
