<svg width="31" height="32" viewBox="0 0 31 32" fill="none" xmlns="http://www.w3.org/2000/svg">
<path fill-rule="evenodd" clip-rule="evenodd" d="M21.0014 5.507C21.0014 3.36638 18.4866 2.21562 16.8667 3.61496L12.5253 7.36531C12.1073 7.72634 11.4759 7.68022 11.1148 7.26228C10.7538 6.84434 10.7999 6.21286 11.2179 5.85182L15.5593 2.10148C18.475 -0.417243 23.0014 1.65405 23.0014 5.507V26.493C23.0014 30.3459 18.475 32.4172 15.5593 29.8985L9.73255 24.8651C9.27839 24.4727 8.69826 24.2569 8.09811 24.2569H5.37529C2.40659 24.2569 0 21.8503 0 18.8816V13.1185C0 10.1498 2.40657 7.74322 5.37525 7.74319C5.92753 7.74319 6.37525 8.1909 6.37526 8.74319C6.37526 9.29547 5.92755 9.74319 5.37526 9.74319C3.51115 9.74321 2 11.2544 2 13.1185V18.8816C2 20.7457 3.51117 22.2569 5.37529 22.2569H8.09811C9.17834 22.2569 10.2225 22.6454 11.04 23.3516L16.8667 28.385C18.4866 29.7844 21.0014 28.6336 21.0014 26.493V5.507Z" fill="black"/>
<path fill-rule="evenodd" clip-rule="evenodd" d="M26.6509 9.95115C27.0925 9.61938 27.7194 9.70836 28.0511 10.1499C29.2757 11.7796 30.0018 13.8069 30.0018 16.001C30.0018 18.195 29.2757 20.2223 28.0511 21.852C27.7194 22.2936 27.0925 22.3825 26.6509 22.0508C26.2094 21.719 26.1204 21.0921 26.4522 20.6506C27.4255 19.3553 28.0018 17.7468 28.0018 16.001C28.0018 14.2551 27.4255 12.6466 26.4522 11.3513C26.1204 10.9098 26.2094 10.2829 26.6509 9.95115Z" fill="black"/>
</svg>
