<svg width="27" height="30" viewBox="0 0 27 30" fill="none" xmlns="http://www.w3.org/2000/svg">
<path fill-rule="evenodd" clip-rule="evenodd" d="M11.9564 2C10.4287 2 9.01024 2.45437 7.82497 3.2351C7.36376 3.5389 6.74358 3.41129 6.43978 2.95007C6.13598 2.48885 6.26359 1.86868 6.72481 1.56487C8.22663 0.575634 10.0258 0 11.9564 0C17.2151 0 21.4781 4.26299 21.4781 9.52165V12.4512C21.4781 13.0045 21.6559 13.5667 21.9678 14.1915C22.1929 14.6426 22.4519 15.0621 22.7329 15.5174C22.8575 15.7192 22.9864 15.928 23.1186 16.1498C23.6232 16.9958 23.9128 17.9851 23.9128 19.039C23.9128 21.7587 21.9643 24.1271 19.2241 24.5071C17.0087 24.8143 14.1938 25.1305 11.9564 25.1305C9.71905 25.1305 6.90414 24.8143 4.68869 24.5071C1.94848 24.1271 -1.19209e-07 21.7587 0 19.039C5.96046e-08 17.9851 0.289612 16.9958 0.794177 16.1498C0.926417 15.928 1.05532 15.7192 1.17988 15.5174C1.46095 15.0621 1.71988 14.6426 1.94506 14.1915C2.25692 13.5667 2.43477 13.0045 2.43477 12.4512V9.52165C2.43477 8.22331 2.69519 6.98325 3.16758 5.8528C3.38052 5.34321 3.96625 5.10274 4.47583 5.31569C4.98541 5.52863 5.22588 6.11435 5.01294 6.62393C4.64081 7.51446 4.43477 8.49272 4.43477 9.52165V12.4512C4.43477 13.4383 4.11626 14.3199 3.73451 15.0847C3.46688 15.6209 3.13234 16.1631 2.83197 16.6499C2.71861 16.8336 2.61011 17.0095 2.51191 17.1742C2.18695 17.7191 2 18.3557 2 19.039C2 20.8073 3.25805 22.2896 4.96339 22.526C7.1626 22.831 9.86403 23.1305 11.9564 23.1305C14.0488 23.1305 16.7502 22.831 18.9494 22.526C20.6548 22.2896 21.9128 20.8073 21.9128 19.039C21.9128 18.3557 21.7259 17.7191 21.4009 17.1742C21.3027 17.0095 21.1942 16.8337 21.0808 16.6499C20.7805 16.1631 20.4459 15.6209 20.1783 15.0847C19.7966 14.32 19.4781 13.4383 19.4781 12.4512V9.52165C19.4781 5.36756 16.1105 2 11.9564 2Z" fill="black"/>
<path fill-rule="evenodd" clip-rule="evenodd" d="M15.5537 26.5345C15.0938 26.2287 14.4731 26.3536 14.1673 26.8135C13.6904 27.5307 12.8781 27.9998 11.9566 27.9998C11.035 27.9998 10.2227 27.5307 9.74585 26.8135C9.44006 26.3536 8.81935 26.2287 8.35944 26.5345C7.89954 26.8402 7.7746 27.461 8.08039 27.9209C8.91215 29.1718 10.3374 29.9998 11.9566 29.9998C13.5757 29.9998 15.001 29.1718 15.8327 27.9209C16.1385 27.461 16.0136 26.8402 15.5537 26.5345Z" fill="black"/>
<path d="M26.4543 3.12121C26.4543 4.29272 25.5046 5.24241 24.3331 5.24241C23.1616 5.24241 22.2119 4.29272 22.2119 3.12121C22.2119 1.9497 23.1616 1 24.3331 1C25.5046 1 26.4543 1.9497 26.4543 3.12121Z" fill="black"/>
</svg>
