<svg xmlns="http://www.w3.org/2000/svg" fill="none" viewBox="0 0 225 163">
  <path fill="#fff" fill-rule="evenodd" d="M96.612 1.608c0 2.144-3.246 2.144-3.246 0s3.246-2.144 3.246 0Zm-5.85 5.829c0 2.144-3.245 2.144-3.245 0 .038-2.181 3.245-2.181 3.245 0Zm5.85 0c0 2.144-3.246 2.144-3.246 0 0-2.181 3.246-2.181 3.246 0Zm5.849 0c0 2.144-3.245 2.144-3.245 0 0-2.181 3.245-2.181 3.245 0Zm-5.849 5.792c0 2.144-3.246 2.144-3.246 0s3.246-2.144 3.246 0Zm5.849 0c0 2.144-3.245 2.144-3.245 0s3.245-2.144 3.245 0Zm5.812 5.829c0 2.144-3.245 2.144-3.245 0 0-2.143 3.245-2.143 3.245 0Zm0 5.83c0 2.143-3.245 2.143-3.245 0 0-2.144 3.245-2.182 3.245 0ZM55.778 30.68c0 2.143-3.245 2.143-3.245 0 0-2.144 3.245-2.144 3.245 0Zm52.495 0c0 2.143-3.245 2.143-3.245 0 0-2.144 3.245-2.144 3.245 0Zm5.85 0c0 2.143-3.246 2.143-3.246 0 0-2.144 3.246-2.144 3.246 0Zm5.849 0c0 2.143-3.245 2.143-3.245 0 0-2.144 3.245-2.144 3.245 0Zm-75.893 5.83c0 2.143-3.246 2.143-3.246 0 .038-2.145 3.246-2.145 3.246 0Zm5.85 0c0 2.143-3.245 2.143-3.245 0 0-2.145 3.245-2.145 3.245 0Zm40.833 0c0 2.143-3.245 2.143-3.245 0 .038-2.145 3.245-2.145 3.245 0Zm5.85 0c0 2.143-3.246 2.143-3.246 0 0-2.145 3.246-2.145 3.246 0Zm5.849 0c0 2.143-3.245 2.143-3.245 0 0-2.145 3.245-2.145 3.245 0Zm5.812 0c0 2.143-3.245 2.143-3.245 0 .038-2.145 3.245-2.145 3.245 0Zm5.85 0c0 2.143-3.246 2.143-3.246 0 0-2.145 3.246-2.145 3.246 0Zm5.849 0c0 2.143-3.245 2.143-3.245 0 0-2.145 3.245-2.145 3.245 0Zm34.984 0c0 2.143-3.245 2.143-3.245 0 .037-2.145 3.245-2.145 3.245 0Zm5.85 0c0 2.143-3.245 2.143-3.245 0 0-2.145 3.245-2.145 3.245 0ZM44.079 42.301c0 2.144-3.246 2.144-3.246 0 .038-2.144 3.246-2.144 3.246 0Zm40.871 0c0 2.144-3.245 2.144-3.245 0s3.245-2.144 3.245 0Zm5.812 0c0 2.144-3.245 2.144-3.245 0 .038-2.144 3.245-2.144 3.245 0Zm5.85 0c0 2.144-3.246 2.144-3.246 0s3.246-2.144 3.246 0Zm5.849 0c0 2.144-3.245 2.144-3.245 0s3.245-2.144 3.245 0Zm5.812 0c0 2.144-3.245 2.144-3.245 0 .038-2.144 3.245-2.144 3.245 0Zm5.85 0c0 2.144-3.246 2.144-3.246 0s3.246-2.144 3.246 0Zm5.849 0c0 2.144-3.245 2.144-3.245 0s3.245-2.144 3.245 0ZM61.59 48.13c0 2.144-3.246 2.144-3.246 0 0-2.143 3.246-2.143 3.246 0Zm17.51 0c0 2.144-3.245 2.144-3.245 0 0-2.143 3.246-2.143 3.246 0Zm5.85 0c0 2.144-3.245 2.144-3.245 0 0-2.143 3.245-2.143 3.245 0Zm5.812 0c0 2.144-3.245 2.144-3.245 0 .038-2.143 3.245-2.143 3.245 0Zm5.85 0c0 2.144-3.246 2.144-3.246 0 0-2.143 3.246-2.143 3.246 0Zm5.849 0c0 2.144-3.245 2.144-3.245 0 0-2.143 3.245-2.143 3.245 0Zm5.812 0c0 2.144-3.245 2.144-3.245 0 .038-2.143 3.245-2.143 3.245 0Zm11.699 0c0 2.144-3.245 2.144-3.245 0 0-2.143 3.245-2.143 3.245 0Zm5.812 0c0 2.144-3.245 2.144-3.245 0 0-2.143 3.245-2.143 3.245 0Zm11.699 0c0 2.144-3.245 2.144-3.245 0 0-2.143 3.245-2.143 3.245 0Zm23.323 0c0 2.144-3.245 2.144-3.245 0 0-2.143 3.245-2.143 3.245 0ZM38.267 53.96c0 2.144-3.245 2.144-3.245 0 0-2.181 3.245-2.181 3.245 0Zm23.323 0c0 2.144-3.246 2.144-3.246 0 0-2.181 3.246-2.181 3.246 0Zm11.7 0c0 2.144-3.246 2.144-3.246 0 0-2.181 3.245-2.181 3.245 0Zm5.81 0c0 2.144-3.245 2.144-3.245 0 0-2.181 3.246-2.181 3.246 0Zm5.85 0c0 2.144-3.245 2.144-3.245 0 0-2.181 3.245-2.181 3.245 0Zm5.812 0c0 2.144-3.245 2.144-3.245 0 .038-2.181 3.245-2.181 3.245 0Zm5.85 0c0 2.144-3.246 2.144-3.246 0 0-2.181 3.246-2.181 3.246 0Zm5.849 0c0 2.144-3.245 2.144-3.245 0 0-2.181 3.245-2.181 3.245 0Zm5.812 0c0 2.144-3.245 2.144-3.245 0 .038-2.181 3.245-2.181 3.245 0Zm5.85 0c0 2.144-3.246 2.144-3.246 0 0-2.181 3.246-2.181 3.246 0Zm5.849 0c0 2.144-3.245 2.144-3.245 0 0-2.181 3.245-2.181 3.245 0Zm5.812 0c0 2.144-3.245 2.144-3.245 0 0-2.181 3.245-2.181 3.245 0Zm5.85 0c0 2.144-3.246 2.144-3.246 0 0-2.181 3.246-2.181 3.246 0Zm5.849 0c0 2.144-3.245 2.144-3.245 0 0-2.181 3.245-2.181 3.245 0Zm5.812 0c0 2.144-3.245 2.144-3.245 0 0-2.181 3.245-2.181 3.245 0Zm17.511 0c0 2.144-3.245 2.144-3.245 0 0-2.181 3.245-2.181 3.245 0Zm5.85 0c0 2.144-3.246 2.144-3.246 0 0-2.181 3.246-2.181 3.246 0ZM38.267 59.752c0 2.143-3.245 2.143-3.245 0 0-2.144 3.245-2.144 3.245 0Zm23.323 0c0 2.143-3.246 2.143-3.246 0 0-2.144 3.246-2.144 3.246 0Zm5.85 0c0 2.143-3.246 2.143-3.246 0 0-2.144 3.245-2.144 3.245 0Zm5.85 0c0 2.143-3.246 2.143-3.246 0 0-2.144 3.245-2.144 3.245 0Zm11.66 0c0 2.143-3.245 2.143-3.245 0 0-2.144 3.245-2.144 3.245 0Zm5.812 0c0 2.143-3.245 2.143-3.245 0 .038-2.144 3.245-2.144 3.245 0Zm5.85 0c0 2.143-3.246 2.143-3.246 0 0-2.144 3.246-2.144 3.246 0Zm5.849 0c0 2.143-3.245 2.143-3.245 0 0-2.144 3.245-2.144 3.245 0Zm5.812 0c0 2.143-3.245 2.143-3.245 0 .038-2.144 3.245-2.144 3.245 0Zm5.85 0c0 2.143-3.246 2.143-3.246 0 0-2.144 3.246-2.144 3.246 0Zm5.849 0c0 2.143-3.245 2.143-3.245 0 0-2.144 3.245-2.144 3.245 0Zm5.812 0c0 2.143-3.245 2.143-3.245 0 0-2.144 3.245-2.144 3.245 0Zm5.85 0c0 2.143-3.246 2.143-3.246 0 0-2.144 3.246-2.144 3.246 0Zm5.849 0c0 2.143-3.245 2.143-3.245 0 0-2.144 3.245-2.144 3.245 0Zm5.812 0c0 2.143-3.245 2.143-3.245 0 0-2.144 3.245-2.144 3.245 0Zm5.85 0c0 2.143-3.246 2.143-3.246 0 0-2.144 3.246-2.144 3.246 0Zm5.811 0c0 2.143-3.245 2.143-3.245 0 .037-2.144 3.245-2.144 3.245 0Zm5.85 0c0 2.143-3.245 2.143-3.245 0 0-2.144 3.245-2.144 3.245 0Zm5.85 0c0 2.143-3.246 2.143-3.246 0 0-2.144 3.246-2.144 3.246 0Zm5.811 0c0 2.143-3.245 2.143-3.245 0 .037-2.144 3.245-2.144 3.245 0Zm11.7 0c0 2.143-3.246 2.143-3.246 0 0-2.144 3.246-2.144 3.246 0Zm29.171 0c0 2.143-3.245 2.143-3.245 0 0-2.144 3.245-2.144 3.245 0ZM9.058 65.581c0 2.144-3.246 2.144-3.246 0 0-2.143 3.246-2.143 3.246 0Zm40.871 0c0 2.144-3.245 2.144-3.245 0 0-2.143 3.245-2.143 3.245 0Zm11.661 0c0 2.144-3.246 2.144-3.246 0 0-2.143 3.246-2.143 3.246 0Zm5.85 0c0 2.144-3.246 2.144-3.246 0 0-2.143 3.245-2.143 3.245 0Zm5.85 0c0 2.144-3.246 2.144-3.246 0 0-2.143 3.245-2.143 3.245 0Zm5.81 0c0 2.144-3.245 2.144-3.245 0 0-2.143 3.246-2.143 3.246 0Zm5.85 0c0 2.144-3.245 2.144-3.245 0 0-2.143 3.245-2.143 3.245 0Zm5.812 0c0 2.144-3.245 2.144-3.245 0 0-2.143 3.245-2.143 3.245 0Zm5.85 0c0 2.144-3.246 2.144-3.246 0 0-2.143 3.246-2.143 3.246 0Zm5.849 0c0 2.144-3.245 2.144-3.245 0 0-2.143 3.245-2.143 3.245 0Zm5.812 0c0 2.144-3.245 2.144-3.245 0 0-2.143 3.245-2.143 3.245 0Zm5.85 0c0 2.144-3.246 2.144-3.246 0 0-2.143 3.246-2.143 3.246 0Zm5.849 0c0 2.144-3.245 2.144-3.245 0 0-2.143 3.245-2.143 3.245 0Zm5.812 0c0 2.144-3.245 2.144-3.245 0 0-2.143 3.245-2.143 3.245 0Zm5.85 0c0 2.144-3.246 2.144-3.246 0 0-2.143 3.246-2.143 3.246 0Zm5.849 0c0 2.144-3.245 2.144-3.245 0 0-2.143 3.245-2.143 3.245 0Zm5.812 0c0 2.144-3.245 2.144-3.245 0 0-2.143 3.245-2.143 3.245 0Zm5.85 0c0 2.144-3.246 2.144-3.246 0 0-2.143 3.246-2.143 3.246 0Zm5.811 0c0 2.144-3.245 2.144-3.245 0 0-2.143 3.245-2.143 3.245 0Zm5.85 0c0 2.144-3.245 2.144-3.245 0 0-2.143 3.245-2.143 3.245 0Zm5.85 0c0 2.144-3.246 2.144-3.246 0 0-2.143 3.246-2.143 3.246 0Zm5.811 0c0 2.144-3.245 2.144-3.245 0 0-2.143 3.245-2.143 3.245 0Zm5.849 0c0 2.144-3.245 2.144-3.245 0 0-2.143 3.245-2.143 3.245 0Zm5.851 0c0 2.144-3.246 2.144-3.246 0 0-2.143 3.246-2.143 3.246 0Zm5.811 0c0 2.144-3.246 2.144-3.246 0 0-2.143 3.246-2.143 3.246 0Zm5.849 0c0 2.144-3.245 2.144-3.245 0 0-2.143 3.245-2.143 3.245 0Zm5.851 0c0 2.144-3.246 2.144-3.246 0 0-2.143 3.246-2.143 3.246 0Zm5.811 0c0 2.144-3.246 2.144-3.246 0 0-2.143 3.246-2.143 3.246 0ZM9.058 71.41c0 2.145-3.246 2.145-3.246 0 .038-2.18 3.246-2.18 3.246 0Zm5.849 0c0 2.145-3.245 2.145-3.245 0 0-2.18 3.245-2.18 3.245 0Zm11.661 0c0 2.145-3.246 2.145-3.246 0 .038-2.18 3.246-2.18 3.246 0Zm5.85 0c0 2.145-3.245 2.145-3.245 0 0-2.18 3.245-2.18 3.245 0Zm5.849 0c0 2.145-3.245 2.145-3.245 0 0-2.18 3.245-2.18 3.245 0Zm5.812 0c0 2.145-3.246 2.145-3.246 0 .038-2.18 3.246-2.18 3.246 0Zm5.85 0c0 2.145-3.245 2.145-3.245 0 0-2.18 3.245-2.18 3.245 0Zm5.849 0c0 2.145-3.245 2.145-3.245 0 0-2.18 3.245-2.18 3.245 0Zm5.812 0c0 2.145-3.246 2.145-3.246 0 0-2.18 3.246-2.18 3.246 0Zm5.85 0c0 2.145-3.246 2.145-3.246 0 0-2.18 3.245-2.18 3.245 0Zm5.85 0c0 2.145-3.246 2.145-3.246 0 0-2.18 3.245-2.18 3.245 0Zm5.81 0c0 2.145-3.245 2.145-3.245 0 0-2.18 3.246-2.18 3.246 0Zm5.85 0c0 2.145-3.245 2.145-3.245 0 0-2.18 3.245-2.18 3.245 0Zm5.812 0c0 2.145-3.245 2.145-3.245 0 .038-2.18 3.245-2.18 3.245 0Zm5.85 0c0 2.145-3.246 2.145-3.246 0 0-2.18 3.246-2.18 3.246 0Zm5.849 0c0 2.145-3.245 2.145-3.245 0 0-2.18 3.245-2.18 3.245 0Zm5.812 0c0 2.145-3.245 2.145-3.245 0 .038-2.18 3.245-2.18 3.245 0Zm5.85 0c0 2.145-3.246 2.145-3.246 0 0-2.18 3.246-2.18 3.246 0Zm5.849 0c0 2.145-3.245 2.145-3.245 0 0-2.18 3.245-2.18 3.245 0Zm5.812 0c0 2.145-3.245 2.145-3.245 0 0-2.18 3.245-2.18 3.245 0Zm5.85 0c0 2.145-3.246 2.145-3.246 0 0-2.18 3.246-2.18 3.246 0Zm5.849 0c0 2.145-3.245 2.145-3.245 0 0-2.18 3.245-2.18 3.245 0Zm5.812 0c0 2.145-3.245 2.145-3.245 0 0-2.18 3.245-2.18 3.245 0Zm5.85 0c0 2.145-3.246 2.145-3.246 0 0-2.18 3.246-2.18 3.246 0Zm5.811 0c0 2.145-3.245 2.145-3.245 0 .037-2.18 3.245-2.18 3.245 0Zm5.85 0c0 2.145-3.245 2.145-3.245 0 0-2.18 3.245-2.18 3.245 0Zm5.85 0c0 2.145-3.246 2.145-3.246 0 0-2.18 3.246-2.18 3.246 0Zm5.811 0c0 2.145-3.245 2.145-3.245 0 .037-2.18 3.245-2.18 3.245 0Zm5.849 0c0 2.145-3.245 2.145-3.245 0 0-2.18 3.245-2.18 3.245 0Zm5.851 0c0 2.145-3.246 2.145-3.246 0 0-2.18 3.246-2.18 3.246 0Zm17.511 0c0 2.145-3.246 2.145-3.246 0 0-2.18 3.246-2.18 3.246 0Zm5.811 0c0 2.145-3.246 2.145-3.246 0 0-2.18 3.246-2.18 3.246 0Zm5.849 0c0 2.145-3.245 2.145-3.245 0 0-2.18 3.245-2.18 3.245 0Zm5.85 0c0 2.145-3.246 2.145-3.246 0 0-2.18 3.246-2.18 3.246 0ZM9.058 77.203c0 2.143-3.246 2.143-3.246 0 0-2.144 3.246-2.144 3.246 0Zm5.849 0c0 2.143-3.245 2.143-3.245 0 0-2.144 3.245-2.144 3.245 0Zm11.661 0c0 2.143-3.246 2.143-3.246 0 0-2.144 3.246-2.144 3.246 0Zm5.85 0c0 2.143-3.245 2.143-3.245 0 0-2.144 3.245-2.144 3.245 0Zm5.849 0c0 2.143-3.245 2.143-3.245 0 0-2.144 3.245-2.144 3.245 0Zm5.812 0c0 2.143-3.246 2.143-3.246 0 0-2.144 3.246-2.144 3.246 0Zm5.85 0c0 2.143-3.245 2.143-3.245 0 0-2.144 3.245-2.144 3.245 0Zm5.849 0c0 2.143-3.245 2.143-3.245 0 0-2.144 3.245-2.144 3.245 0Zm11.662 0c0 2.143-3.246 2.143-3.246 0 0-2.144 3.245-2.144 3.245 0Zm5.85 0c0 2.143-3.246 2.143-3.246 0 0-2.144 3.245-2.144 3.245 0Zm5.81 0c0 2.143-3.245 2.143-3.245 0 0-2.144 3.246-2.144 3.246 0Zm5.85 0c0 2.143-3.245 2.143-3.245 0 0-2.144 3.245-2.144 3.245 0Zm5.812 0c0 2.143-3.245 2.143-3.245 0 0-2.144 3.245-2.144 3.245 0Zm5.85 0c0 2.143-3.246 2.143-3.246 0 0-2.144 3.246-2.144 3.246 0Zm5.849 0c0 2.143-3.245 2.143-3.245 0 0-2.144 3.245-2.144 3.245 0Zm5.812 0c0 2.143-3.245 2.143-3.245 0 0-2.144 3.245-2.144 3.245 0Zm5.85 0c0 2.143-3.246 2.143-3.246 0 0-2.144 3.246-2.144 3.246 0Zm5.849 0c0 2.143-3.245 2.143-3.245 0 0-2.144 3.245-2.144 3.245 0Zm5.812 0c0 2.143-3.245 2.143-3.245 0 0-2.144 3.245-2.144 3.245 0Zm5.85 0c0 2.143-3.246 2.143-3.246 0 0-2.144 3.246-2.144 3.246 0Zm5.849 0c0 2.143-3.245 2.143-3.245 0 0-2.144 3.245-2.144 3.245 0Zm5.812 0c0 2.143-3.245 2.143-3.245 0 0-2.144 3.245-2.144 3.245 0Zm5.85 0c0 2.143-3.246 2.143-3.246 0 0-2.144 3.246-2.144 3.246 0Zm5.811 0c0 2.143-3.245 2.143-3.245 0 0-2.144 3.245-2.144 3.245 0Zm5.85 0c0 2.143-3.245 2.143-3.245 0 0-2.144 3.245-2.144 3.245 0Zm5.85 0c0 2.143-3.246 2.143-3.246 0 0-2.144 3.246-2.144 3.246 0Zm5.811 0c0 2.143-3.245 2.143-3.245 0 0-2.144 3.245-2.144 3.245 0Zm5.849 0c0 2.143-3.245 2.143-3.245 0 0-2.144 3.245-2.144 3.245 0Zm5.851 0c0 2.143-3.246 2.143-3.246 0 0-2.144 3.246-2.144 3.246 0Zm17.511 0c0 2.143-3.246 2.143-3.246 0 0-2.144 3.246-2.144 3.246 0Zm5.811 0c0 2.143-3.246 2.143-3.246 0 0-2.144 3.246-2.144 3.246 0Zm5.849 0c0 2.143-3.245 2.143-3.245 0 0-2.144 3.245-2.144 3.245 0Zm5.85 0c0 2.143-3.246 2.143-3.246 0 0-2.144 3.246-2.144 3.246 0Zm5.812 0c0 2.143-3.246 2.143-3.246 0 0-2.144 3.246-2.144 3.246 0ZM9.058 83.032c0 2.144-3.246 2.144-3.246 0 .038-2.144 3.246-2.144 3.246 0Zm5.849 0c0 2.144-3.245 2.144-3.245 0s3.245-2.144 3.245 0Zm5.849 0c0 2.144-3.245 2.144-3.245 0s3.245-2.144 3.245 0Zm5.812 0c0 2.144-3.246 2.144-3.246 0 .038-2.144 3.246-2.144 3.246 0Zm5.85 0c0 2.144-3.245 2.144-3.245 0s3.245-2.144 3.245 0Zm5.849 0c0 2.144-3.245 2.144-3.245 0s3.245-2.144 3.245 0Zm5.812 0c0 2.144-3.246 2.144-3.246 0 .038-2.144 3.246-2.144 3.246 0Zm5.85 0c0 2.144-3.245 2.144-3.245 0s3.245-2.144 3.245 0Zm5.849 0c0 2.144-3.245 2.144-3.245 0s3.245-2.144 3.245 0Zm5.812 0c0 2.144-3.246 2.144-3.246 0s3.246-2.144 3.246 0Zm5.85 0c0 2.144-3.246 2.144-3.246 0s3.245-2.144 3.245 0Zm5.85 0c0 2.144-3.246 2.144-3.246 0s3.245-2.144 3.245 0Zm5.81 0c0 2.144-3.245 2.144-3.245 0s3.246-2.144 3.246 0Zm5.85 0c0 2.144-3.245 2.144-3.245 0s3.245-2.144 3.245 0Zm5.812 0c0 2.144-3.245 2.144-3.245 0 .038-2.144 3.245-2.144 3.245 0Zm5.85 0c0 2.144-3.246 2.144-3.246 0s3.246-2.144 3.246 0Zm5.849 0c0 2.144-3.245 2.144-3.245 0s3.245-2.144 3.245 0Zm17.511 0c0 2.144-3.245 2.144-3.245 0s3.245-2.144 3.245 0Zm5.812 0c0 2.144-3.245 2.144-3.245 0s3.245-2.144 3.245 0Zm5.85 0c0 2.144-3.246 2.144-3.246 0s3.246-2.144 3.246 0Zm5.849 0c0 2.144-3.245 2.144-3.245 0s3.245-2.144 3.245 0Zm17.473 0c0 2.144-3.245 2.144-3.245 0 .037-2.144 3.245-2.144 3.245 0Zm5.85 0c0 2.144-3.245 2.144-3.245 0s3.245-2.144 3.245 0Zm5.85 0c0 2.144-3.246 2.144-3.246 0s3.246-2.144 3.246 0Zm5.811 0c0 2.144-3.245 2.144-3.245 0 .037-2.144 3.245-2.144 3.245 0Zm5.849 0c0 2.144-3.245 2.144-3.245 0s3.245-2.144 3.245 0Zm5.851 0c0 2.144-3.246 2.144-3.246 0s3.246-2.144 3.246 0Zm5.811 0c0 2.144-3.246 2.144-3.246 0 .038-2.144 3.246-2.144 3.246 0Zm5.849 0c0 2.144-3.245 2.144-3.245 0s3.245-2.144 3.245 0Zm5.851 0c0 2.144-3.246 2.144-3.246 0s3.246-2.144 3.246 0Zm5.811 0c0 2.144-3.246 2.144-3.246 0s3.246-2.144 3.246 0Zm5.849 0c0 2.144-3.245 2.144-3.245 0s3.245-2.144 3.245 0Zm11.662 0c0 2.144-3.246 2.144-3.246 0s3.246-2.144 3.246 0ZM9.058 88.862c0 2.143-3.246 2.143-3.246 0 .038-2.182 3.246-2.182 3.246 0Zm5.849 0c0 2.143-3.245 2.143-3.245 0 0-2.182 3.245-2.182 3.245 0Zm5.849 0c0 2.143-3.245 2.143-3.245 0 0-2.182 3.245-2.182 3.245 0Zm5.812 0c0 2.143-3.246 2.143-3.246 0 .038-2.182 3.246-2.182 3.246 0Zm5.85 0c0 2.143-3.245 2.143-3.245 0 0-2.182 3.245-2.182 3.245 0Zm5.849 0c0 2.143-3.245 2.143-3.245 0 0-2.182 3.245-2.182 3.245 0Zm5.812 0c0 2.143-3.246 2.143-3.246 0 .038-2.182 3.246-2.182 3.246 0Zm5.85 0c0 2.143-3.245 2.143-3.245 0 0-2.182 3.245-2.182 3.245 0Zm5.849 0c0 2.143-3.245 2.143-3.245 0 0-2.182 3.245-2.182 3.245 0Zm5.812 0c0 2.143-3.246 2.143-3.246 0 0-2.182 3.246-2.182 3.246 0Zm5.85 0c0 2.143-3.246 2.143-3.246 0 0-2.182 3.245-2.182 3.245 0Zm5.85 0c0 2.143-3.246 2.143-3.246 0 0-2.182 3.245-2.182 3.245 0Zm5.81 0c0 2.143-3.245 2.143-3.245 0 0-2.182 3.246-2.182 3.246 0Zm5.85 0c0 2.143-3.245 2.143-3.245 0 0-2.182 3.245-2.182 3.245 0Zm5.812 0c0 2.143-3.245 2.143-3.245 0 .038-2.182 3.245-2.182 3.245 0Zm5.85 0c0 2.143-3.246 2.143-3.246 0 0-2.182 3.246-2.182 3.246 0Zm5.849 0c0 2.143-3.245 2.143-3.245 0 0-2.182 3.245-2.182 3.245 0Zm17.511 0c0 2.143-3.245 2.143-3.245 0 0-2.182 3.245-2.182 3.245 0Zm5.812 0c0 2.143-3.245 2.143-3.245 0 0-2.182 3.245-2.182 3.245 0Zm5.85 0c0 2.143-3.246 2.143-3.246 0 0-2.182 3.246-2.182 3.246 0Zm5.849 0c0 2.143-3.245 2.143-3.245 0 0-2.182 3.245-2.182 3.245 0Zm17.473 0c0 2.143-3.245 2.143-3.245 0 .037-2.182 3.245-2.182 3.245 0Zm5.85 0c0 2.143-3.245 2.143-3.245 0 0-2.182 3.245-2.182 3.245 0Zm5.85 0c0 2.143-3.246 2.143-3.246 0 0-2.182 3.246-2.182 3.246 0Zm5.811 0c0 2.143-3.245 2.143-3.245 0 .037-2.182 3.245-2.182 3.245 0Zm5.849 0c0 2.143-3.245 2.143-3.245 0 0-2.182 3.245-2.182 3.245 0Zm5.851 0c0 2.143-3.246 2.143-3.246 0 0-2.182 3.246-2.182 3.246 0Zm5.811 0c0 2.143-3.246 2.143-3.246 0 .038-2.182 3.246-2.182 3.246 0Zm5.849 0c0 2.143-3.245 2.143-3.245 0 0-2.182 3.245-2.182 3.245 0Zm5.851 0c0 2.143-3.246 2.143-3.246 0 0-2.182 3.246-2.182 3.246 0Zm5.811 0c0 2.143-3.246 2.143-3.246 0 0-2.182 3.246-2.182 3.246 0Zm5.849 0c0 2.143-3.245 2.143-3.245 0 0-2.182 3.245-2.182 3.245 0ZM3.246 94.653c0 2.144-3.246 2.144-3.246 0s3.246-2.144 3.246 0Zm5.812 0c0 2.144-3.246 2.144-3.246 0 .038-2.144 3.246-2.144 3.246 0Zm5.849 0c0 2.144-3.245 2.144-3.245 0s3.245-2.144 3.245 0Zm5.849 0c0 2.144-3.245 2.144-3.245 0s3.245-2.144 3.245 0Zm5.812 0c0 2.144-3.246 2.144-3.246 0 .038-2.144 3.246-2.144 3.246 0Zm11.699 0c0 2.144-3.245 2.144-3.245 0s3.245-2.144 3.245 0Zm5.812 0c0 2.144-3.246 2.144-3.246 0 .038-2.144 3.246-2.144 3.246 0Zm5.85 0c0 2.144-3.245 2.144-3.245 0s3.245-2.144 3.245 0Zm5.849 0c0 2.144-3.245 2.144-3.245 0s3.245-2.144 3.245 0Zm5.812 0c0 2.144-3.246 2.144-3.246 0s3.246-2.144 3.246 0Zm5.85 0c0 2.144-3.246 2.144-3.246 0s3.245-2.144 3.245 0Zm17.51 0c0 2.144-3.245 2.144-3.245 0s3.245-2.144 3.245 0Zm5.812 0c0 2.144-3.245 2.144-3.245 0 .038-2.144 3.245-2.144 3.245 0Zm5.85 0c0 2.144-3.246 2.144-3.246 0s3.246-2.144 3.246 0Zm5.849 0c0 2.144-3.245 2.144-3.245 0s3.245-2.144 3.245 0Zm5.812 0c0 2.144-3.245 2.144-3.245 0 .038-2.144 3.245-2.144 3.245 0Zm5.85 0c0 2.144-3.246 2.144-3.246 0s3.246-2.144 3.246 0Zm5.849 0c0 2.144-3.245 2.144-3.245 0s3.245-2.144 3.245 0Zm5.812 0c0 2.144-3.245 2.144-3.245 0s3.245-2.144 3.245 0Zm5.85 0c0 2.144-3.246 2.144-3.246 0s3.246-2.144 3.246 0Zm5.849 0c0 2.144-3.245 2.144-3.245 0s3.245-2.144 3.245 0Zm5.812 0c0 2.144-3.245 2.144-3.245 0s3.245-2.144 3.245 0Zm5.85 0c0 2.144-3.246 2.144-3.246 0s3.246-2.144 3.246 0Zm5.811 0c0 2.144-3.245 2.144-3.245 0 .037-2.144 3.245-2.144 3.245 0Zm5.85 0c0 2.144-3.245 2.144-3.245 0s3.245-2.144 3.245 0Zm5.85 0c0 2.144-3.246 2.144-3.246 0s3.246-2.144 3.246 0Zm5.811 0c0 2.144-3.245 2.144-3.245 0 .037-2.144 3.245-2.144 3.245 0Zm5.849 0c0 2.144-3.245 2.144-3.245 0s3.245-2.144 3.245 0Zm17.511 0c0 2.144-3.245 2.144-3.245 0s3.245-2.144 3.245 0Zm5.851 0c0 2.144-3.246 2.144-3.246 0s3.246-2.144 3.246 0Zm-198.432 5.83c0 2.144-3.246 2.144-3.246 0s3.246-2.144 3.246 0Zm5.812 0c0 2.144-3.246 2.144-3.246 0s3.246-2.144 3.246 0Zm5.849 0c0 2.144-3.245 2.144-3.245 0s3.245-2.144 3.245 0Zm5.849 0c0 2.144-3.245 2.144-3.245 0s3.245-2.144 3.245 0Zm5.812 0c0 2.144-3.246 2.144-3.246 0s3.246-2.144 3.246 0Zm17.511 0c0 2.144-3.246 2.144-3.246 0s3.246-2.144 3.246 0Zm5.85 0c0 2.144-3.245 2.144-3.245 0s3.245-2.144 3.245 0Zm11.661 0c0 2.144-3.246 2.144-3.246 0s3.246-2.144 3.246 0Zm5.85 0c0 2.144-3.246 2.144-3.246 0s3.245-2.144 3.245 0Zm17.51 0c0 2.144-3.245 2.144-3.245 0s3.245-2.144 3.245 0Zm5.812 0c0 2.144-3.245 2.144-3.245 0s3.245-2.144 3.245 0Zm5.85 0c0 2.144-3.246 2.144-3.246 0s3.246-2.144 3.246 0Zm5.849 0c0 2.144-3.245 2.144-3.245 0s3.245-2.144 3.245 0Zm5.812 0c0 2.144-3.245 2.144-3.245 0s3.245-2.144 3.245 0Zm5.85 0c0 2.144-3.246 2.144-3.246 0s3.246-2.144 3.246 0Zm5.849 0c0 2.144-3.245 2.144-3.245 0s3.245-2.144 3.245 0Zm5.812 0c0 2.144-3.245 2.144-3.245 0s3.245-2.144 3.245 0Zm5.85 0c0 2.144-3.246 2.144-3.246 0s3.246-2.144 3.246 0Zm5.849 0c0 2.144-3.245 2.144-3.245 0s3.245-2.144 3.245 0Zm5.812 0c0 2.144-3.245 2.144-3.245 0s3.245-2.144 3.245 0Zm5.85 0c0 2.144-3.246 2.144-3.246 0s3.246-2.144 3.246 0Zm5.811 0c0 2.144-3.245 2.144-3.245 0s3.245-2.144 3.245 0Zm5.85 0c0 2.144-3.245 2.144-3.245 0s3.245-2.144 3.245 0Zm29.172 0c0 2.144-3.246 2.144-3.246 0s3.246-2.144 3.246 0ZM3.246 106.312c0 2.144-3.246 2.144-3.246 0s3.246-2.181 3.246 0Zm5.812 0c0 2.144-3.246 2.144-3.246 0s3.246-2.181 3.246 0Zm5.849 0c0 2.144-3.245 2.144-3.245 0s3.245-2.181 3.245 0Zm5.849 0c0 2.144-3.245 2.144-3.245 0s3.245-2.181 3.245 0Zm5.812 0c0 2.144-3.246 2.144-3.246 0s3.246-2.181 3.246 0Zm5.85 0c0 2.144-3.245 2.144-3.245 0s3.245-2.181 3.245 0Zm5.849 0c0 2.144-3.245 2.144-3.245 0s3.245-2.181 3.245 0Zm5.812 0c0 2.144-3.246 2.144-3.246 0s3.246-2.181 3.246 0Zm5.85 0c0 2.144-3.245 2.144-3.245 0s3.245-2.181 3.245 0Zm5.849 0c0 2.144-3.245 2.144-3.245 0s3.245-2.181 3.245 0Zm5.812 0c0 2.144-3.246 2.144-3.246 0s3.246-2.181 3.246 0Zm5.85 0c0 2.144-3.246 2.144-3.246 0s3.245-2.181 3.245 0Zm5.85 0c0 2.144-3.246 2.144-3.246 0s3.245-2.181 3.245 0Zm5.81 0c0 2.144-3.245 2.144-3.245 0s3.246-2.181 3.246 0Zm5.85 0c0 2.144-3.245 2.144-3.245 0s3.245-2.181 3.245 0Zm5.812 0c0 2.144-3.245 2.144-3.245 0s3.245-2.181 3.245 0Zm5.85 0c0 2.144-3.246 2.144-3.246 0s3.246-2.181 3.246 0Zm5.849 0c0 2.144-3.245 2.144-3.245 0s3.245-2.181 3.245 0Zm5.812 0c0 2.144-3.245 2.144-3.245 0s3.245-2.181 3.245 0Zm5.85 0c0 2.144-3.246 2.144-3.246 0s3.246-2.181 3.246 0Zm5.849 0c0 2.144-3.245 2.144-3.245 0s3.245-2.181 3.245 0Zm5.812 0c0 2.144-3.245 2.144-3.245 0s3.245-2.181 3.245 0Zm5.85 0c0 2.144-3.246 2.144-3.246 0s3.246-2.181 3.246 0Zm5.849 0c0 2.144-3.245 2.144-3.245 0s3.245-2.181 3.245 0Zm5.812 0c0 2.144-3.245 2.144-3.245 0s3.245-2.181 3.245 0Zm5.85 0c0 2.144-3.246 2.144-3.246 0s3.246-2.181 3.246 0Zm5.811 0c0 2.144-3.245 2.144-3.245 0s3.245-2.181 3.245 0Zm29.211 0c0 2.144-3.246 2.144-3.246 0s3.246-2.181 3.246 0Zm5.811 0c0 2.144-3.246 2.144-3.246 0s3.246-2.181 3.246 0Zm-180.92 5.792c0 2.144-3.246 2.144-3.246 0s3.246-2.144 3.246 0Zm5.849 0c0 2.144-3.245 2.144-3.245 0s3.245-2.144 3.245 0Zm5.849 0c0 2.144-3.245 2.144-3.245 0s3.245-2.144 3.245 0Zm5.812 0c0 2.144-3.246 2.144-3.246 0s3.246-2.144 3.246 0Zm5.85 0c0 2.144-3.245 2.144-3.245 0s3.245-2.144 3.245 0Zm5.849 0c0 2.144-3.245 2.144-3.245 0s3.245-2.144 3.245 0Zm5.812 0c0 2.144-3.246 2.144-3.246 0s3.246-2.144 3.246 0Zm5.85 0c0 2.144-3.245 2.144-3.245 0s3.245-2.144 3.245 0Zm17.511 0c0 2.144-3.246 2.144-3.246 0s3.245-2.144 3.245 0Zm5.85 0c0 2.144-3.246 2.144-3.246 0s3.245-2.144 3.245 0Zm5.81 0c0 2.144-3.245 2.144-3.245 0s3.246-2.144 3.246 0Zm5.85 0c0 2.144-3.245 2.144-3.245 0s3.245-2.144 3.245 0Zm5.812 0c0 2.144-3.245 2.144-3.245 0s3.245-2.144 3.245 0Zm5.85 0c0 2.144-3.246 2.144-3.246 0s3.246-2.144 3.246 0Zm5.849 0c0 2.144-3.245 2.144-3.245 0s3.245-2.144 3.245 0Zm5.812 0c0 2.144-3.245 2.144-3.245 0s3.245-2.144 3.245 0Zm5.85 0c0 2.144-3.246 2.144-3.246 0s3.246-2.144 3.246 0Zm5.849 0c0 2.144-3.245 2.144-3.245 0s3.245-2.144 3.245 0Zm5.812 0c0 2.144-3.245 2.144-3.245 0s3.245-2.144 3.245 0Zm5.85 0c0 2.144-3.246 2.144-3.246 0s3.246-2.144 3.246 0Zm5.849 0c0 2.144-3.245 2.144-3.245 0s3.245-2.144 3.245 0Zm5.812 0c0 2.144-3.245 2.144-3.245 0s3.245-2.144 3.245 0Zm5.85 0c0 2.144-3.246 2.144-3.246 0s3.246-2.144 3.246 0Zm5.811 0c0 2.144-3.245 2.144-3.245 0s3.245-2.144 3.245 0Zm29.211 0c0 2.144-3.246 2.144-3.246 0s3.246-2.144 3.246 0Zm-169.26 5.83c0 2.143-3.245 2.143-3.245 0 0-2.144 3.245-2.144 3.245 0Zm5.849 0c0 2.143-3.245 2.143-3.245 0 0-2.144 3.245-2.144 3.245 0Zm5.812 0c0 2.143-3.246 2.143-3.246 0 .038-2.144 3.246-2.144 3.246 0Zm5.85 0c0 2.143-3.245 2.143-3.245 0 0-2.144 3.245-2.144 3.245 0Zm5.849 0c0 2.143-3.245 2.143-3.245 0 0-2.144 3.245-2.144 3.245 0Zm5.812 0c0 2.143-3.246 2.143-3.246 0 .038-2.144 3.246-2.144 3.246 0Zm35.021 0c0 2.143-3.245 2.143-3.245 0 0-2.144 3.246-2.144 3.246 0Zm5.85 0c0 2.143-3.245 2.143-3.245 0 0-2.144 3.245-2.144 3.245 0Zm5.812 0c0 2.143-3.245 2.143-3.245 0 .038-2.144 3.245-2.144 3.245 0Zm5.85 0c0 2.143-3.246 2.143-3.246 0 0-2.144 3.246-2.144 3.246 0Zm11.661 0c0 2.143-3.245 2.143-3.245 0 .038-2.144 3.245-2.144 3.245 0Zm5.85 0c0 2.143-3.246 2.143-3.246 0 0-2.144 3.246-2.144 3.246 0Zm5.849 0c0 2.143-3.245 2.143-3.245 0 0-2.144 3.245-2.144 3.245 0Zm5.812 0c0 2.143-3.245 2.143-3.245 0 0-2.144 3.245-2.144 3.245 0Zm5.85 0c0 2.143-3.246 2.143-3.246 0 0-2.144 3.246-2.144 3.246 0Zm11.661 0c0 2.143-3.245 2.143-3.245 0 0-2.144 3.245-2.144 3.245 0Zm5.85 0c0 2.143-3.246 2.143-3.246 0 0-2.144 3.246-2.144 3.246 0Zm5.811 0c0 2.143-3.245 2.143-3.245 0 .037-2.144 3.245-2.144 3.245 0Zm5.85 0c0 2.143-3.245 2.143-3.245 0 0-2.144 3.245-2.144 3.245 0Zm23.361 0c0 2.143-3.246 2.143-3.246 0 0-2.144 3.246-2.144 3.246 0Zm-163.411 5.791c0 2.144-3.245 2.144-3.245 0 0-2.143 3.245-2.143 3.245 0Zm5.812 0c0 2.144-3.246 2.144-3.246 0 .038-2.143 3.246-2.143 3.246 0Zm122.577 0c0 2.144-3.246 2.144-3.246 0 0-2.143 3.246-2.143 3.246 0Zm5.811 0c0 2.144-3.245 2.144-3.245 0 .037-2.143 3.245-2.143 3.245 0Zm0 5.83c0 2.143-3.245 2.143-3.245 0 .037-2.144 3.245-2.144 3.245 0Zm-5.811 5.829c0 2.144-3.246 2.144-3.246 0 0-2.143 3.246-2.181 3.246 0Zm5.661 0c0 2.144-3.246 2.144-3.246 0 0-2.143 3.246-2.181 3.246 0Z" clip-rule="evenodd"/>
  <path fill="#fff" d="M11.247 156.07v4.926h-.68v-4.926H8.795v-.602h4.189v.602h-1.736Zm4.943-.565c.906 0 1.472.565 1.472 1.43 0 .827-.528 1.128-.905 1.165v.038c.415.038 1.094.376 1.094 1.279 0 .902-.604 1.579-1.434 1.579h-2.529v-5.491h2.303Zm-1.585 2.37h1.548c.528 0 .83-.264.83-.752v-.264c0-.489-.302-.752-.83-.752h-1.547v1.768Zm0 2.557h1.623c.566 0 .906-.301.906-.865v-.263c0-.564-.34-.865-.906-.865h-1.623v1.993Zm4.228-2.181c0-1.843.905-2.858 2.34-2.858 1.434 0 2.34 1.015 2.34 2.858 0 1.843-.906 2.858-2.34 2.858-1.435 0-2.34-1.015-2.34-2.858Zm3.962.451v-.902c0-1.091-.679-1.806-1.623-1.806-.943 0-1.622.715-1.622 1.806v.902c0 1.091.68 1.805 1.622 1.805.944 0 1.623-.714 1.623-1.805Zm1.925-3.197h.642v3.46l-.076 1.129h.038l.566-.978 2.377-3.611h.604v5.529h-.641v-3.46l.075-1.128h-.038l-.566.977-2.377 3.611h-.604v-5.529Zm.944-1.166-.151-.3.566-.264.264.64c.113.037.302.037.415.037.113 0 .302 0 .415-.037l.264-.64.566.264-.15.3c-.19.377-.529.602-1.095.602s-.868-.225-1.095-.602Zm6.528 1.166h4.038v5.529h-.679v-4.964h-2.68v4.926h-.679v-5.491Zm5.51 5.491v-5.528h2.189c.981 0 1.547.602 1.547 1.579 0 .978-.566 1.58-1.547 1.58h-1.547v2.369h-.642Zm.642-2.933h1.547c.528 0 .83-.301.83-.79v-.414c0-.489-.302-.789-.83-.789h-1.547v1.993Zm3.887.188c0-1.843.906-2.858 2.34-2.858 1.434 0 2.34 1.015 2.34 2.858 0 1.843-.906 2.858-2.34 2.858-1.434 0-2.34-1.015-2.34-2.858Zm3.963.451v-.902c0-1.091-.68-1.806-1.623-1.806-.944 0-1.623.715-1.623 1.806v.902c0 1.091.68 1.805 1.623 1.805s1.623-.714 1.623-1.805Zm4.189-3.197c.905 0 1.471.565 1.471 1.43 0 .827-.528 1.128-.905 1.165v.038a1.244 1.244 0 0 1 1.094 1.279c0 .902-.604 1.579-1.434 1.579H48.08v-5.491h2.303Zm-1.623 2.37h1.547c.528 0 .83-.264.83-.752v-.264c0-.489-.302-.752-.83-.752H48.76v1.768Zm0 2.557h1.623c.566 0 .905-.301.905-.865v-.263c0-.564-.34-.865-.905-.865H48.76v1.993Zm4.226-2.181c0-1.843.906-2.858 2.34-2.858 1.434 0 2.34 1.015 2.34 2.858 0 1.843-.906 2.858-2.34 2.858-1.434 0-2.34-1.015-2.34-2.858Zm4 .451v-.902c0-1.091-.679-1.806-1.622-1.806-.944 0-1.623.715-1.623 1.806v.902c0 1.091.679 1.805 1.623 1.805.943 0 1.622-.714 1.622-1.805Zm1.095 1.73h.566c.491-.677.755-1.692.755-3.309v-1.618h3.321v4.927h.793v1.768h-.604v-1.166h-4.19v1.166h-.603v-1.768h-.038Zm3.963 0v-4.362h-2.038v1.09c0 1.693-.227 2.67-.604 3.235v.037h2.642Zm5.887-1.918h-2.793v2.482h-.679v-5.528h.68v2.444h2.792v-2.444h.68v5.528h-.68v-2.482Zm2.793-3.009v3.46l-.076 1.129h.038l.566-.978 2.377-3.611h.604v5.529h-.641v-3.46l.075-1.128h-.075l-.566.977-2.378 3.611h-.604v-5.529h.68Zm4.981 0h.68v2.445h1.094l1.094-1.88c.227-.414.453-.565.793-.565h.377v.602h-.49l-.981 1.693c-.19.3-.265.376-.453.451v.037c.226.038.415.151.604.489l1.019 1.693h.49v.602h-.49c-.265 0-.491-.113-.717-.527l-1.208-1.993h-1.095v2.52h-.679v-5.567h-.038Zm9.359 0c.906 0 1.472.565 1.472 1.43 0 .827-.528 1.128-.906 1.165v.038c.416.038 1.095.376 1.095 1.279 0 .902-.604 1.579-1.434 1.579h-2.529v-5.491h2.302Zm-1.585 2.37h1.547c.529 0 .83-.264.83-.752v-.264c0-.489-.301-.752-.83-.752H83.48v1.768Zm0 2.557h1.623c.566 0 .906-.301.906-.865v-.263c0-.564-.34-.865-.906-.865h-1.623v1.993Zm6.379-4.927h.905l1.585 2.972h.038l1.585-2.972h.868v5.529h-.641v-4.626h-.038l-.453.94-1.32 2.407-1.322-2.407-.453-.94h-.037v4.626h-.642v-5.529h-.075Zm6.415 0h.641v3.46l-.075 1.129h.038l.566-.978 2.377-3.611h.604v5.529h-.642v-3.46l.076-1.128h-.038l-.566.977-2.377 3.611h-.604v-5.529Zm5.623 5.491v-5.528h2.189c.981 0 1.547.602 1.547 1.579 0 .978-.566 1.58-1.547 1.58h-1.548v2.369h-.641Zm.641-2.933h1.548c.528 0 .83-.301.83-.79v-.414c0-.489-.302-.789-.83-.789h-1.548v1.993Zm6.039-2.558h3.397v.602h-2.718v1.617h1.661c.981 0 1.547.602 1.547 1.655s-.566 1.655-1.547 1.655h-2.302v-5.529h-.038Zm2.302 4.927c.528 0 .83-.301.83-.865v-.414c0-.564-.302-.865-.83-.865h-1.66v2.144h1.66Zm2.717-4.964h3.359v.602h-2.717v1.842h2.566v.602h-2.566v1.918h2.717v.602h-3.359v-5.566Zm4.114 4.663.491-.376c.339.489.792.79 1.434.79.792 0 1.245-.301 1.245-.978v-.113c0-.564-.377-.94-1.17-.94h-.83v-.602h.792c.793 0 1.095-.3 1.095-.94v-.15c0-.527-.34-.828-1.095-.828-.679 0-1.056.264-1.321.64l-.528-.339c.378-.564.906-.902 1.812-.902 1.207 0 1.773.564 1.773 1.429 0 .752-.415 1.166-1.056 1.316v.038c.641.075 1.17.451 1.17 1.278 0 .978-.755 1.618-1.963 1.618-.83.037-1.434-.339-1.849-.941Zm4.868-1.88c0-1.843.906-2.858 2.34-2.858 1.434 0 2.34 1.015 2.34 2.858 0 1.843-.906 2.858-2.34 2.858-1.434 0-2.34-1.015-2.34-2.858Zm3.963.451v-.902c0-1.091-.679-1.806-1.623-1.806-.943 0-1.623.715-1.623 1.806v.902c0 1.091.68 1.805 1.623 1.805.944 0 1.623-.714 1.623-1.805Zm5.925-3.197v5.529h-.68v-4.964h-2.679v4.926h-.679v-5.491h4.038Zm4.943 5.491-.566-1.617h-2.227l-.566 1.617h-.679l1.925-5.528h.83l1.925 5.528h-.642Zm-1.66-4.889h-.038l-.944 2.67h1.925l-.943-2.67Zm2.868 2.181c0-1.842.83-2.895 2.226-2.895.906 0 1.548.451 1.887 1.203l-.528.339c-.226-.565-.679-.941-1.359-.941-.943 0-1.509.753-1.509 1.881v.827c0 1.128.566 1.805 1.509 1.805.717 0 1.17-.376 1.397-.977l.528.338c-.34.79-1.019 1.241-1.925 1.241-1.396 0-2.226-.978-2.226-2.821Zm8.68.226h-2.792v2.482h-.68v-5.528h.68v2.444h2.792v-2.444h.68v5.528h-.68v-2.482Zm1.849-.263c0-1.843.906-2.858 2.34-2.858 1.434 0 2.34 1.015 2.34 2.858 0 1.843-.906 2.858-2.34 2.858-1.434 0-2.34-1.015-2.34-2.858Zm4 .451v-.902c0-1.091-.679-1.806-1.622-1.806-.944 0-1.623.715-1.623 1.806v.902c0 1.091.679 1.805 1.623 1.805.943 0 1.622-.714 1.622-1.805Zm1.888-3.197h3.019v.602h-2.34v4.927h-.679v-5.529Zm3.434 2.746c0-1.843.906-2.858 2.34-2.858 1.434 0 2.34 1.015 2.34 2.858 0 1.843-.906 2.858-2.34 2.858-1.434 0-2.34-1.015-2.34-2.858Zm3.963.451v-.902c0-1.091-.68-1.806-1.623-1.806-.944 0-1.623.715-1.623 1.806v.902c0 1.091.679 1.805 1.623 1.805.943 0 1.623-.714 1.623-1.805Zm3.774-3.197h.641v3.46l-.075 1.129h.037l.566-.978 2.378-3.611h.604v5.529h-.642v-3.46l.076-1.128h-.038l-.566.977-2.378 3.611h-.603v-5.529Zm9.094 3.009h-2.83v2.482h-.679v-5.528h.679v2.444h2.793v-2.444h.679v5.528h-.679v-2.482h.037Zm4.001-2.444v4.926h-.679v-4.926h-1.774v-.602h4.189v.602h-1.736Zm2.642-.602h3.358v.602h-2.717v1.842h2.566v.602h-2.566v1.918h2.717v.602h-3.358v-5.566Zm4.642 5.528v-5.528h2.188c.982 0 1.548.602 1.548 1.579 0 .978-.566 1.58-1.548 1.58h-1.547v2.369h-.641Zm.679-2.933h1.547c.529 0 .83-.301.83-.79v-.414c0-.489-.301-.789-.83-.789h-1.547v1.993Zm7.585.451h-2.793v2.482h-.679v-5.528h.679v2.444h2.793v-2.444h.679v5.528h-.679v-2.482Zm2.151-3.046h3.359v.602h-2.717v1.842h2.566v.602h-2.566v1.918h2.717v.602h-3.359v-5.566Zm6.453.602v4.926h-.679v-4.926h-1.774v-.602h4.189v.602h-1.736Zm5.624 4.926-.566-1.617h-2.227l-.566 1.617h-.679l1.924-5.528h.831l1.924 5.528h-.641Zm-1.661-4.889h-.037l-.944 2.67h1.925l-.944-2.67ZM8.83 132.037h9.85v1.956h-7.623v4.889h7.057v1.956h-7.057v5.039h7.66v1.956H8.83v-15.796Zm16.757 15.758-5.208-15.758h2.302l2.566 7.86 1.66 5.717h.114l1.66-5.717 2.566-7.86h2.227l-5.283 15.758h-2.604Zm19.246 0-1.51-4.438h-6.15l-1.51 4.438h-2.227l5.472-15.758h2.755l5.472 15.758h-2.302Zm-4.529-13.765h-.113l-2.49 7.372h5.094l-2.49-7.372Z"/>
</svg>
